<svg version="1.0" xmlns="http://www.w3.org/2000/svg"
 width="{{.size}}"  viewBox="0 0 200.000000 200.000000"
 preserveAspectRatio="xMidYMid meet">

<g transform="translate(0.000000,200.000000) scale(0.100000,-0.100000)"
fill="#000000" stroke="none">
<path d="M766 1814 c-10 -10 -14 -28 -12 -52 3 -20 7 -64 11 -97 22 -195 139
-471 252 -596 83 -91 143 -149 155 -149 5 0 33 -16 62 -35 142 -94 278 -134
471 -137 l140 -3 3 245 c2 221 1 246 -15 258 -11 7 -52 12 -114 12 -100 0
-281 20 -379 43 l-55 12 -7 55 c-3 30 -6 141 -7 245 -1 134 -5 195 -13 203 -9
9 -77 12 -244 12 -197 0 -235 -2 -248 -16z"/>
<path d="M190 1000 c0 -292 -10 -270 127 -270 102 0 222 -13 345 -37 l88 -16
0 -247 c0 -178 3 -249 12 -258 9 -9 78 -12 249 -12 257 0 260 1 258 56 -4 93
-32 266 -53 327 -114 337 -327 562 -626 661 -112 37 -170 46 -290 46 l-110 0
0 -250z"/>
</g>
</svg>