<?xml version="1.0" encoding="utf-8"?>
<!-- Generator: Adobe Illustrator 14.0.0, SVG Export Plug-In . SVG Version: 6.00 Build 43363)  -->
<!DOCTYPE svg PUBLIC "-//W3C//DTD SVG 1.1//EN" "http://www.w3.org/Graphics/SVG/1.1/DTD/svg11.dtd">
<svg version="1.1" id="Layer_1" xmlns="http://www.w3.org/2000/svg" xmlns:xlink="http://www.w3.org/1999/xlink" x="0px" y="0px"
	 width="28.2px" height="30px" viewBox="0 0 28.2 30" enable-background="new 0 0 28.2 30" xml:space="preserve">
<g>
	<g opacity="0.4">
		<ellipse opacity="0.3" fill="#FFFFFF" cx="14.457" cy="29.329" rx="11.291" ry="0.672"/>
		<ellipse opacity="0.3038" fill="#FBFBFB" cx="14.457" cy="29.329" rx="11.237" ry="0.669"/>
		<ellipse opacity="0.3077" fill="#F7F7F7" cx="14.457" cy="29.329" rx="11.183" ry="0.666"/>
		<ellipse opacity="0.3115" fill="#F4F4F3" cx="14.457" cy="29.329" rx="11.13" ry="0.663"/>
		<ellipse opacity="0.3154" fill="#F2F1F0" cx="14.457" cy="29.329" rx="11.076" ry="0.66"/>
		<ellipse opacity="0.3192" fill="#EFEEEE" cx="14.457" cy="29.329" rx="11.023" ry="0.657"/>
		<ellipse opacity="0.3231" fill="#EDECEB" cx="14.457" cy="29.329" rx="10.969" ry="0.655"/>
		<ellipse opacity="0.3269" fill="#EBE9E9" cx="14.457" cy="29.329" rx="10.916" ry="0.652"/>
		<ellipse opacity="0.3308" fill="#E9E7E7" cx="14.457" cy="29.329" rx="10.862" ry="0.649"/>
		<ellipse opacity="0.3346" fill="#E6E5E5" cx="14.457" cy="29.329" rx="10.808" ry="0.646"/>
		<ellipse opacity="0.3385" fill="#E4E3E3" cx="14.457" cy="29.329" rx="10.754" ry="0.644"/>
		<ellipse opacity="0.3423" fill="#E3E1E1" cx="14.457" cy="29.329" rx="10.701" ry="0.641"/>
		<ellipse opacity="0.3462" fill="#E1DFDF" cx="14.457" cy="29.329" rx="10.648" ry="0.638"/>
		<ellipse opacity="0.35" fill="#DFDDDD" cx="14.457" cy="29.329" rx="10.594" ry="0.635"/>
		<ellipse opacity="0.3538" fill="#DDDBDB" cx="14.457" cy="29.329" rx="10.54" ry="0.632"/>
		<ellipse opacity="0.3577" fill="#DBD9D9" cx="14.457" cy="29.329" rx="10.487" ry="0.629"/>
		<ellipse opacity="0.3615" fill="#D9D7D7" cx="14.457" cy="29.329" rx="10.433" ry="0.626"/>
		<ellipse opacity="0.3654" fill="#D7D5D5" cx="14.457" cy="29.329" rx="10.379" ry="0.623"/>
		<ellipse opacity="0.3692" fill="#D5D4D3" cx="14.457" cy="29.329" rx="10.326" ry="0.621"/>
		<ellipse opacity="0.3731" fill="#D4D2D1" cx="14.457" cy="29.329" rx="10.272" ry="0.618"/>
		<ellipse opacity="0.3769" fill="#D2D0D0" cx="14.457" cy="29.329" rx="10.219" ry="0.615"/>
		<ellipse opacity="0.3808" fill="#D0CECE" cx="14.457" cy="29.329" rx="10.165" ry="0.612"/>
		<ellipse opacity="0.3846" fill="#CECCCC" cx="14.457" cy="29.329" rx="10.112" ry="0.609"/>
		<ellipse opacity="0.3885" fill="#CCCACA" cx="14.457" cy="29.328" rx="10.058" ry="0.607"/>
		<ellipse opacity="0.3923" fill="#CBC8C8" cx="14.457" cy="29.328" rx="10.004" ry="0.604"/>
		<ellipse opacity="0.3962" fill="#C9C7C7" cx="14.457" cy="29.328" rx="9.951" ry="0.602"/>
		<ellipse opacity="0.4" fill="#C7C5C5" cx="14.457" cy="29.328" rx="9.897" ry="0.599"/>
		<ellipse opacity="0.4038" fill="#C5C3C3" cx="14.458" cy="29.328" rx="9.844" ry="0.596"/>
		<ellipse opacity="0.4077" fill="#C4C1C1" cx="14.457" cy="29.328" rx="9.79" ry="0.593"/>
		<ellipse opacity="0.4115" fill="#C2C0BF" cx="14.457" cy="29.328" rx="9.737" ry="0.591"/>
		<ellipse opacity="0.4154" fill="#C0BEBE" cx="14.457" cy="29.328" rx="9.683" ry="0.588"/>
		<ellipse opacity="0.4192" fill="#BEBCBC" cx="14.457" cy="29.328" rx="9.629" ry="0.585"/>
		<ellipse opacity="0.4231" fill="#BDBABA" cx="14.457" cy="29.328" rx="9.576" ry="0.582"/>
		<ellipse opacity="0.4269" fill="#BBB9B9" cx="14.457" cy="29.328" rx="9.522" ry="0.579"/>
		<ellipse opacity="0.4308" fill="#B9B7B7" cx="14.457" cy="29.328" rx="9.468" ry="0.576"/>
		<ellipse opacity="0.4346" fill="#B8B5B5" cx="14.458" cy="29.328" rx="9.415" ry="0.573"/>
		<ellipse opacity="0.4385" fill="#B6B4B3" cx="14.458" cy="29.328" rx="9.361" ry="0.57"/>
		<ellipse opacity="0.4423" fill="#B5B2B2" cx="14.457" cy="29.328" rx="9.308" ry="0.567"/>
		<ellipse opacity="0.4462" fill="#B3B0B0" cx="14.457" cy="29.328" rx="9.254" ry="0.564"/>
		<ellipse opacity="0.45" fill="#B1AFAF" cx="14.457" cy="29.328" rx="9.2" ry="0.562"/>
		<ellipse opacity="0.4538" fill="#B0ADAD" cx="14.457" cy="29.328" rx="9.147" ry="0.56"/>
		<ellipse opacity="0.4577" fill="#AEABAB" cx="14.457" cy="29.328" rx="9.093" ry="0.557"/>
		<ellipse opacity="0.4615" fill="#ADAAAA" cx="14.458" cy="29.328" rx="9.04" ry="0.554"/>
		<ellipse opacity="0.4654" fill="#ABA8A8" cx="14.458" cy="29.328" rx="8.986" ry="0.551"/>
		<ellipse opacity="0.4692" fill="#A9A7A6" cx="14.458" cy="29.328" rx="8.933" ry="0.548"/>
		<ellipse opacity="0.4731" fill="#A8A5A5" cx="14.457" cy="29.328" rx="8.879" ry="0.545"/>
		<ellipse opacity="0.4769" fill="#A6A3A3" cx="14.457" cy="29.328" rx="8.825" ry="0.542"/>
		<ellipse opacity="0.4808" fill="#A5A2A2" cx="14.457" cy="29.328" rx="8.772" ry="0.539"/>
		<ellipse opacity="0.4846" fill="#A3A0A0" cx="14.457" cy="29.328" rx="8.718" ry="0.536"/>
		<ellipse opacity="0.4885" fill="#A29F9F" cx="14.457" cy="29.328" rx="8.665" ry="0.533"/>
		<ellipse opacity="0.4923" fill="#A09D9D" cx="14.458" cy="29.328" rx="8.611" ry="0.53"/>
		<ellipse opacity="0.4962" fill="#9F9C9C" cx="14.458" cy="29.328" rx="8.558" ry="0.527"/>
		<ellipse opacity="0.5" fill="#9D9A9A" cx="14.458" cy="29.328" rx="8.504" ry="0.525"/>
		<ellipse opacity="0.5038" fill="#9C9999" cx="14.458" cy="29.328" rx="8.45" ry="0.522"/>
		<ellipse opacity="0.5077" fill="#9A9797" cx="14.457" cy="29.328" rx="8.397" ry="0.52"/>
		<ellipse opacity="0.5115" fill="#999696" cx="14.457" cy="29.328" rx="8.343" ry="0.517"/>
		<ellipse opacity="0.5154" fill="#979494" cx="14.457" cy="29.328" rx="8.289" ry="0.514"/>
		<ellipse opacity="0.5192" fill="#969393" cx="14.457" cy="29.328" rx="8.236" ry="0.511"/>
		<ellipse opacity="0.5231" fill="#949191" cx="14.458" cy="29.328" rx="8.183" ry="0.508"/>
		<ellipse opacity="0.5269" fill="#939090" cx="14.458" cy="29.328" rx="8.129" ry="0.505"/>
		<ellipse opacity="0.5308" fill="#918E8E" cx="14.458" cy="29.328" rx="8.075" ry="0.502"/>
		<ellipse opacity="0.5346" fill="#908D8D" cx="14.458" cy="29.328" rx="8.021" ry="0.499"/>
		<ellipse opacity="0.5385" fill="#8E8B8B" cx="14.457" cy="29.328" rx="7.968" ry="0.496"/>
		<ellipse opacity="0.5423" fill="#8D8A8A" cx="14.457" cy="29.328" rx="7.914" ry="0.494"/>
		<ellipse opacity="0.5462" fill="#8B8888" cx="14.457" cy="29.328" rx="7.861" ry="0.491"/>
		<ellipse opacity="0.55" fill="#8A8787" cx="14.458" cy="29.328" rx="7.807" ry="0.488"/>
		<ellipse opacity="0.5538" fill="#898685" cx="14.458" cy="29.328" rx="7.754" ry="0.485"/>
		<ellipse opacity="0.5577" fill="#878484" cx="14.458" cy="29.328" rx="7.7" ry="0.482"/>
		<ellipse opacity="0.5615" fill="#868383" cx="14.458" cy="29.328" rx="7.646" ry="0.479"/>
		<ellipse opacity="0.5654" fill="#848181" cx="14.458" cy="29.327" rx="7.593" ry="0.478"/>
		<ellipse opacity="0.5692" fill="#838080" cx="14.458" cy="29.327" rx="7.539" ry="0.475"/>
		<ellipse opacity="0.5731" fill="#827F7E" cx="14.457" cy="29.327" rx="7.486" ry="0.472"/>
		<ellipse opacity="0.5769" fill="#807D7D" cx="14.457" cy="29.327" rx="7.432" ry="0.469"/>
		<ellipse opacity="0.5808" fill="#7F7C7C" cx="14.458" cy="29.327" rx="7.379" ry="0.466"/>
		<ellipse opacity="0.5846" fill="#7E7A7A" cx="14.458" cy="29.327" rx="7.325" ry="0.464"/>
		<ellipse opacity="0.5885" fill="#7C7979" cx="14.458" cy="29.327" rx="7.271" ry="0.461"/>
		<ellipse opacity="0.5923" fill="#7B7878" cx="14.458" cy="29.327" rx="7.218" ry="0.458"/>
		<ellipse opacity="0.5962" fill="#7A7676" cx="14.458" cy="29.327" rx="7.164" ry="0.455"/>
		<ellipse opacity="0.6" fill="#787575" cx="14.458" cy="29.327" rx="7.11" ry="0.452"/>
		<ellipse opacity="0.6038" fill="#777474" cx="14.457" cy="29.327" rx="7.057" ry="0.449"/>
		<ellipse opacity="0.6077" fill="#767372" cx="14.458" cy="29.327" rx="7.004" ry="0.446"/>
		<ellipse opacity="0.6115" fill="#747171" cx="14.458" cy="29.327" rx="6.95" ry="0.443"/>
		<ellipse opacity="0.6154" fill="#737070" cx="14.458" cy="29.327" rx="6.896" ry="0.44"/>
		<ellipse opacity="0.6192" fill="#726F6E" cx="14.458" cy="29.327" rx="6.843" ry="0.438"/>
		<ellipse opacity="0.6231" fill="#716D6D" cx="14.458" cy="29.327" rx="6.789" ry="0.435"/>
		<path opacity="0.6269" fill="#6F6C6C" d="M21.193,29.327c0,0.241-3.016,0.432-6.737,0.432c-3.718,0-6.734-0.19-6.734-0.432
			c0-0.238,3.016-0.429,6.734-0.429C18.177,28.898,21.193,29.089,21.193,29.327z"/>
		<ellipse opacity="0.6308" fill="#6E6B6B" cx="14.458" cy="29.327" rx="6.682" ry="0.43"/>
		<ellipse opacity="0.6346" fill="#6D6A69" cx="14.457" cy="29.327" rx="6.628" ry="0.427"/>
		<ellipse opacity="0.6385" fill="#6C6868" cx="14.458" cy="29.327" rx="6.575" ry="0.424"/>
		<ellipse opacity="0.6423" fill="#6A6767" cx="14.458" cy="29.327" rx="6.521" ry="0.421"/>
		<ellipse opacity="0.6462" fill="#696666" cx="14.458" cy="29.327" rx="6.468" ry="0.418"/>
		<ellipse opacity="0.65" fill="#686565" cx="14.458" cy="29.327" rx="6.414" ry="0.415"/>
		<ellipse opacity="0.6538" fill="#676463" cx="14.458" cy="29.327" rx="6.36" ry="0.412"/>
		<ellipse opacity="0.6577" fill="#656262" cx="14.458" cy="29.327" rx="6.307" ry="0.409"/>
		<ellipse opacity="0.6615" fill="#646161" cx="14.458" cy="29.327" rx="6.253" ry="0.406"/>
		<path opacity="0.6654" fill="#636060" d="M20.658,29.327c0,0.226-2.776,0.403-6.202,0.403c-3.422,0-6.198-0.178-6.198-0.403
			c0-0.223,2.776-0.4,6.198-0.4C17.881,28.927,20.658,29.104,20.658,29.327z"/>
		<ellipse opacity="0.6692" fill="#625F5F" cx="14.458" cy="29.327" rx="6.146" ry="0.4"/>
		<ellipse opacity="0.6731" fill="#615E5D" cx="14.458" cy="29.327" rx="6.093" ry="0.398"/>
		<ellipse opacity="0.6769" fill="#5F5D5C" cx="14.458" cy="29.327" rx="6.039" ry="0.396"/>
		<ellipse opacity="0.6808" fill="#5E5C5B" cx="14.458" cy="29.327" rx="5.985" ry="0.393"/>
		<ellipse opacity="0.6846" fill="#5D5A5A" cx="14.458" cy="29.327" rx="5.932" ry="0.39"/>
		<ellipse opacity="0.6885" fill="#5C5959" cx="14.458" cy="29.327" rx="5.878" ry="0.387"/>
		<ellipse opacity="0.6923" fill="#5B5858" cx="14.458" cy="29.327" rx="5.824" ry="0.384"/>
		<ellipse opacity="0.6962" fill="#5A5757" cx="14.458" cy="29.327" rx="5.771" ry="0.381"/>
		<ellipse opacity="0.7" fill="#595655" cx="14.458" cy="29.327" rx="5.718" ry="0.378"/>
		<path opacity="0.7038" fill="#585554" d="M20.122,29.327c0,0.21-2.536,0.375-5.666,0.375c-3.126,0-5.662-0.165-5.662-0.375
			c0-0.207,2.536-0.372,5.662-0.372C17.585,28.955,20.122,29.12,20.122,29.327z"/>
		<ellipse opacity="0.7077" fill="#575453" cx="14.458" cy="29.327" rx="5.61" ry="0.372"/>
		<path opacity="0.7115" fill="#555352" d="M20.014,29.327c0,0.207-2.487,0.369-5.558,0.369c-3.067,0-5.555-0.162-5.555-0.369
			c0-0.203,2.488-0.367,5.555-0.367C17.527,28.96,20.014,29.124,20.014,29.327z"/>
		<path opacity="0.7154" fill="#545251" d="M19.96,29.327c0,0.205-2.464,0.366-5.504,0.366c-3.037,0-5.501-0.161-5.501-0.366
			c0-0.202,2.464-0.364,5.501-0.364C17.497,28.963,19.96,29.125,19.96,29.327z"/>
		<ellipse opacity="0.7192" fill="#535150" cx="14.458" cy="29.327" rx="5.449" ry="0.364"/>
		<ellipse opacity="0.7231" fill="#524F4F" cx="14.458" cy="29.327" rx="5.396" ry="0.361"/>
		<ellipse opacity="0.7269" fill="#514E4E" cx="14.458" cy="29.327" rx="5.342" ry="0.358"/>
		<path opacity="0.7308" fill="#504D4D" d="M19.747,29.327c0,0.199-2.368,0.355-5.291,0.355c-2.919,0-5.287-0.156-5.287-0.355
			c0-0.195,2.368-0.353,5.287-0.353C17.378,28.975,19.747,29.132,19.747,29.327z"/>
		<ellipse opacity="0.7346" fill="#4F4C4C" cx="14.458" cy="29.327" rx="5.235" ry="0.353"/>
		<ellipse opacity="0.7385" fill="#4E4B4B" cx="14.458" cy="29.326" rx="5.181" ry="0.351"/>
		<path opacity="0.7423" fill="#4D4A4A" d="M19.585,29.326c0,0.195-2.296,0.348-5.129,0.348c-2.83,0-5.126-0.152-5.126-0.348
			c0-0.189,2.296-0.343,5.126-0.343C17.29,28.983,19.585,29.137,19.585,29.326z"/>
		<path opacity="0.7462" fill="#4C4949" d="M19.532,29.326c0,0.193-2.271,0.345-5.076,0.345c-2.8,0-5.072-0.151-5.072-0.345
			c0-0.188,2.272-0.34,5.072-0.34C17.26,28.986,19.532,29.138,19.532,29.326z"/>
		<path opacity="0.75" fill="#4B4848" d="M19.478,29.326c0,0.192-2.247,0.342-5.022,0.342c-2.771,0-5.019-0.149-5.019-0.342
			c0-0.187,2.248-0.338,5.019-0.338C17.231,28.988,19.478,29.14,19.478,29.326z"/>
		<path opacity="0.7538" fill="#4A4747" d="M19.425,29.326c0,0.19-2.225,0.339-4.969,0.339c-2.741,0-4.965-0.148-4.965-0.339
			c0-0.186,2.224-0.335,4.965-0.335C17.201,28.991,19.425,29.141,19.425,29.326z"/>
		<path opacity="0.7577" fill="#494646" d="M19.372,29.326c0,0.188-2.2,0.336-4.916,0.336c-2.711,0-4.912-0.147-4.912-0.336
			c0-0.184,2.2-0.332,4.912-0.332C17.171,28.994,19.372,29.143,19.372,29.326z"/>
		<path opacity="0.7615" fill="#484545" d="M19.318,29.326c0,0.188-2.176,0.334-4.862,0.334c-2.682,0-4.858-0.146-4.858-0.334
			c0-0.182,2.176-0.329,4.858-0.329C17.142,28.997,19.318,29.145,19.318,29.326z"/>
		<ellipse opacity="0.7654" fill="#474444" cx="14.458" cy="29.326" rx="4.806" ry="0.331"/>
		<path opacity="0.7692" fill="#464343" d="M19.21,29.326c0,0.185-2.128,0.328-4.754,0.328c-2.623,0-4.751-0.144-4.751-0.328
			c0-0.179,2.128-0.323,4.751-0.323C17.083,29.003,19.21,29.147,19.21,29.326z"/>
		<path opacity="0.7731" fill="#454242" d="M19.157,29.326c0,0.183-2.104,0.325-4.701,0.325c-2.593,0-4.697-0.143-4.697-0.325
			c0-0.178,2.104-0.32,4.697-0.32C17.053,29.006,19.157,29.148,19.157,29.326z"/>
		<ellipse opacity="0.7769" fill="#444141" cx="14.458" cy="29.326" rx="4.645" ry="0.322"/>
		<path opacity="0.7808" fill="#434040" d="M19.049,29.326c0,0.18-2.056,0.319-4.593,0.319c-2.534,0-4.59-0.14-4.59-0.319
			c0-0.174,2.056-0.314,4.59-0.314C16.994,29.012,19.049,29.152,19.049,29.326z"/>
		<path opacity="0.7846" fill="#423F3F" d="M18.997,29.326c0,0.178-2.032,0.316-4.541,0.316c-2.504,0-4.537-0.139-4.537-0.316
			c0-0.173,2.032-0.312,4.537-0.312C16.964,29.015,18.997,29.153,18.997,29.326z"/>
		<path opacity="0.7885" fill="#413E3E" d="M18.943,29.326c0,0.177-2.008,0.313-4.487,0.313c-2.475,0-4.483-0.137-4.483-0.313
			c0-0.171,2.008-0.31,4.483-0.31C16.935,29.017,18.943,29.155,18.943,29.326z"/>
		<path opacity="0.7923" fill="#403D3D" d="M18.889,29.326c0,0.175-1.984,0.311-4.433,0.311c-2.445,0-4.429-0.136-4.429-0.311
			c0-0.17,1.984-0.307,4.429-0.307C16.905,29.02,18.889,29.156,18.889,29.326z"/>
		<path opacity="0.7962" fill="#3F3C3C" d="M18.835,29.326c0,0.173-1.96,0.308-4.379,0.308c-2.416,0-4.375-0.135-4.375-0.308
			c0-0.168,1.96-0.304,4.375-0.304C16.875,29.022,18.835,29.158,18.835,29.326z"/>
		<path opacity="0.8" fill="#3E3C3B" d="M18.782,29.326c0,0.172-1.936,0.305-4.326,0.305c-2.386,0-4.322-0.133-4.322-0.305
			c0-0.166,1.936-0.301,4.322-0.301C16.846,29.025,18.782,29.16,18.782,29.326z"/>
		<ellipse opacity="0.8038" fill="#3D3B3A" cx="14.458" cy="29.326" rx="4.27" ry="0.303"/>
		<path opacity="0.8077" fill="#3C3A39" d="M18.674,29.326c0,0.169-1.888,0.3-4.218,0.3c-2.327,0-4.215-0.131-4.215-0.3
			c0-0.163,1.888-0.295,4.215-0.295C16.787,29.031,18.674,29.163,18.674,29.326z"/>
		<path opacity="0.8115" fill="#3B3938" d="M18.622,29.326c0,0.167-1.864,0.297-4.166,0.297c-2.297,0-4.161-0.13-4.161-0.297
			c0-0.162,1.864-0.292,4.161-0.292C16.757,29.034,18.622,29.164,18.622,29.326z"/>
		<ellipse opacity="0.8154" fill="#3A3837" cx="14.458" cy="29.326" rx="4.11" ry="0.294"/>
		<path opacity="0.8192" fill="#393736" d="M18.514,29.326c0,0.164-1.816,0.291-4.058,0.291c-2.238,0-4.054-0.127-4.054-0.291
			c0-0.158,1.816-0.286,4.054-0.286C16.698,29.04,18.514,29.168,18.514,29.326z"/>
		<path opacity="0.8231" fill="#383635" d="M18.46,29.326c0,0.162-1.792,0.288-4.004,0.288c-2.208,0-4-0.126-4-0.288
			c0-0.157,1.792-0.283,4-0.283C16.668,29.043,18.46,29.169,18.46,29.326z"/>
		<path opacity="0.8269" fill="#373534" d="M18.407,29.326c0,0.161-1.768,0.285-3.951,0.285c-2.179,0-3.947-0.124-3.947-0.285
			c0-0.155,1.768-0.281,3.947-0.281C16.639,29.045,18.407,29.171,18.407,29.326z"/>
		<path opacity="0.8308" fill="#363433" d="M18.353,29.326c0,0.159-1.744,0.282-3.897,0.282c-2.149,0-3.894-0.123-3.894-0.282
			c0-0.154,1.744-0.278,3.894-0.278C16.609,29.048,18.353,29.172,18.353,29.326z"/>
		<path opacity="0.8346" fill="#353332" d="M18.299,29.326c0,0.158-1.72,0.279-3.843,0.279c-2.12,0-3.84-0.121-3.84-0.279
			c0-0.152,1.72-0.275,3.84-0.275C16.58,29.051,18.299,29.174,18.299,29.326z"/>
		<path opacity="0.8385" fill="#343232" d="M18.246,29.326c0,0.156-1.695,0.276-3.79,0.276c-2.09,0-3.786-0.12-3.786-0.276
			c0-0.15,1.696-0.272,3.786-0.272C16.55,29.054,18.246,29.176,18.246,29.326z"/>
		<path opacity="0.8423" fill="#333131" d="M18.193,29.326c0,0.154-1.673,0.273-3.737,0.273c-2.061,0-3.732-0.119-3.732-0.273
			c0-0.149,1.672-0.27,3.732-0.27C16.52,29.057,18.193,29.177,18.193,29.326z"/>
		<path opacity="0.8462" fill="#323030" d="M18.139,29.326c0,0.153-1.648,0.271-3.683,0.271c-2.031,0-3.679-0.117-3.679-0.271
			c0-0.147,1.648-0.267,3.679-0.267C16.491,29.06,18.139,29.179,18.139,29.326z"/>
		<path opacity="0.85" fill="#312F2F" d="M18.085,29.326c0,0.151-1.624,0.269-3.629,0.269c-2.001,0-3.625-0.117-3.625-0.269
			c0-0.146,1.624-0.264,3.625-0.264C16.461,29.063,18.085,29.18,18.085,29.326z"/>
		<path opacity="0.8538" fill="#302E2E" d="M18.032,29.326c0,0.15-1.601,0.266-3.576,0.266c-1.972,0-3.572-0.115-3.572-0.266
			c0-0.145,1.6-0.261,3.572-0.261C16.431,29.065,18.032,29.182,18.032,29.326z"/>
		<path opacity="0.8577" fill="#2F2D2D" d="M17.978,29.326c0,0.148-1.576,0.263-3.522,0.263c-1.942,0-3.518-0.114-3.518-0.263
			c0-0.143,1.576-0.258,3.518-0.258C16.402,29.068,17.978,29.184,17.978,29.326z"/>
		<path opacity="0.8615" fill="#2E2C2C" d="M17.924,29.326c0,0.146-1.552,0.26-3.468,0.26c-1.913,0-3.464-0.113-3.464-0.26
			c0-0.142,1.552-0.255,3.464-0.255C16.373,29.071,17.924,29.185,17.924,29.326z"/>
		<path opacity="0.8654" fill="#2D2B2B" d="M17.871,29.326c0,0.146-1.527,0.257-3.415,0.257c-1.883,0-3.411-0.111-3.411-0.257
			c0-0.14,1.528-0.253,3.411-0.253C16.343,29.073,17.871,29.187,17.871,29.326z"/>
		<path opacity="0.8692" fill="#2C2A2A" d="M17.818,29.326c0,0.144-1.505,0.254-3.362,0.254c-1.854,0-3.357-0.11-3.357-0.254
			c0-0.139,1.504-0.25,3.357-0.25C16.313,29.076,17.818,29.188,17.818,29.326z"/>
		<path opacity="0.8731" fill="#2B2929" d="M17.764,29.326c0,0.143-1.48,0.251-3.308,0.251c-1.824,0-3.304-0.108-3.304-0.251
			c0-0.137,1.48-0.247,3.304-0.247C16.284,29.079,17.764,29.189,17.764,29.326z"/>
		<path opacity="0.8769" fill="#2A2928" d="M17.71,29.326c0,0.141-1.456,0.248-3.254,0.248c-1.794,0-3.25-0.107-3.25-0.248
			c0-0.135,1.456-0.244,3.25-0.244C16.254,29.082,17.71,29.191,17.71,29.326z"/>
		<path opacity="0.8808" fill="#292827" d="M17.657,29.326c0,0.139-1.433,0.245-3.201,0.245c-1.765,0-3.197-0.106-3.197-0.245
			c0-0.134,1.432-0.241,3.197-0.241C16.224,29.085,17.657,29.192,17.657,29.326z"/>
		<path opacity="0.8846" fill="#282726" d="M17.603,29.326c0,0.138-1.408,0.242-3.147,0.242c-1.735,0-3.143-0.104-3.143-0.242
			c0-0.132,1.408-0.238,3.143-0.238C16.195,29.088,17.603,29.194,17.603,29.326z"/>
		<path opacity="0.8885" fill="#272625" d="M17.549,29.326c0,0.136-1.384,0.239-3.093,0.239c-1.706,0-3.089-0.104-3.089-0.239
			c0-0.131,1.384-0.235,3.089-0.235C16.166,29.091,17.549,29.195,17.549,29.326z"/>
		<path opacity="0.8923" fill="#262524" d="M17.496,29.326c0,0.135-1.36,0.237-3.04,0.237c-1.676,0-3.036-0.103-3.036-0.237
			c0-0.129,1.36-0.232,3.036-0.232C16.135,29.094,17.496,29.197,17.496,29.326z"/>
		<path opacity="0.8962" fill="#242423" d="M17.442,29.326c0,0.133-1.336,0.234-2.986,0.234c-1.646,0-2.982-0.102-2.982-0.234
			c0-0.127,1.336-0.229,2.982-0.229C16.106,29.097,17.442,29.199,17.442,29.326z"/>
		<path opacity="0.9" fill="#232322" d="M17.389,29.326c0,0.131-1.313,0.231-2.933,0.231c-1.617,0-2.929-0.101-2.929-0.231
			c0-0.126,1.312-0.227,2.929-0.227C16.077,29.1,17.389,29.2,17.389,29.326z"/>
		<path opacity="0.9038" fill="#222221" d="M17.335,29.326c0,0.13-1.288,0.229-2.879,0.229c-1.587,0-2.875-0.099-2.875-0.229
			c0-0.124,1.288-0.225,2.875-0.225C16.047,29.102,17.335,29.202,17.335,29.326z"/>
		<path opacity="0.9077" fill="#212120" d="M17.282,29.326c0,0.128-1.265,0.226-2.826,0.226c-1.558,0-2.821-0.098-2.821-0.226
			c0-0.123,1.264-0.222,2.821-0.222C16.017,29.104,17.282,29.203,17.282,29.326z"/>
		<path opacity="0.9115" fill="#201F1F" d="M17.228,29.326c0,0.127-1.24,0.223-2.772,0.223c-1.528,0-2.768-0.096-2.768-0.223
			c0-0.121,1.24-0.219,2.768-0.219C15.988,29.107,17.228,29.205,17.228,29.326z"/>
		<path opacity="0.9154" fill="#1F1E1E" d="M17.174,29.325c0,0.126-1.216,0.221-2.718,0.221c-1.498,0-2.714-0.095-2.714-0.221
			c0-0.118,1.216-0.215,2.714-0.215C15.958,29.11,17.174,29.207,17.174,29.325z"/>
		<path opacity="0.9192" fill="#1E1D1D" d="M17.121,29.325c0,0.124-1.192,0.218-2.665,0.218c-1.469,0-2.661-0.094-2.661-0.218
			c0-0.117,1.192-0.212,2.661-0.212C15.928,29.113,17.121,29.208,17.121,29.325z"/>
		<path opacity="0.9231" fill="#1D1C1C" d="M17.067,29.325c0,0.123-1.168,0.215-2.611,0.215c-1.439,0-2.607-0.092-2.607-0.215
			c0-0.115,1.168-0.209,2.607-0.209C15.899,29.116,17.067,29.21,17.067,29.325z"/>
		<path opacity="0.9269" fill="#1C1B1B" d="M17.013,29.325c0,0.121-1.144,0.212-2.557,0.212c-1.41,0-2.554-0.091-2.554-0.212
			c0-0.113,1.144-0.206,2.554-0.206C15.87,29.119,17.013,29.212,17.013,29.325z"/>
		<path opacity="0.9308" fill="#1B1A1A" d="M16.96,29.325c0,0.12-1.121,0.209-2.504,0.209c-1.38,0-2.5-0.089-2.5-0.209
			c0-0.112,1.12-0.203,2.5-0.203C15.839,29.122,16.96,29.213,16.96,29.325z"/>
		<path opacity="0.9346" fill="#1A1919" d="M16.907,29.325c0,0.118-1.097,0.207-2.451,0.207c-1.35,0-2.446-0.089-2.446-0.207
			c0-0.11,1.096-0.2,2.446-0.2C15.81,29.125,16.907,29.215,16.907,29.325z"/>
		<path opacity="0.9385" fill="#181818" d="M16.853,29.325c0,0.116-1.072,0.204-2.397,0.204c-1.321,0-2.393-0.088-2.393-0.204
			c0-0.109,1.072-0.197,2.393-0.197C15.781,29.128,16.853,29.216,16.853,29.325z"/>
		<path opacity="0.9423" fill="#171717" d="M16.799,29.325c0,0.115-1.048,0.201-2.343,0.201c-1.291,0-2.339-0.086-2.339-0.201
			c0-0.107,1.048-0.195,2.339-0.195C15.751,29.13,16.799,29.218,16.799,29.325z"/>
		<path opacity="0.9462" fill="#161616" d="M16.746,29.325c0,0.113-1.024,0.198-2.29,0.198c-1.262,0-2.286-0.085-2.286-0.198
			c0-0.105,1.024-0.192,2.286-0.192C15.721,29.133,16.746,29.22,16.746,29.325z"/>
		<path opacity="0.95" fill="#151414" d="M16.692,29.325c0,0.112-1,0.195-2.236,0.195c-1.232,0-2.232-0.083-2.232-0.195
			c0-0.104,1-0.189,2.232-0.189C15.692,29.136,16.692,29.221,16.692,29.325z"/>
		<path opacity="0.9538" fill="#131313" d="M16.638,29.325c0,0.11-0.976,0.192-2.182,0.192c-1.202,0-2.178-0.082-2.178-0.192
			c0-0.103,0.976-0.187,2.178-0.187C15.663,29.139,16.638,29.223,16.638,29.325z"/>
		<path opacity="0.9577" fill="#121212" d="M16.585,29.325c0,0.109-0.953,0.189-2.129,0.189c-1.173,0-2.125-0.08-2.125-0.189
			c0-0.102,0.952-0.184,2.125-0.184C15.632,29.142,16.585,29.224,16.585,29.325z"/>
		<path opacity="0.9615" fill="#111111" d="M16.532,29.325c0,0.107-0.929,0.187-2.076,0.187c-1.143,0-2.071-0.079-2.071-0.187
			c0-0.1,0.928-0.181,2.071-0.181C15.603,29.145,16.532,29.226,16.532,29.325z"/>
		<path opacity="0.9654" fill="#0F0F0F" d="M16.478,29.325c0,0.105-0.904,0.184-2.022,0.184c-1.113,0-2.018-0.078-2.018-0.184
			c0-0.098,0.904-0.178,2.018-0.178C15.574,29.147,16.478,29.228,16.478,29.325z"/>
		<path opacity="0.9692" fill="#0E0E0E" d="M16.424,29.325c0,0.104-0.881,0.181-1.968,0.181c-1.084,0-1.964-0.076-1.964-0.181
			c0-0.097,0.88-0.175,1.964-0.175C15.543,29.15,16.424,29.229,16.424,29.325z"/>
		<path opacity="0.9731" fill="#0C0C0C" d="M16.371,29.325c0,0.103-0.856,0.178-1.915,0.178c-1.054,0-1.91-0.075-1.91-0.178
			c0-0.095,0.856-0.172,1.91-0.172C15.514,29.153,16.371,29.23,16.371,29.325z"/>
		<path opacity="0.9769" fill="#0B0B0B" d="M16.317,29.325c0,0.102-0.832,0.175-1.861,0.175c-1.025,0-1.857-0.073-1.857-0.175
			c0-0.094,0.832-0.169,1.857-0.169C15.485,29.156,16.317,29.231,16.317,29.325z"/>
		<path opacity="0.9808" fill="#090909" d="M16.263,29.325c0,0.1-0.808,0.173-1.807,0.173c-0.995,0-1.803-0.073-1.803-0.173
			c0-0.092,0.808-0.167,1.803-0.167C15.456,29.158,16.263,29.233,16.263,29.325z"/>
		<path opacity="0.9846" fill="#070807" d="M16.209,29.325c0,0.098-0.784,0.17-1.753,0.17c-0.965,0-1.75-0.072-1.75-0.17
			c0-0.09,0.784-0.164,1.75-0.164C15.425,29.161,16.209,29.235,16.209,29.325z"/>
		<path opacity="0.9885" fill="#060606" d="M16.157,29.325c0,0.097-0.761,0.167-1.701,0.167c-0.936,0-1.696-0.07-1.696-0.167
			c0-0.089,0.76-0.161,1.696-0.161C15.396,29.164,16.157,29.236,16.157,29.325z"/>
		<path opacity="0.9923" fill="#040404" d="M16.103,29.325c0,0.095-0.736,0.164-1.647,0.164c-0.906,0-1.643-0.069-1.643-0.164
			c0-0.087,0.736-0.158,1.643-0.158C15.367,29.167,16.103,29.238,16.103,29.325z"/>
		<path opacity="0.9962" fill="#030303" d="M16.049,29.325c0,0.094-0.713,0.161-1.593,0.161c-0.877,0-1.589-0.067-1.589-0.161
			c0-0.086,0.712-0.155,1.589-0.155C15.336,29.17,16.049,29.239,16.049,29.325z"/>
		<path fill="#010101" d="M15.996,29.325c0,0.092-0.688,0.158-1.54,0.158c-0.847,0-1.535-0.066-1.535-0.158
			c0-0.084,0.688-0.152,1.535-0.152C15.307,29.173,15.996,29.241,15.996,29.325z"/>
	</g>
	
		<linearGradient id="SVGID_1_" gradientUnits="userSpaceOnUse" x1="5.0532" y1="21.21" x2="20.561" y2="9.0336" gradientTransform="matrix(1.0423 0 0 1.0317 0.954 -1.7689)">
		<stop  offset="0" style="stop-color:#969696"/>
		<stop  offset="0.0046" style="stop-color:#979897"/>
		<stop  offset="0.1201" style="stop-color:#B5B5B4"/>
		<stop  offset="0.236" style="stop-color:#CFCECE"/>
		<stop  offset="0.3511" style="stop-color:#E3E2E2"/>
		<stop  offset="0.4651" style="stop-color:#EFEFEF"/>
		<stop  offset="0.5767" style="stop-color:#F4F4F4"/>
		<stop  offset="0.6953" style="stop-color:#EFEFEF"/>
		<stop  offset="0.8336" style="stop-color:#E1E1E1"/>
		<stop  offset="0.9811" style="stop-color:#CCCBCB"/>
		<stop  offset="1" style="stop-color:#C8C8C8"/>
	</linearGradient>
	<ellipse fill="url(#SVGID_1_)" cx="13.855" cy="14.178" rx="10.275" ry="10.173"/>
	
		<radialGradient id="SVGID_2_" cx="16.2769" cy="-518.3486" r="82.216" gradientTransform="matrix(0.1205 0 0 0.1196 12.2266 76.4428)" gradientUnits="userSpaceOnUse">
		<stop  offset="0" style="stop-color:#FFFFFF"/>
		<stop  offset="1" style="stop-color:#E1E1E1"/>
	</radialGradient>
	<path fill="url(#SVGID_2_)" d="M23.369,13.988c0,5.11-4.174,9.253-9.322,9.253c-5.151,0-9.323-4.143-9.323-9.253
		c0-5.105,4.172-9.25,9.323-9.25C19.195,4.738,23.369,8.883,23.369,13.988z"/>
	
		<radialGradient id="SVGID_3_" cx="-35.3037" cy="-562.2036" r="188.184" gradientTransform="matrix(0.116 0 0 0.116 12.828 77.2681)" gradientUnits="userSpaceOnUse">
		<stop  offset="0" style="stop-color:#0E9246"/>
		<stop  offset="0.7397" style="stop-color:#37B551"/>
	</radialGradient>
	<path fill="url(#SVGID_3_)" d="M18.167,2.18c-1.878-2.036-5.086-2.171-7.126-0.294l-8.855,8.142
		c-2.038,1.882-2.176,5.088-0.295,7.126l8.144,8.859c1.88,2.039,5.084,2.172,7.124,0.297l8.857-8.148
		c2.039-1.875,2.173-5.083,0.297-7.125L18.167,2.18z M14.055,23.519c-5.25,0-9.509-4.26-9.509-9.512
		c0-5.249,4.258-9.508,9.509-9.508c5.252,0,9.509,4.259,9.509,9.508C23.564,19.259,19.307,23.519,14.055,23.519z"/>
	<linearGradient id="SVGID_4_" gradientUnits="userSpaceOnUse" x1="-4.3135" y1="12.8389" x2="32.2038" y2="15.3323">
		<stop  offset="0" style="stop-color:#37B551"/>
		<stop  offset="1" style="stop-color:#0E9246"/>
	</linearGradient>
	<path fill="url(#SVGID_4_)" d="M17.945,1.512c-1.744-1.903-4.727-2.026-6.628-0.276l-9.804,9.018
		c-1.899,1.746-2.022,4.729-0.274,6.629l9.015,9.803c1.749,1.898,4.73,2.02,6.632,0.275l9.799-9.016
		c1.9-1.752,2.025-4.732,0.276-6.632L17.945,1.512z M14.055,24.122c-5.589,0-10.119-4.531-10.119-10.115
		c0-5.589,4.53-10.117,10.119-10.117c5.584,0,10.161,4.422,10.161,10.011C24.216,19.487,19.639,24.122,14.055,24.122z"/>
	<g>
		<path fill="#FFFFFF" d="M3.936,13.772c-0.013,1.438,0.274,2.943,0.755,4.025c-0.379-1.053-0.593-2.719-0.582-4.118
			C4.12,12.291,4.4,10.972,4.794,9.926C4.266,11.002,3.949,12.34,3.936,13.772z"/>
	</g>
	<g>
		<path fill="#FFFFFF" d="M0.142,13.639c-0.009,0.909,0.284,1.86,0.768,2.546c-0.384-0.67-0.602-1.719-0.598-2.602
			c0.009-0.878,0.283-1.707,0.673-2.364C0.463,11.895,0.15,12.733,0.142,13.639z"/>
	</g>
	<path fill="#FFFFFF" d="M21.523,20.788c0.276-0.289,0.656-0.805,0.889-1.135c0.63-0.891,1.096-1.93,1.393-2.979
		c0.168-0.594,0.285-1.215,0.356-1.827c0.064-0.58,0.069-1.173,0.023-1.753c-0.038-0.557-0.2-1.606-0.409-2.064
		c0.224,0.552,0.27,1.66,0.27,2.244c0,2.191-0.594,4.311-1.751,6.17c-0.311,0.498-0.662,0.971-1.044,1.416
		c-0.355,0.418-0.871,0.867-1.257,1.256C20.728,21.565,21.037,21.298,21.523,20.788z"/>
	<path opacity="0.49" fill="#FFFFFF" d="M14.613,19.212c3.955,0,7.38-2.789,8.719-6.228c0.021,0.245,0.043,0.879,0.043,1.134
		c0,5.061-4.222,9.123-9.353,9.123c-5.134,0-9.293-4.102-9.293-9.161c0-1.163,0.086-2.194,0.487-3.216
		C5.601,15.575,9.732,19.212,14.613,19.212z"/>
	<g>
		<g>
			<g>
				<g>
					<path d="M17.328,13.448l-1.733,3.016l-1.731-3.02c-2.385,0.729-4.127,3.092-4.164,5.535h11.789
						C21.453,16.536,19.712,14.182,17.328,13.448z"/>
					<circle cx="15.596" cy="10.143" r="2.261"/>
				</g>
				<g>
					<path d="M9.81,13.427c-2.007,0.784-3.433,3.021-3.396,5.648l2.398-0.059c0.136-1.586,0.78-3.018,1.77-4.116L9.81,13.427z"/>
					<path d="M12.138,12.295c0.425-0.013,0.819-0.139,1.156-0.353c-0.408-0.487-0.651-1.112-0.651-1.795
						c0-0.754,0.295-1.437,0.774-1.942c-0.388-0.285-0.874-0.448-1.391-0.435c-1.25,0.032-2.236,1.066-2.203,2.317
						C9.853,11.337,10.892,12.322,12.138,12.295z"/>
				</g>
			</g>
			<g>
				<g>
					<path fill="#FFFFFF" d="M17.224,13.448l-1.68,2.924l-1.677-2.928c-2.312,0.709-4.002,2.996-4.039,5.365h11.429
						C21.224,16.44,19.538,14.157,17.224,13.448z"/>
					<path fill="#FFFFFF" d="M17.74,10.241c0,1.213-0.983,2.196-2.195,2.196c-1.209,0-2.192-0.983-2.192-2.196
						c0-1.209,0.983-2.192,2.192-2.192C16.756,8.049,17.74,9.032,17.74,10.241z"/>
				</g>
				<g>
					<path fill="#FFFFFF" d="M9.939,13.427c-1.949,0.759-3.329,2.932-3.294,5.477l2.326-0.061c0.127-1.535,0.752-2.924,1.712-3.985
						L9.939,13.427z"/>
					<path fill="#FFFFFF" d="M12.194,12.327c0.41-0.011,0.793-0.134,1.117-0.341c-0.395-0.474-0.629-1.079-0.629-1.743
						c0-0.727,0.287-1.39,0.75-1.88c-0.377-0.277-0.843-0.435-1.346-0.424c-1.214,0.032-2.171,1.04-2.139,2.249
						C9.976,11.397,10.985,12.356,12.194,12.327z"/>
				</g>
			</g>
			<g>
				<g>
					<path d="M17.192,13.386l-1.644,2.855l-1.638-2.861c-2.262,0.69-3.911,2.932-3.946,5.246h11.173
						C21.103,16.312,19.452,14.08,17.192,13.386z"/>
					<path d="M17.695,10.25c0,1.185-0.96,2.146-2.146,2.146c-1.183,0-2.14-0.962-2.14-2.146c0-1.182,0.958-2.144,2.14-2.144
						C16.735,8.106,17.695,9.068,17.695,10.25z"/>
				</g>
				<g>
					<path d="M10.068,13.366c-1.906,0.741-3.254,2.863-3.221,5.354l2.274-0.061c0.125-1.5,0.738-2.858,1.675-3.898L10.068,13.366z"
						/>
					<path d="M12.274,12.29c0.403-0.012,0.774-0.132,1.091-0.332c-0.384-0.462-0.615-1.057-0.615-1.705
						c0-0.713,0.28-1.358,0.735-1.838c-0.369-0.269-0.826-0.422-1.317-0.411c-1.186,0.029-2.122,1.013-2.091,2.197
						C10.105,11.385,11.092,12.319,12.274,12.29z"/>
				</g>
			</g>
		</g>
	</g>
</g>
</svg>
