<?xml version="1.0" encoding="utf-8"?>
<!-- Generator: Adobe Illustrator 14.0.0, SVG Export Plug-In . SVG Version: 6.00 Build 43363)  -->
<!DOCTYPE svg PUBLIC "-//W3C//DTD SVG 1.1//EN" "http://www.w3.org/Graphics/SVG/1.1/DTD/svg11.dtd">
<svg version="1.1" id="Layer_1" xmlns="http://www.w3.org/2000/svg" xmlns:xlink="http://www.w3.org/1999/xlink" x="0px" y="0px"
	 width="28.2px" height="30px" viewBox="0 0 28.2 30" enable-background="new 0 0 28.2 30" xml:space="preserve">
<g>
	<g opacity="0.4">
		<ellipse opacity="0.3" fill="#FFFFFF" cx="14.458" cy="29.33" rx="11.292" ry="0.67"/>
		<ellipse opacity="0.3038" fill="#FBFBFB" cx="14.458" cy="29.33" rx="11.238" ry="0.667"/>
		<ellipse opacity="0.3077" fill="#F7F7F7" cx="14.458" cy="29.33" rx="11.184" ry="0.664"/>
		<ellipse opacity="0.3115" fill="#F4F4F3" cx="14.458" cy="29.33" rx="11.131" ry="0.661"/>
		<ellipse opacity="0.3154" fill="#F2F1F0" cx="14.458" cy="29.33" rx="11.078" ry="0.658"/>
		<ellipse opacity="0.3192" fill="#EFEEEE" cx="14.458" cy="29.33" rx="11.024" ry="0.655"/>
		<ellipse opacity="0.3231" fill="#EDECEB" cx="14.458" cy="29.33" rx="10.97" ry="0.653"/>
		<ellipse opacity="0.3269" fill="#EBE9E9" cx="14.458" cy="29.33" rx="10.917" ry="0.65"/>
		<ellipse opacity="0.3308" fill="#E9E7E7" cx="14.458" cy="29.33" rx="10.863" ry="0.647"/>
		<ellipse opacity="0.3346" fill="#E6E5E5" cx="14.458" cy="29.33" rx="10.809" ry="0.645"/>
		<ellipse opacity="0.3385" fill="#E4E3E3" cx="14.458" cy="29.33" rx="10.756" ry="0.642"/>
		<ellipse opacity="0.3423" fill="#E3E1E1" cx="14.458" cy="29.33" rx="10.702" ry="0.639"/>
		<ellipse opacity="0.3462" fill="#E1DFDF" cx="14.458" cy="29.33" rx="10.649" ry="0.636"/>
		<ellipse opacity="0.35" fill="#DFDDDD" cx="14.458" cy="29.33" rx="10.595" ry="0.633"/>
		<ellipse opacity="0.3538" fill="#DDDBDB" cx="14.458" cy="29.33" rx="10.542" ry="0.63"/>
		<ellipse opacity="0.3577" fill="#DBD9D9" cx="14.458" cy="29.33" rx="10.488" ry="0.627"/>
		<ellipse opacity="0.3615" fill="#D9D7D7" cx="14.458" cy="29.33" rx="10.434" ry="0.624"/>
		<ellipse opacity="0.3654" fill="#D7D5D5" cx="14.458" cy="29.33" rx="10.381" ry="0.621"/>
		<ellipse opacity="0.3692" fill="#D5D4D3" cx="14.458" cy="29.33" rx="10.327" ry="0.619"/>
		<ellipse opacity="0.3731" fill="#D4D2D1" cx="14.458" cy="29.33" rx="10.273" ry="0.616"/>
		<ellipse opacity="0.3769" fill="#D2D0D0" cx="14.458" cy="29.33" rx="10.22" ry="0.613"/>
		<ellipse opacity="0.3808" fill="#D0CECE" cx="14.458" cy="29.33" rx="10.166" ry="0.61"/>
		<ellipse opacity="0.3846" fill="#CECCCC" cx="14.458" cy="29.33" rx="10.113" ry="0.607"/>
		<ellipse opacity="0.3885" fill="#CCCACA" cx="14.458" cy="29.33" rx="10.059" ry="0.604"/>
		<ellipse opacity="0.3923" fill="#CBC8C8" cx="14.458" cy="29.33" rx="10.005" ry="0.602"/>
		<ellipse opacity="0.3962" fill="#C9C7C7" cx="14.458" cy="29.33" rx="9.952" ry="0.599"/>
		<ellipse opacity="0.4" fill="#C7C5C5" cx="14.458" cy="29.33" rx="9.898" ry="0.596"/>
		<ellipse opacity="0.4038" fill="#C5C3C3" cx="14.458" cy="29.33" rx="9.845" ry="0.593"/>
		<ellipse opacity="0.4077" fill="#C4C1C1" cx="14.458" cy="29.33" rx="9.791" ry="0.59"/>
		<ellipse opacity="0.4115" fill="#C2C0BF" cx="14.458" cy="29.33" rx="9.738" ry="0.588"/>
		<ellipse opacity="0.4154" fill="#C0BEBE" cx="14.458" cy="29.33" rx="9.684" ry="0.585"/>
		<ellipse opacity="0.4192" fill="#BEBCBC" cx="14.458" cy="29.33" rx="9.63" ry="0.582"/>
		<ellipse opacity="0.4231" fill="#BDBABA" cx="14.458" cy="29.33" rx="9.577" ry="0.579"/>
		<ellipse opacity="0.4269" fill="#BBB9B9" cx="14.458" cy="29.33" rx="9.523" ry="0.576"/>
		<ellipse opacity="0.4308" fill="#B9B7B7" cx="14.458" cy="29.33" rx="9.469" ry="0.573"/>
		<ellipse opacity="0.4346" fill="#B8B5B5" cx="14.458" cy="29.33" rx="9.416" ry="0.57"/>
		<ellipse opacity="0.4385" fill="#B6B4B3" cx="14.458" cy="29.33" rx="9.363" ry="0.567"/>
		<ellipse opacity="0.4423" fill="#B5B2B2" cx="14.458" cy="29.33" rx="9.309" ry="0.564"/>
		<ellipse opacity="0.4462" fill="#B3B0B0" cx="14.458" cy="29.33" rx="9.255" ry="0.562"/>
		<ellipse opacity="0.45" fill="#B1AFAF" cx="14.458" cy="29.33" rx="9.201" ry="0.559"/>
		<ellipse opacity="0.4538" fill="#B0ADAD" cx="14.458" cy="29.33" rx="9.148" ry="0.557"/>
		<ellipse opacity="0.4577" fill="#AEABAB" cx="14.458" cy="29.33" rx="9.094" ry="0.554"/>
		<ellipse opacity="0.4615" fill="#ADAAAA" cx="14.458" cy="29.33" rx="9.041" ry="0.551"/>
		<ellipse opacity="0.4654" fill="#ABA8A8" cx="14.458" cy="29.33" rx="8.987" ry="0.548"/>
		<ellipse opacity="0.4692" fill="#A9A7A6" cx="14.458" cy="29.33" rx="8.934" ry="0.545"/>
		<ellipse opacity="0.4731" fill="#A8A5A5" cx="14.458" cy="29.33" rx="8.88" ry="0.542"/>
		<ellipse opacity="0.4769" fill="#A6A3A3" cx="14.458" cy="29.329" rx="8.826" ry="0.54"/>
		<ellipse opacity="0.4808" fill="#A5A2A2" cx="14.458" cy="29.329" rx="8.773" ry="0.537"/>
		<ellipse opacity="0.4846" fill="#A3A0A0" cx="14.458" cy="29.329" rx="8.719" ry="0.534"/>
		<ellipse opacity="0.4885" fill="#A29F9F" cx="14.458" cy="29.329" rx="8.665" ry="0.531"/>
		<ellipse opacity="0.4923" fill="#A09D9D" cx="14.458" cy="29.329" rx="8.612" ry="0.528"/>
		<ellipse opacity="0.4962" fill="#9F9C9C" cx="14.458" cy="29.329" rx="8.559" ry="0.525"/>
		<ellipse opacity="0.5" fill="#9D9A9A" cx="14.458" cy="29.329" rx="8.505" ry="0.523"/>
		<ellipse opacity="0.5038" fill="#9C9999" cx="14.458" cy="29.329" rx="8.451" ry="0.521"/>
		<ellipse opacity="0.5077" fill="#9A9797" cx="14.458" cy="29.329" rx="8.398" ry="0.518"/>
		<ellipse opacity="0.5115" fill="#999696" cx="14.458" cy="29.329" rx="8.344" ry="0.515"/>
		<ellipse opacity="0.5154" fill="#979494" cx="14.458" cy="29.329" rx="8.29" ry="0.512"/>
		<ellipse opacity="0.5192" fill="#969393" cx="14.458" cy="29.329" rx="8.237" ry="0.509"/>
		<ellipse opacity="0.5231" fill="#949191" cx="14.459" cy="29.329" rx="8.183" ry="0.506"/>
		<ellipse opacity="0.5269" fill="#939090" cx="14.458" cy="29.329" rx="8.13" ry="0.503"/>
		<ellipse opacity="0.5308" fill="#918E8E" cx="14.458" cy="29.329" rx="8.076" ry="0.5"/>
		<ellipse opacity="0.5346" fill="#908D8D" cx="14.458" cy="29.329" rx="8.022" ry="0.497"/>
		<ellipse opacity="0.5385" fill="#8E8B8B" cx="14.458" cy="29.329" rx="7.969" ry="0.494"/>
		<ellipse opacity="0.5423" fill="#8D8A8A" cx="14.458" cy="29.329" rx="7.915" ry="0.492"/>
		<ellipse opacity="0.5462" fill="#8B8888" cx="14.458" cy="29.329" rx="7.862" ry="0.489"/>
		<ellipse opacity="0.55" fill="#8A8787" cx="14.459" cy="29.329" rx="7.808" ry="0.486"/>
		<ellipse opacity="0.5538" fill="#898685" cx="14.459" cy="29.329" rx="7.755" ry="0.483"/>
		<ellipse opacity="0.5577" fill="#878484" cx="14.459" cy="29.329" rx="7.701" ry="0.48"/>
		<ellipse opacity="0.5615" fill="#868383" cx="14.458" cy="29.329" rx="7.647" ry="0.478"/>
		<ellipse opacity="0.5654" fill="#848181" cx="14.458" cy="29.329" rx="7.594" ry="0.475"/>
		<ellipse opacity="0.5692" fill="#838080" cx="14.458" cy="29.329" rx="7.54" ry="0.472"/>
		<ellipse opacity="0.5731" fill="#827F7E" cx="14.458" cy="29.329" rx="7.486" ry="0.469"/>
		<ellipse opacity="0.5769" fill="#807D7D" cx="14.458" cy="29.329" rx="7.433" ry="0.466"/>
		<ellipse opacity="0.5808" fill="#7F7C7C" cx="14.459" cy="29.329" rx="7.38" ry="0.463"/>
		<ellipse opacity="0.5846" fill="#7E7A7A" cx="14.459" cy="29.329" rx="7.326" ry="0.461"/>
		<ellipse opacity="0.5885" fill="#7C7979" cx="14.459" cy="29.329" rx="7.272" ry="0.458"/>
		<ellipse opacity="0.5923" fill="#7B7878" cx="14.459" cy="29.329" rx="7.219" ry="0.455"/>
		<ellipse opacity="0.5962" fill="#7A7676" cx="14.459" cy="29.329" rx="7.165" ry="0.452"/>
		<ellipse opacity="0.6" fill="#787575" cx="14.458" cy="29.329" rx="7.111" ry="0.449"/>
		<ellipse opacity="0.6038" fill="#777474" cx="14.458" cy="29.329" rx="7.058" ry="0.446"/>
		<ellipse opacity="0.6077" fill="#767372" cx="14.459" cy="29.329" rx="7.004" ry="0.443"/>
		<ellipse opacity="0.6115" fill="#747171" cx="14.459" cy="29.329" rx="6.951" ry="0.44"/>
		<ellipse opacity="0.6154" fill="#737070" cx="14.459" cy="29.329" rx="6.897" ry="0.438"/>
		<ellipse opacity="0.6192" fill="#726F6E" cx="14.459" cy="29.329" rx="6.844" ry="0.435"/>
		<ellipse opacity="0.6231" fill="#716D6D" cx="14.459" cy="29.329" rx="6.79" ry="0.432"/>
		<ellipse opacity="0.6269" fill="#6F6C6C" cx="14.459" cy="29.329" rx="6.736" ry="0.429"/>
		<ellipse opacity="0.6308" fill="#6E6B6B" cx="14.459" cy="29.329" rx="6.682" ry="0.427"/>
		<ellipse opacity="0.6346" fill="#6D6A69" cx="14.458" cy="29.329" rx="6.629" ry="0.424"/>
		<ellipse opacity="0.6385" fill="#6C6868" cx="14.459" cy="29.329" rx="6.576" ry="0.421"/>
		<ellipse opacity="0.6423" fill="#6A6767" cx="14.459" cy="29.329" rx="6.522" ry="0.418"/>
		<ellipse opacity="0.6462" fill="#696666" cx="14.459" cy="29.329" rx="6.468" ry="0.415"/>
		<ellipse opacity="0.65" fill="#686565" cx="14.459" cy="29.329" rx="6.415" ry="0.412"/>
		<ellipse opacity="0.6538" fill="#676463" cx="14.459" cy="29.329" rx="6.361" ry="0.409"/>
		<ellipse opacity="0.6577" fill="#656262" cx="14.459" cy="29.329" rx="6.307" ry="0.406"/>
		<ellipse opacity="0.6615" fill="#646161" cx="14.459" cy="29.329" rx="6.254" ry="0.403"/>
		<ellipse opacity="0.6654" fill="#636060" cx="14.459" cy="29.329" rx="6.2" ry="0.4"/>
		<ellipse opacity="0.6692" fill="#625F5F" cx="14.459" cy="29.329" rx="6.147" ry="0.397"/>
		<ellipse opacity="0.6731" fill="#615E5D" cx="14.459" cy="29.329" rx="6.093" ry="0.396"/>
		<ellipse opacity="0.6769" fill="#5F5D5C" cx="14.459" cy="29.329" rx="6.04" ry="0.393"/>
		<ellipse opacity="0.6808" fill="#5E5C5B" cx="14.459" cy="29.329" rx="5.986" ry="0.39"/>
		<ellipse opacity="0.6846" fill="#5D5A5A" cx="14.459" cy="29.329" rx="5.932" ry="0.387"/>
		<ellipse opacity="0.6885" fill="#5C5959" cx="14.459" cy="29.329" rx="5.879" ry="0.384"/>
		<ellipse opacity="0.6923" fill="#5B5858" cx="14.459" cy="29.329" rx="5.825" ry="0.381"/>
		<ellipse opacity="0.6962" fill="#5A5757" cx="14.459" cy="29.329" rx="5.772" ry="0.378"/>
		<ellipse opacity="0.7" fill="#595655" cx="14.459" cy="29.329" rx="5.718" ry="0.375"/>
		<ellipse opacity="0.7038" fill="#585554" cx="14.459" cy="29.329" rx="5.664" ry="0.372"/>
		<ellipse opacity="0.7077" fill="#575453" cx="14.459" cy="29.329" rx="5.611" ry="0.369"/>
		<ellipse opacity="0.7115" fill="#555352" cx="14.459" cy="29.329" rx="5.557" ry="0.366"/>
		<ellipse opacity="0.7154" fill="#545251" cx="14.459" cy="29.329" rx="5.503" ry="0.363"/>
		<ellipse opacity="0.7192" fill="#535150" cx="14.459" cy="29.329" rx="5.45" ry="0.361"/>
		<ellipse opacity="0.7231" fill="#524F4F" cx="14.459" cy="29.329" rx="5.396" ry="0.358"/>
		<ellipse opacity="0.7269" fill="#514E4E" cx="14.459" cy="29.329" rx="5.343" ry="0.355"/>
		<ellipse opacity="0.7308" fill="#504D4D" cx="14.459" cy="29.329" rx="5.289" ry="0.353"/>
		<ellipse opacity="0.7346" fill="#4F4C4C" cx="14.459" cy="29.329" rx="5.236" ry="0.35"/>
		<ellipse opacity="0.7385" fill="#4E4B4B" cx="14.459" cy="29.329" rx="5.182" ry="0.347"/>
		<ellipse opacity="0.7423" fill="#4D4A4A" cx="14.459" cy="29.329" rx="5.128" ry="0.344"/>
		<ellipse opacity="0.7462" fill="#4C4949" cx="14.459" cy="29.329" rx="5.075" ry="0.341"/>
		<ellipse opacity="0.75" fill="#4B4848" cx="14.459" cy="29.329" rx="5.021" ry="0.338"/>
		<ellipse opacity="0.7538" fill="#4A4747" cx="14.459" cy="29.329" rx="4.968" ry="0.335"/>
		<ellipse opacity="0.7577" fill="#494646" cx="14.459" cy="29.329" rx="4.914" ry="0.332"/>
		<ellipse opacity="0.7615" fill="#484545" cx="14.459" cy="29.329" rx="4.861" ry="0.33"/>
		<ellipse opacity="0.7654" fill="#474444" cx="14.459" cy="29.329" rx="4.807" ry="0.327"/>
		<ellipse opacity="0.7692" fill="#464343" cx="14.459" cy="29.329" rx="4.753" ry="0.324"/>
		<ellipse opacity="0.7731" fill="#454242" cx="14.459" cy="29.329" rx="4.699" ry="0.321"/>
		<ellipse opacity="0.7769" fill="#444141" cx="14.459" cy="29.329" rx="4.646" ry="0.318"/>
		<ellipse opacity="0.7808" fill="#434040" cx="14.459" cy="29.329" rx="4.592" ry="0.315"/>
		<ellipse opacity="0.7846" fill="#423F3F" cx="14.459" cy="29.329" rx="4.539" ry="0.313"/>
		<ellipse opacity="0.7885" fill="#413E3E" cx="14.459" cy="29.329" rx="4.485" ry="0.31"/>
		<ellipse opacity="0.7923" fill="#403D3D" cx="14.459" cy="29.329" rx="4.432" ry="0.307"/>
		<ellipse opacity="0.7962" fill="#3F3C3C" cx="14.459" cy="29.329" rx="4.378" ry="0.304"/>
		<ellipse opacity="0.8" fill="#3E3C3B" cx="14.459" cy="29.329" rx="4.324" ry="0.301"/>
		<ellipse opacity="0.8038" fill="#3D3B3A" cx="14.459" cy="29.329" rx="4.271" ry="0.299"/>
		<ellipse opacity="0.8077" fill="#3C3A39" cx="14.459" cy="29.329" rx="4.217" ry="0.296"/>
		<ellipse opacity="0.8115" fill="#3B3938" cx="14.46" cy="29.329" rx="4.164" ry="0.293"/>
		<ellipse opacity="0.8154" fill="#3A3837" cx="14.459" cy="29.329" rx="4.11" ry="0.29"/>
		<ellipse opacity="0.8192" fill="#393736" cx="14.459" cy="29.329" rx="4.057" ry="0.287"/>
		<ellipse opacity="0.8231" fill="#383635" cx="14.459" cy="29.329" rx="4.003" ry="0.284"/>
		<ellipse opacity="0.8269" fill="#373534" cx="14.459" cy="29.328" rx="3.949" ry="0.282"/>
		<ellipse opacity="0.8308" fill="#363433" cx="14.459" cy="29.328" rx="3.896" ry="0.279"/>
		<ellipse opacity="0.8346" fill="#353332" cx="14.459" cy="29.328" rx="3.842" ry="0.276"/>
		<ellipse opacity="0.8385" fill="#343232" cx="14.459" cy="29.328" rx="3.788" ry="0.273"/>
		<ellipse opacity="0.8423" fill="#333131" cx="14.46" cy="29.328" rx="3.735" ry="0.271"/>
		<ellipse opacity="0.8462" fill="#323030" cx="14.46" cy="29.328" rx="3.681" ry="0.268"/>
		<ellipse opacity="0.85" fill="#312F2F" cx="14.459" cy="29.328" rx="3.628" ry="0.266"/>
		<ellipse opacity="0.8538" fill="#302E2E" cx="14.459" cy="29.328" rx="3.574" ry="0.263"/>
		<ellipse opacity="0.8577" fill="#2F2D2D" cx="14.459" cy="29.328" rx="3.521" ry="0.26"/>
		<ellipse opacity="0.8615" fill="#2E2C2C" cx="14.459" cy="29.328" rx="3.467" ry="0.257"/>
		<ellipse opacity="0.8654" fill="#2D2B2B" cx="14.459" cy="29.328" rx="3.413" ry="0.254"/>
		<ellipse opacity="0.8692" fill="#2C2A2A" cx="14.46" cy="29.328" rx="3.36" ry="0.251"/>
		<ellipse opacity="0.8731" fill="#2B2929" cx="14.46" cy="29.328" rx="3.306" ry="0.248"/>
		<ellipse opacity="0.8769" fill="#2A2928" cx="14.46" cy="29.328" rx="3.253" ry="0.245"/>
		<ellipse opacity="0.8808" fill="#292827" cx="14.46" cy="29.328" rx="3.199" ry="0.242"/>
		<ellipse opacity="0.8846" fill="#282726" cx="14.459" cy="29.328" rx="3.146" ry="0.239"/>
		<ellipse opacity="0.8885" fill="#272625" cx="14.459" cy="29.328" rx="3.092" ry="0.236"/>
		<ellipse opacity="0.8923" fill="#262524" cx="14.459" cy="29.328" rx="3.038" ry="0.234"/>
		<ellipse opacity="0.8962" fill="#242423" cx="14.459" cy="29.328" rx="2.984" ry="0.231"/>
		<ellipse opacity="0.9" fill="#232322" cx="14.46" cy="29.328" rx="2.931" ry="0.229"/>
		<ellipse opacity="0.9038" fill="#222221" cx="14.46" cy="29.328" rx="2.878" ry="0.226"/>
		<ellipse opacity="0.9077" fill="#212120" cx="14.46" cy="29.328" rx="2.824" ry="0.223"/>
		<ellipse opacity="0.9115" fill="#201F1F" cx="14.46" cy="29.328" rx="2.77" ry="0.22"/>
		<ellipse opacity="0.9154" fill="#1F1E1E" cx="14.46" cy="29.328" rx="2.717" ry="0.217"/>
		<ellipse opacity="0.9192" fill="#1E1D1D" cx="14.46" cy="29.328" rx="2.663" ry="0.214"/>
		<ellipse opacity="0.9231" fill="#1D1C1C" cx="14.459" cy="29.328" rx="2.609" ry="0.211"/>
		<ellipse opacity="0.9269" fill="#1C1B1B" cx="14.459" cy="29.328" rx="2.556" ry="0.208"/>
		<ellipse opacity="0.9308" fill="#1B1A1A" cx="14.46" cy="29.328" rx="2.502" ry="0.205"/>
		<ellipse opacity="0.9346" fill="#1A1919" cx="14.46" cy="29.328" rx="2.449" ry="0.203"/>
		<ellipse opacity="0.9385" fill="#181818" cx="14.46" cy="29.328" rx="2.395" ry="0.2"/>
		<ellipse opacity="0.9423" fill="#171717" cx="14.46" cy="29.328" rx="2.342" ry="0.197"/>
		<ellipse opacity="0.9462" fill="#161616" cx="14.46" cy="29.328" rx="2.288" ry="0.194"/>
		<ellipse opacity="0.95" fill="#151414" cx="14.46" cy="29.328" rx="2.234" ry="0.191"/>
		<ellipse opacity="0.9538" fill="#131313" cx="14.46" cy="29.328" rx="2.18" ry="0.188"/>
		<ellipse opacity="0.9577" fill="#121212" cx="14.46" cy="29.328" rx="2.127" ry="0.186"/>
		<ellipse opacity="0.9615" fill="#111111" cx="14.46" cy="29.328" rx="2.074" ry="0.183"/>
		<ellipse opacity="0.9654" fill="#0F0F0F" cx="14.46" cy="29.328" rx="2.02" ry="0.18"/>
		<ellipse opacity="0.9692" fill="#0E0E0E" cx="14.46" cy="29.328" rx="1.966" ry="0.177"/>
		<ellipse opacity="0.9731" fill="#0C0C0C" cx="14.46" cy="29.328" rx="1.913" ry="0.174"/>
		<ellipse opacity="0.9769" fill="#0B0B0B" cx="14.46" cy="29.328" rx="1.859" ry="0.171"/>
		<ellipse opacity="0.9808" fill="#090909" cx="14.46" cy="29.328" rx="1.805" ry="0.169"/>
		<ellipse opacity="0.9846" fill="#070807" cx="14.46" cy="29.328" rx="1.752" ry="0.166"/>
		<ellipse opacity="0.9885" fill="#060606" cx="14.46" cy="29.328" rx="1.698" ry="0.163"/>
		<ellipse opacity="0.9923" fill="#040404" cx="14.46" cy="29.328" rx="1.645" ry="0.16"/>
		<ellipse opacity="0.9962" fill="#030303" cx="14.46" cy="29.328" rx="1.591" ry="0.157"/>
		<ellipse fill="#010101" cx="14.46" cy="29.328" rx="1.538" ry="0.154"/>
	</g>
	
		<linearGradient id="SVGID_1_" gradientUnits="userSpaceOnUse" x1="5.0518" y1="21.21" x2="20.5617" y2="9.0319" gradientTransform="matrix(1.0423 0 0 1.0317 0.954 -1.7689)">
		<stop  offset="0" style="stop-color:#969696"/>
		<stop  offset="0.0046" style="stop-color:#979897"/>
		<stop  offset="0.1201" style="stop-color:#B5B5B4"/>
		<stop  offset="0.236" style="stop-color:#CFCECE"/>
		<stop  offset="0.3511" style="stop-color:#E3E2E2"/>
		<stop  offset="0.4651" style="stop-color:#EFEFEF"/>
		<stop  offset="0.5767" style="stop-color:#F4F4F4"/>
		<stop  offset="0.6953" style="stop-color:#EFEFEF"/>
		<stop  offset="0.8336" style="stop-color:#E1E1E1"/>
		<stop  offset="0.9811" style="stop-color:#CCCBCB"/>
		<stop  offset="1" style="stop-color:#C8C8C8"/>
	</linearGradient>
	<ellipse fill="url(#SVGID_1_)" cx="13.856" cy="14.178" rx="10.277" ry="10.171"/>
	
		<radialGradient id="SVGID_2_" cx="16.2808" cy="-518.3442" r="82.2156" gradientTransform="matrix(0.1205 0 0 0.1196 12.2266 76.4428)" gradientUnits="userSpaceOnUse">
		<stop  offset="0" style="stop-color:#FFFFFF"/>
		<stop  offset="1" style="stop-color:#E1E1E1"/>
	</radialGradient>
	<path fill="url(#SVGID_2_)" d="M23.369,13.989c0,5.111-4.172,9.253-9.323,9.253c-5.15,0-9.322-4.143-9.322-9.253
		c0-5.107,4.171-9.25,9.322-9.25C19.197,4.738,23.369,8.882,23.369,13.989z"/>
	
		<radialGradient id="SVGID_3_" cx="-35.3101" cy="-562.2021" r="188.2173" gradientTransform="matrix(0.116 0 0 0.116 12.828 77.2681)" gradientUnits="userSpaceOnUse">
		<stop  offset="0" style="stop-color:#0E9246"/>
		<stop  offset="0.7397" style="stop-color:#37B551"/>
	</radialGradient>
	<path fill="url(#SVGID_3_)" d="M18.169,2.18c-1.883-2.037-5.087-2.172-7.127-0.295l-8.859,8.145
		c-2.039,1.878-2.175,5.086-0.296,7.127l8.146,8.857c1.879,2.039,5.084,2.174,7.127,0.295l8.857-8.146
		c2.041-1.877,2.176-5.082,0.297-7.124L18.169,2.18z M14.053,23.519c-5.25,0-9.509-4.259-9.509-9.511
		c0-5.251,4.26-9.509,9.509-9.509c5.255,0,9.511,4.258,9.511,9.509C23.564,19.26,19.308,23.519,14.053,23.519z"/>
	<linearGradient id="SVGID_4_" gradientUnits="userSpaceOnUse" x1="-4.3145" y1="12.8398" x2="32.2066" y2="15.3336">
		<stop  offset="0" style="stop-color:#37B551"/>
		<stop  offset="1" style="stop-color:#0E9246"/>
	</linearGradient>
	<path fill="url(#SVGID_4_)" d="M17.947,1.511c-1.75-1.9-4.731-2.024-6.632-0.277L1.511,10.25c-1.898,1.75-2.022,4.733-0.275,6.633
		l9.016,9.801c1.749,1.9,4.734,2.022,6.632,0.277l9.801-9.018c1.9-1.749,2.027-4.731,0.279-6.629L17.947,1.511z M14.053,24.123
		c-5.586,0-10.115-4.531-10.115-10.116c0-5.589,4.529-10.117,10.115-10.117c5.589,0,10.163,4.421,10.163,10.008
		C24.216,19.486,19.642,24.123,14.053,24.123z"/>
	<g>
		<path fill="#FFFFFF" d="M3.935,13.773c-0.014,1.438,0.274,2.941,0.754,4.028c-0.38-1.055-0.595-2.722-0.583-4.12
			c0.011-1.391,0.291-2.707,0.686-3.753C4.264,11.004,3.947,12.338,3.935,13.773z"/>
	</g>
	<g>
		<path fill="#FFFFFF" d="M0.139,13.64c-0.007,0.908,0.284,1.857,0.769,2.543c-0.384-0.667-0.603-1.719-0.598-2.601
			c0.008-0.878,0.284-1.707,0.674-2.365C0.46,11.894,0.148,12.736,0.139,13.64z"/>
	</g>
	<path fill="#FFFFFF" d="M21.525,20.787c0.275-0.288,0.656-0.804,0.889-1.135c0.629-0.889,1.096-1.931,1.393-2.977
		c0.17-0.594,0.287-1.215,0.355-1.828c0.064-0.581,0.072-1.174,0.023-1.755c-0.039-0.557-0.199-1.604-0.408-2.063
		c0.225,0.55,0.27,1.661,0.27,2.246c0,2.19-0.594,4.31-1.752,6.167c-0.309,0.499-0.662,0.971-1.043,1.417
		c-0.355,0.417-0.871,0.866-1.258,1.256C20.73,21.564,21.037,21.299,21.525,20.787z"/>
	<g>
		<g>
			<g>
				<g>
					<path fill="#010101" d="M11.746,15.773c0.124-0.002,0.224,0.242,0.234,0.547c0.002,0.305-0.095,0.553-0.221,0.553
						c-0.12,0.002-0.224-0.242-0.226-0.547C11.527,16.022,11.623,15.775,11.746,15.773z"/>
				</g>
				<path fill-rule="evenodd" clip-rule="evenodd" fill="#010101" d="M15.3,18.693c0.346-0.498,0.75-0.965,1.111-1.41
					c0.654-0.803,1.412-1.529,1.949-2.42c0.244-0.407,0.434-0.843,0.525-1.308c0.275-1.396-1.117-3.398-2.729-2.779
					c-0.334,0.128-0.615,0.36-0.857,0.614c-0.117,0.123-0.815,0.926-0.762,1.074c-1.078-2.911-4.268-2.304-4.663,0.179
					c-0.185,1.178,0.112,2.06,0.655,2.851c-1.24-1.006-2.229-2.125-1.955-3.867c0.509-3.186,4.591-4.057,5.984-0.313
					c-0.167-0.448,0.986-1.409,1.279-1.64c1.814-1.44,4.842,0.287,4.588,2.917c-0.129,1.316-0.711,2.187-2.002,3.363
					c-0.541,0.493-1.02,1.047-1.527,1.572c-0.92,0.951-1.729,1.91-2.413,3.094C14.565,19.92,14.893,19.283,15.3,18.693z"/>
				<polygon fill="#010101" points="14.334,15.348 12.445,15.348 12.445,13.428 10.576,13.428 10.576,15.348 8.687,15.348 
					8.687,17.24 10.576,17.24 10.576,19.163 12.445,19.163 12.445,17.24 14.334,17.24 				"/>
			</g>
		</g>
		<g>
			<g>
				<g>
					
						<ellipse transform="matrix(-0.0127 -0.9999 0.9999 -0.0127 -4.4182 28.2108)" fill="#FFFFFF" cx="11.719" cy="16.287" rx="0.558" ry="0.226"/>
				</g>
				<path fill-rule="evenodd" clip-rule="evenodd" fill="#FFFFFF" d="M15.312,18.689c0.348-0.507,0.758-0.98,1.123-1.432
					c0.662-0.814,1.434-1.547,1.977-2.45c0.248-0.413,0.441-0.854,0.533-1.326c0.277-1.413-1.133-3.444-2.766-2.816
					c-0.34,0.131-0.625,0.366-0.869,0.624c-0.119,0.125-0.825,0.937-0.771,1.086c-1.092-2.947-4.323-2.334-4.722,0.183
					c-0.191,1.192,0.112,2.086,0.664,2.889c-1.256-1.021-2.263-2.152-1.98-3.919c0.516-3.227,4.651-4.109,6.06-0.316
					c-0.167-0.455,1.002-1.426,1.297-1.663c1.84-1.458,4.906,0.292,4.648,2.956c-0.127,1.335-0.721,2.217-2.029,3.408
					c-0.549,0.501-1.033,1.062-1.547,1.593c-0.932,0.963-1.75,1.936-2.444,3.137C14.565,19.931,14.896,19.286,15.312,18.689z"/>
				<polygon fill="#FFFFFF" points="14.332,15.299 12.418,15.299 12.418,13.354 10.525,13.354 10.525,15.299 8.609,15.299 
					8.609,17.217 10.525,17.217 10.525,19.163 12.418,19.163 12.418,17.217 14.332,17.217 				"/>
			</g>
		</g>
		<g>
			<g>
				<g>
					<path fill="#010101" d="M11.667,15.745c0.125-0.001,0.232,0.251,0.238,0.563c0.002,0.314-0.097,0.568-0.225,0.57
						c-0.124,0-0.231-0.251-0.236-0.564C11.438,16.001,11.537,15.748,11.667,15.745z"/>
				</g>
				<path fill-rule="evenodd" clip-rule="evenodd" fill="#010101" d="M15.326,18.754c0.355-0.515,0.77-0.995,1.143-1.455
					c0.672-0.826,1.455-1.57,2.006-2.489c0.254-0.42,0.445-0.868,0.545-1.347c0.283-1.438-1.152-3.499-2.813-2.862
					c-0.346,0.133-0.633,0.373-0.881,0.634c-0.123,0.126-0.841,0.951-0.787,1.103c-1.111-2.994-4.394-2.372-4.798,0.185
					c-0.193,1.212,0.113,2.12,0.675,2.937c-1.276-1.038-2.3-2.189-2.013-3.984c0.524-3.279,4.728-4.176,6.16-0.321
					c-0.172-0.461,1.017-1.451,1.317-1.689c1.867-1.481,4.984,0.296,4.721,3.004c-0.131,1.354-0.73,2.251-2.061,3.463
					c-0.557,0.507-1.049,1.078-1.574,1.619c-0.945,0.979-1.777,1.967-2.481,3.186C14.568,20.016,14.902,19.359,15.326,18.754z"/>
				<polygon fill="#010101" points="14.33,15.309 12.384,15.309 12.384,13.332 10.461,13.332 10.461,15.309 8.515,15.309 
					8.515,17.256 10.461,17.256 10.461,19.235 12.384,19.235 12.384,17.256 14.33,17.256 				"/>
			</g>
		</g>
	</g>
	<path opacity="0.49" fill="#FFFFFF" d="M14.611,19.213c3.957,0,7.381-2.793,8.725-6.229c0.021,0.246,0.043,0.883,0.043,1.135
		c0,5.059-4.223,9.124-9.356,9.124c-5.134,0-9.294-4.104-9.294-9.164c0-1.162,0.088-2.191,0.489-3.214
		C5.6,15.575,9.733,19.213,14.611,19.213z"/>
</g>
</svg>
