<?xml version="1.0" encoding="utf-8"?>
<!-- Generator: Adobe Illustrator 14.0.0, SVG Export Plug-In . SVG Version: 6.00 Build 43363)  -->
<!DOCTYPE svg PUBLIC "-//W3C//DTD SVG 1.1//EN" "http://www.w3.org/Graphics/SVG/1.1/DTD/svg11.dtd">
<svg version="1.1" id="Layer_1" xmlns="http://www.w3.org/2000/svg" xmlns:xlink="http://www.w3.org/1999/xlink" x="0px" y="0px"
	 width="28.2px" height="30px" viewBox="0 0 28.2 30" enable-background="new 0 0 28.2 30" xml:space="preserve">
<g>
	<g opacity="0.4">
		<ellipse opacity="0.3" fill="#FFFFFF" cx="14.458" cy="29.33" rx="11.293" ry="0.67"/>
		<ellipse opacity="0.3038" fill="#FBFBFB" cx="14.458" cy="29.33" rx="11.239" ry="0.667"/>
		<ellipse opacity="0.3077" fill="#F7F7F7" cx="14.458" cy="29.33" rx="11.186" ry="0.664"/>
		<ellipse opacity="0.3115" fill="#F4F4F3" cx="14.457" cy="29.33" rx="11.132" ry="0.661"/>
		<ellipse opacity="0.3154" fill="#F2F1F0" cx="14.458" cy="29.33" rx="11.079" ry="0.658"/>
		<ellipse opacity="0.3192" fill="#EFEEEE" cx="14.458" cy="29.33" rx="11.025" ry="0.655"/>
		<ellipse opacity="0.3231" fill="#EDECEB" cx="14.458" cy="29.33" rx="10.971" ry="0.653"/>
		<ellipse opacity="0.3269" fill="#EBE9E9" cx="14.458" cy="29.33" rx="10.918" ry="0.65"/>
		<ellipse opacity="0.3308" fill="#E9E7E7" cx="14.458" cy="29.33" rx="10.864" ry="0.647"/>
		<ellipse opacity="0.3346" fill="#E6E5E5" cx="14.458" cy="29.33" rx="10.811" ry="0.645"/>
		<ellipse opacity="0.3385" fill="#E4E3E3" cx="14.458" cy="29.33" rx="10.757" ry="0.642"/>
		<ellipse opacity="0.3423" fill="#E3E1E1" cx="14.458" cy="29.33" rx="10.703" ry="0.639"/>
		<ellipse opacity="0.3462" fill="#E1DFDF" cx="14.458" cy="29.33" rx="10.65" ry="0.636"/>
		<ellipse opacity="0.35" fill="#DFDDDD" cx="14.458" cy="29.33" rx="10.596" ry="0.633"/>
		<ellipse opacity="0.3538" fill="#DDDBDB" cx="14.458" cy="29.33" rx="10.543" ry="0.63"/>
		<ellipse opacity="0.3577" fill="#DBD9D9" cx="14.458" cy="29.33" rx="10.489" ry="0.627"/>
		<ellipse opacity="0.3615" fill="#D9D7D7" cx="14.458" cy="29.33" rx="10.436" ry="0.624"/>
		<ellipse opacity="0.3654" fill="#D7D5D5" cx="14.458" cy="29.33" rx="10.382" ry="0.621"/>
		<ellipse opacity="0.3692" fill="#D5D4D3" cx="14.458" cy="29.33" rx="10.328" ry="0.619"/>
		<ellipse opacity="0.3731" fill="#D4D2D1" cx="14.458" cy="29.33" rx="10.274" ry="0.616"/>
		<ellipse opacity="0.3769" fill="#D2D0D0" cx="14.458" cy="29.33" rx="10.221" ry="0.613"/>
		<ellipse opacity="0.3808" fill="#D0CECE" cx="14.458" cy="29.33" rx="10.168" ry="0.61"/>
		<ellipse opacity="0.3846" fill="#CECCCC" cx="14.458" cy="29.33" rx="10.114" ry="0.607"/>
		<ellipse opacity="0.3885" fill="#CCCACA" cx="14.458" cy="29.33" rx="10.06" ry="0.604"/>
		<ellipse opacity="0.3923" fill="#CBC8C8" cx="14.458" cy="29.33" rx="10.007" ry="0.602"/>
		<ellipse opacity="0.3962" fill="#C9C7C7" cx="14.458" cy="29.33" rx="9.953" ry="0.599"/>
		<ellipse opacity="0.4" fill="#C7C5C5" cx="14.458" cy="29.33" rx="9.899" ry="0.596"/>
		<ellipse opacity="0.4038" fill="#C5C3C3" cx="14.458" cy="29.33" rx="9.846" ry="0.593"/>
		<ellipse opacity="0.4077" fill="#C4C1C1" cx="14.458" cy="29.33" rx="9.792" ry="0.59"/>
		<ellipse opacity="0.4115" fill="#C2C0BF" cx="14.458" cy="29.33" rx="9.739" ry="0.588"/>
		<ellipse opacity="0.4154" fill="#C0BEBE" cx="14.458" cy="29.33" rx="9.685" ry="0.585"/>
		<ellipse opacity="0.4192" fill="#BEBCBC" cx="14.458" cy="29.33" rx="9.632" ry="0.582"/>
		<ellipse opacity="0.4231" fill="#BDBABA" cx="14.458" cy="29.33" rx="9.578" ry="0.579"/>
		<ellipse opacity="0.4269" fill="#BBB9B9" cx="14.458" cy="29.33" rx="9.524" ry="0.576"/>
		<ellipse opacity="0.4308" fill="#B9B7B7" cx="14.458" cy="29.33" rx="9.471" ry="0.573"/>
		<ellipse opacity="0.4346" fill="#B8B5B5" cx="14.458" cy="29.33" rx="9.417" ry="0.57"/>
		<ellipse opacity="0.4385" fill="#B6B4B3" cx="14.458" cy="29.33" rx="9.364" ry="0.567"/>
		<ellipse opacity="0.4423" fill="#B5B2B2" cx="14.458" cy="29.33" rx="9.31" ry="0.564"/>
		<ellipse opacity="0.4462" fill="#B3B0B0" cx="14.458" cy="29.33" rx="9.257" ry="0.562"/>
		<ellipse opacity="0.45" fill="#B1AFAF" cx="14.458" cy="29.33" rx="9.203" ry="0.559"/>
		<ellipse opacity="0.4538" fill="#B0ADAD" cx="14.458" cy="29.33" rx="9.149" ry="0.557"/>
		<ellipse opacity="0.4577" fill="#AEABAB" cx="14.458" cy="29.33" rx="9.095" ry="0.554"/>
		<ellipse opacity="0.4615" fill="#ADAAAA" cx="14.458" cy="29.33" rx="9.042" ry="0.551"/>
		<ellipse opacity="0.4654" fill="#ABA8A8" cx="14.458" cy="29.33" rx="8.989" ry="0.548"/>
		<ellipse opacity="0.4692" fill="#A9A7A6" cx="14.458" cy="29.33" rx="8.935" ry="0.545"/>
		<ellipse opacity="0.4731" fill="#A8A5A5" cx="14.458" cy="29.33" rx="8.881" ry="0.542"/>
		<ellipse opacity="0.4769" fill="#A6A3A3" cx="14.458" cy="29.329" rx="8.828" ry="0.54"/>
		<ellipse opacity="0.4808" fill="#A5A2A2" cx="14.458" cy="29.329" rx="8.774" ry="0.537"/>
		<ellipse opacity="0.4846" fill="#A3A0A0" cx="14.458" cy="29.329" rx="8.72" ry="0.534"/>
		<ellipse opacity="0.4885" fill="#A29F9F" cx="14.458" cy="29.329" rx="8.667" ry="0.531"/>
		<ellipse opacity="0.4923" fill="#A09D9D" cx="14.458" cy="29.329" rx="8.614" ry="0.528"/>
		<ellipse opacity="0.4962" fill="#9F9C9C" cx="14.458" cy="29.329" rx="8.56" ry="0.525"/>
		<ellipse opacity="0.5" fill="#9D9A9A" cx="14.458" cy="29.329" rx="8.506" ry="0.523"/>
		<ellipse opacity="0.5038" fill="#9C9999" cx="14.458" cy="29.329" rx="8.453" ry="0.521"/>
		<ellipse opacity="0.5077" fill="#9A9797" cx="14.458" cy="29.329" rx="8.399" ry="0.518"/>
		<ellipse opacity="0.5115" fill="#999696" cx="14.458" cy="29.329" rx="8.345" ry="0.515"/>
		<ellipse opacity="0.5154" fill="#979494" cx="14.458" cy="29.329" rx="8.292" ry="0.512"/>
		<ellipse opacity="0.5192" fill="#969393" cx="14.458" cy="29.329" rx="8.238" ry="0.509"/>
		<ellipse opacity="0.5231" fill="#949191" cx="14.458" cy="29.329" rx="8.185" ry="0.506"/>
		<ellipse opacity="0.5269" fill="#939090" cx="14.458" cy="29.329" rx="8.131" ry="0.503"/>
		<ellipse opacity="0.5308" fill="#918E8E" cx="14.458" cy="29.329" rx="8.078" ry="0.5"/>
		<ellipse opacity="0.5346" fill="#908D8D" cx="14.458" cy="29.329" rx="8.024" ry="0.497"/>
		<ellipse opacity="0.5385" fill="#8E8B8B" cx="14.458" cy="29.329" rx="7.97" ry="0.494"/>
		<ellipse opacity="0.5423" fill="#8D8A8A" cx="14.458" cy="29.329" rx="7.917" ry="0.492"/>
		<ellipse opacity="0.5462" fill="#8B8888" cx="14.458" cy="29.329" rx="7.863" ry="0.489"/>
		<ellipse opacity="0.55" fill="#8A8787" cx="14.458" cy="29.329" rx="7.81" ry="0.486"/>
		<ellipse opacity="0.5538" fill="#898685" cx="14.458" cy="29.329" rx="7.756" ry="0.483"/>
		<ellipse opacity="0.5577" fill="#878484" cx="14.458" cy="29.329" rx="7.702" ry="0.48"/>
		<ellipse opacity="0.5615" fill="#868383" cx="14.458" cy="29.329" rx="7.649" ry="0.478"/>
		<ellipse opacity="0.5654" fill="#848181" cx="14.458" cy="29.329" rx="7.595" ry="0.475"/>
		<ellipse opacity="0.5692" fill="#838080" cx="14.458" cy="29.329" rx="7.542" ry="0.472"/>
		<ellipse opacity="0.5731" fill="#827F7E" cx="14.458" cy="29.329" rx="7.488" ry="0.469"/>
		<ellipse opacity="0.5769" fill="#807D7D" cx="14.458" cy="29.329" rx="7.434" ry="0.466"/>
		<ellipse opacity="0.5808" fill="#7F7C7C" cx="14.458" cy="29.329" rx="7.381" ry="0.463"/>
		<ellipse opacity="0.5846" fill="#7E7A7A" cx="14.458" cy="29.329" rx="7.327" ry="0.461"/>
		<ellipse opacity="0.5885" fill="#7C7979" cx="14.458" cy="29.329" rx="7.274" ry="0.458"/>
		<ellipse opacity="0.5923" fill="#7B7878" cx="14.458" cy="29.329" rx="7.22" ry="0.455"/>
		<ellipse opacity="0.5962" fill="#7A7676" cx="14.458" cy="29.329" rx="7.167" ry="0.452"/>
		<ellipse opacity="0.6" fill="#787575" cx="14.458" cy="29.329" rx="7.113" ry="0.449"/>
		<ellipse opacity="0.6038" fill="#777474" cx="14.458" cy="29.329" rx="7.059" ry="0.446"/>
		<ellipse opacity="0.6077" fill="#767372" cx="14.458" cy="29.329" rx="7.006" ry="0.443"/>
		<ellipse opacity="0.6115" fill="#747171" cx="14.458" cy="29.329" rx="6.952" ry="0.44"/>
		<ellipse opacity="0.6154" fill="#737070" cx="14.458" cy="29.329" rx="6.899" ry="0.438"/>
		<ellipse opacity="0.6192" fill="#726F6E" cx="14.458" cy="29.329" rx="6.845" ry="0.435"/>
		<ellipse opacity="0.6231" fill="#716D6D" cx="14.458" cy="29.329" rx="6.791" ry="0.432"/>
		<ellipse opacity="0.6269" fill="#6F6C6C" cx="14.458" cy="29.329" rx="6.738" ry="0.429"/>
		<ellipse opacity="0.6308" fill="#6E6B6B" cx="14.458" cy="29.329" rx="6.684" ry="0.427"/>
		<ellipse opacity="0.6346" fill="#6D6A69" cx="14.458" cy="29.329" rx="6.63" ry="0.424"/>
		<ellipse opacity="0.6385" fill="#6C6868" cx="14.458" cy="29.329" rx="6.577" ry="0.421"/>
		<ellipse opacity="0.6423" fill="#6A6767" cx="14.458" cy="29.329" rx="6.523" ry="0.418"/>
		<ellipse opacity="0.6462" fill="#696666" cx="14.458" cy="29.329" rx="6.47" ry="0.415"/>
		<ellipse opacity="0.65" fill="#686565" cx="14.458" cy="29.329" rx="6.416" ry="0.412"/>
		<ellipse opacity="0.6538" fill="#676463" cx="14.458" cy="29.329" rx="6.363" ry="0.409"/>
		<ellipse opacity="0.6577" fill="#656262" cx="14.458" cy="29.329" rx="6.309" ry="0.406"/>
		<ellipse opacity="0.6615" fill="#646161" cx="14.458" cy="29.329" rx="6.255" ry="0.403"/>
		<ellipse opacity="0.6654" fill="#636060" cx="14.458" cy="29.329" rx="6.202" ry="0.4"/>
		<ellipse opacity="0.6692" fill="#625F5F" cx="14.458" cy="29.329" rx="6.148" ry="0.397"/>
		<ellipse opacity="0.6731" fill="#615E5D" cx="14.458" cy="29.329" rx="6.095" ry="0.396"/>
		<ellipse opacity="0.6769" fill="#5F5D5C" cx="14.458" cy="29.329" rx="6.041" ry="0.393"/>
		<ellipse opacity="0.6808" fill="#5E5C5B" cx="14.458" cy="29.329" rx="5.988" ry="0.39"/>
		<ellipse opacity="0.6846" fill="#5D5A5A" cx="14.458" cy="29.329" rx="5.934" ry="0.387"/>
		<ellipse opacity="0.6885" fill="#5C5959" cx="14.458" cy="29.329" rx="5.88" ry="0.384"/>
		<ellipse opacity="0.6923" fill="#5B5858" cx="14.458" cy="29.329" rx="5.826" ry="0.381"/>
		<ellipse opacity="0.6962" fill="#5A5757" cx="14.458" cy="29.329" rx="5.773" ry="0.378"/>
		<ellipse opacity="0.7" fill="#595655" cx="14.458" cy="29.329" rx="5.72" ry="0.375"/>
		<ellipse opacity="0.7038" fill="#585554" cx="14.458" cy="29.329" rx="5.666" ry="0.372"/>
		<ellipse opacity="0.7077" fill="#575453" cx="14.458" cy="29.329" rx="5.612" ry="0.369"/>
		<ellipse opacity="0.7115" fill="#555352" cx="14.458" cy="29.329" rx="5.559" ry="0.366"/>
		<ellipse opacity="0.7154" fill="#545251" cx="14.458" cy="29.329" rx="5.505" ry="0.363"/>
		<ellipse opacity="0.7192" fill="#535150" cx="14.458" cy="29.329" rx="5.451" ry="0.361"/>
		<ellipse opacity="0.7231" fill="#524F4F" cx="14.458" cy="29.329" rx="5.398" ry="0.358"/>
		<ellipse opacity="0.7269" fill="#514E4E" cx="14.458" cy="29.329" rx="5.345" ry="0.355"/>
		<ellipse opacity="0.7308" fill="#504D4D" cx="14.458" cy="29.329" rx="5.291" ry="0.353"/>
		<ellipse opacity="0.7346" fill="#4F4C4C" cx="14.458" cy="29.329" rx="5.237" ry="0.35"/>
		<ellipse opacity="0.7385" fill="#4E4B4B" cx="14.458" cy="29.329" rx="5.184" ry="0.347"/>
		<ellipse opacity="0.7423" fill="#4D4A4A" cx="14.458" cy="29.329" rx="5.13" ry="0.344"/>
		<ellipse opacity="0.7462" fill="#4C4949" cx="14.458" cy="29.329" rx="5.076" ry="0.341"/>
		<ellipse opacity="0.75" fill="#4B4848" cx="14.458" cy="29.329" rx="5.023" ry="0.338"/>
		<ellipse opacity="0.7538" fill="#4A4747" cx="14.459" cy="29.329" rx="4.969" ry="0.335"/>
		<ellipse opacity="0.7577" fill="#494646" cx="14.459" cy="29.329" rx="4.916" ry="0.332"/>
		<ellipse opacity="0.7615" fill="#484545" cx="14.458" cy="29.329" rx="4.862" ry="0.33"/>
		<ellipse opacity="0.7654" fill="#474444" cx="14.458" cy="29.329" rx="4.809" ry="0.327"/>
		<ellipse opacity="0.7692" fill="#464343" cx="14.458" cy="29.329" rx="4.755" ry="0.324"/>
		<ellipse opacity="0.7731" fill="#454242" cx="14.458" cy="29.329" rx="4.701" ry="0.321"/>
		<ellipse opacity="0.7769" fill="#444141" cx="14.458" cy="29.329" rx="4.648" ry="0.318"/>
		<ellipse opacity="0.7808" fill="#434040" cx="14.458" cy="29.329" rx="4.594" ry="0.315"/>
		<ellipse opacity="0.7846" fill="#423F3F" cx="14.459" cy="29.329" rx="4.541" ry="0.313"/>
		<ellipse opacity="0.7885" fill="#413E3E" cx="14.459" cy="29.329" rx="4.487" ry="0.31"/>
		<ellipse opacity="0.7923" fill="#403D3D" cx="14.458" cy="29.329" rx="4.434" ry="0.307"/>
		<ellipse opacity="0.7962" fill="#3F3C3C" cx="14.458" cy="29.329" rx="4.38" ry="0.304"/>
		<ellipse opacity="0.8" fill="#3E3C3B" cx="14.458" cy="29.329" rx="4.326" ry="0.301"/>
		<ellipse opacity="0.8038" fill="#3D3B3A" cx="14.458" cy="29.329" rx="4.272" ry="0.299"/>
		<ellipse opacity="0.8077" fill="#3C3A39" cx="14.458" cy="29.329" rx="4.219" ry="0.296"/>
		<ellipse opacity="0.8115" fill="#3B3938" cx="14.459" cy="29.329" rx="4.166" ry="0.293"/>
		<ellipse opacity="0.8154" fill="#3A3837" cx="14.459" cy="29.329" rx="4.112" ry="0.29"/>
		<ellipse opacity="0.8192" fill="#393736" cx="14.459" cy="29.329" rx="4.058" ry="0.287"/>
		<ellipse opacity="0.8231" fill="#383635" cx="14.459" cy="29.329" rx="4.005" ry="0.284"/>
		<ellipse opacity="0.8269" fill="#373534" cx="14.458" cy="29.328" rx="3.951" ry="0.282"/>
		<ellipse opacity="0.8308" fill="#363433" cx="14.458" cy="29.328" rx="3.897" ry="0.279"/>
		<ellipse opacity="0.8346" fill="#353332" cx="14.458" cy="29.328" rx="3.844" ry="0.276"/>
		<ellipse opacity="0.8385" fill="#343232" cx="14.458" cy="29.328" rx="3.79" ry="0.273"/>
		<ellipse opacity="0.8423" fill="#333131" cx="14.459" cy="29.328" rx="3.737" ry="0.271"/>
		<ellipse opacity="0.8462" fill="#323030" cx="14.459" cy="29.328" rx="3.683" ry="0.268"/>
		<ellipse opacity="0.85" fill="#312F2F" cx="14.459" cy="29.328" rx="3.63" ry="0.266"/>
		<ellipse opacity="0.8538" fill="#302E2E" cx="14.459" cy="29.328" rx="3.576" ry="0.263"/>
		<ellipse opacity="0.8577" fill="#2F2D2D" cx="14.459" cy="29.328" rx="3.522" ry="0.26"/>
		<ellipse opacity="0.8615" fill="#2E2C2C" cx="14.458" cy="29.328" rx="3.469" ry="0.257"/>
		<ellipse opacity="0.8654" fill="#2D2B2B" cx="14.458" cy="29.328" rx="3.415" ry="0.254"/>
		<ellipse opacity="0.8692" fill="#2C2A2A" cx="14.459" cy="29.328" rx="3.362" ry="0.251"/>
		<ellipse opacity="0.8731" fill="#2B2929" cx="14.459" cy="29.328" rx="3.308" ry="0.248"/>
		<ellipse opacity="0.8769" fill="#2A2928" cx="14.459" cy="29.328" rx="3.255" ry="0.245"/>
		<ellipse opacity="0.8808" fill="#292827" cx="14.459" cy="29.328" rx="3.201" ry="0.242"/>
		<ellipse opacity="0.8846" fill="#282726" cx="14.459" cy="29.328" rx="3.147" ry="0.239"/>
		<ellipse opacity="0.8885" fill="#272625" cx="14.459" cy="29.328" rx="3.094" ry="0.236"/>
		<ellipse opacity="0.8923" fill="#262524" cx="14.458" cy="29.328" rx="3.04" ry="0.234"/>
		<ellipse opacity="0.8962" fill="#242423" cx="14.458" cy="29.328" rx="2.986" ry="0.231"/>
		<ellipse opacity="0.9" fill="#232322" cx="14.459" cy="29.328" rx="2.933" ry="0.229"/>
		<ellipse opacity="0.9038" fill="#222221" cx="14.459" cy="29.328" rx="2.879" ry="0.226"/>
		<ellipse opacity="0.9077" fill="#212120" cx="14.459" cy="29.328" rx="2.826" ry="0.223"/>
		<ellipse opacity="0.9115" fill="#201F1F" cx="14.459" cy="29.328" rx="2.772" ry="0.22"/>
		<ellipse opacity="0.9154" fill="#1F1E1E" cx="14.459" cy="29.328" rx="2.719" ry="0.217"/>
		<ellipse opacity="0.9192" fill="#1E1D1D" cx="14.459" cy="29.328" rx="2.665" ry="0.214"/>
		<ellipse opacity="0.9231" fill="#1D1C1C" cx="14.459" cy="29.328" rx="2.611" ry="0.211"/>
		<ellipse opacity="0.9269" fill="#1C1B1B" cx="14.458" cy="29.328" rx="2.558" ry="0.208"/>
		<ellipse opacity="0.9308" fill="#1B1A1A" cx="14.459" cy="29.328" rx="2.504" ry="0.205"/>
		<ellipse opacity="0.9346" fill="#1A1919" cx="14.459" cy="29.328" rx="2.451" ry="0.203"/>
		<ellipse opacity="0.9385" fill="#181818" cx="14.459" cy="29.328" rx="2.397" ry="0.2"/>
		<ellipse opacity="0.9423" fill="#171717" cx="14.459" cy="29.328" rx="2.344" ry="0.197"/>
		<ellipse opacity="0.9462" fill="#161616" cx="14.459" cy="29.328" rx="2.29" ry="0.194"/>
		<ellipse opacity="0.95" fill="#151414" cx="14.459" cy="29.328" rx="2.236" ry="0.191"/>
		<ellipse opacity="0.9538" fill="#131313" cx="14.459" cy="29.328" rx="2.182" ry="0.188"/>
		<ellipse opacity="0.9577" fill="#121212" cx="14.459" cy="29.328" rx="2.129" ry="0.186"/>
		<ellipse opacity="0.9615" fill="#111111" cx="14.459" cy="29.328" rx="2.076" ry="0.183"/>
		<ellipse opacity="0.9654" fill="#0F0F0F" cx="14.459" cy="29.328" rx="2.022" ry="0.18"/>
		<ellipse opacity="0.9692" fill="#0E0E0E" cx="14.459" cy="29.328" rx="1.968" ry="0.177"/>
		<ellipse opacity="0.9731" fill="#0C0C0C" cx="14.459" cy="29.328" rx="1.915" ry="0.174"/>
		<ellipse opacity="0.9769" fill="#0B0B0B" cx="14.459" cy="29.328" rx="1.861" ry="0.171"/>
		<ellipse opacity="0.9808" fill="#090909" cx="14.459" cy="29.328" rx="1.807" ry="0.169"/>
		<ellipse opacity="0.9846" fill="#070807" cx="14.459" cy="29.328" rx="1.754" ry="0.166"/>
		<ellipse opacity="0.9885" fill="#060606" cx="14.459" cy="29.328" rx="1.7" ry="0.163"/>
		<ellipse opacity="0.9923" fill="#040404" cx="14.459" cy="29.328" rx="1.647" ry="0.16"/>
		<ellipse opacity="0.9962" fill="#030303" cx="14.459" cy="29.328" rx="1.593" ry="0.157"/>
		<ellipse fill="#010101" cx="14.459" cy="29.328" rx="1.54" ry="0.154"/>
	</g>
	
		<linearGradient id="SVGID_1_" gradientUnits="userSpaceOnUse" x1="5.0508" y1="21.21" x2="20.5614" y2="9.0314" gradientTransform="matrix(1.0423 0 0 1.0317 0.954 -1.7689)">
		<stop  offset="0" style="stop-color:#969696"/>
		<stop  offset="0.0046" style="stop-color:#979897"/>
		<stop  offset="0.1201" style="stop-color:#B5B5B4"/>
		<stop  offset="0.236" style="stop-color:#CFCECE"/>
		<stop  offset="0.3511" style="stop-color:#E3E2E2"/>
		<stop  offset="0.4651" style="stop-color:#EFEFEF"/>
		<stop  offset="0.5767" style="stop-color:#F4F4F4"/>
		<stop  offset="0.6953" style="stop-color:#EFEFEF"/>
		<stop  offset="0.8336" style="stop-color:#E1E1E1"/>
		<stop  offset="0.9811" style="stop-color:#CCCBCB"/>
		<stop  offset="1" style="stop-color:#C8C8C8"/>
	</linearGradient>
	<path fill="url(#SVGID_1_)" d="M24.133,14.178c0,5.617-4.602,10.171-10.279,10.171c-5.673,0-10.276-4.555-10.276-10.171
		c0-5.618,4.604-10.172,10.276-10.172C19.532,4.006,24.133,8.561,24.133,14.178z"/>
	
		<radialGradient id="SVGID_2_" cx="16.2769" cy="-518.3442" r="82.2222" gradientTransform="matrix(0.1205 0 0 0.1196 12.2266 76.4428)" gradientUnits="userSpaceOnUse">
		<stop  offset="0" style="stop-color:#FFFFFF"/>
		<stop  offset="1" style="stop-color:#E1E1E1"/>
	</radialGradient>
	<path fill="url(#SVGID_2_)" d="M23.37,13.989c0,5.111-4.174,9.253-9.323,9.253c-5.151,0-9.324-4.143-9.324-9.253
		c0-5.107,4.173-9.25,9.324-9.25C19.196,4.738,23.37,8.882,23.37,13.989z"/>
	
		<radialGradient id="SVGID_3_" cx="-35.3105" cy="-562.2021" r="188.219" gradientTransform="matrix(0.116 0 0 0.116 12.828 77.2681)" gradientUnits="userSpaceOnUse">
		<stop  offset="0" style="stop-color:#0E9246"/>
		<stop  offset="0.7397" style="stop-color:#37B551"/>
	</radialGradient>
	<path fill="url(#SVGID_3_)" d="M18.168,2.18c-1.881-2.037-5.087-2.172-7.128-0.295l-8.856,8.145
		c-2.04,1.878-2.176,5.086-0.299,7.127l8.147,8.857c1.879,2.039,5.083,2.174,7.126,0.295l8.859-8.146
		c2.041-1.877,2.174-5.082,0.297-7.124L18.168,2.18z M14.053,23.519c-5.25,0-9.51-4.259-9.51-9.511c0-5.251,4.26-9.509,9.51-9.509
		c5.256,0,9.512,4.258,9.512,9.509C23.565,19.26,19.309,23.519,14.053,23.519z"/>
	<linearGradient id="SVGID_4_" gradientUnits="userSpaceOnUse" x1="-4.3164" y1="12.8394" x2="32.2072" y2="15.3333">
		<stop  offset="0" style="stop-color:#37B551"/>
		<stop  offset="1" style="stop-color:#0E9246"/>
	</linearGradient>
	<path fill="url(#SVGID_4_)" d="M17.948,1.511c-1.748-1.9-4.732-2.024-6.634-0.277L1.512,10.25c-1.9,1.75-2.025,4.733-0.276,6.633
		l9.017,9.801c1.748,1.9,4.73,2.022,6.631,0.277l9.803-9.018c1.902-1.749,2.027-4.731,0.279-6.629L17.948,1.511z M14.053,24.123
		c-5.586,0-10.116-4.531-10.116-10.116c0-5.589,4.53-10.117,10.116-10.117c5.588,0,10.164,4.421,10.164,10.008
		C24.217,19.486,19.641,24.123,14.053,24.123z"/>
	<g>
		<path fill="#FFFFFF" d="M3.936,13.773c-0.015,1.438,0.271,2.941,0.754,4.028c-0.381-1.055-0.596-2.722-0.584-4.12
			c0.01-1.391,0.29-2.707,0.686-3.753C4.263,11.004,3.947,12.338,3.936,13.773z"/>
	</g>
	<g>
		<path fill="#FFFFFF" d="M0.137,13.64c-0.009,0.908,0.285,1.857,0.769,2.543c-0.383-0.667-0.601-1.719-0.596-2.601
			c0.006-0.878,0.282-1.707,0.674-2.365C0.458,11.894,0.149,12.736,0.137,13.64z"/>
	</g>
	<path fill="#FFFFFF" d="M21.526,20.787c0.275-0.288,0.656-0.804,0.889-1.135c0.629-0.889,1.096-1.931,1.391-2.977
		c0.17-0.594,0.287-1.215,0.357-1.828c0.064-0.581,0.07-1.174,0.023-1.755c-0.041-0.557-0.201-1.604-0.408-2.063
		c0.225,0.55,0.27,1.661,0.27,2.246c0,2.19-0.594,4.31-1.752,6.167c-0.309,0.499-0.662,0.971-1.043,1.417
		c-0.355,0.417-0.873,0.866-1.258,1.256C20.731,21.564,21.04,21.299,21.526,20.787z"/>
	<path opacity="0.49" fill="#FFFFFF" d="M14.609,19.213c3.958,0,7.384-2.793,8.726-6.229c0.023,0.246,0.043,0.883,0.043,1.135
		c0,5.059-4.221,9.124-9.357,9.124c-5.134,0-9.292-4.104-9.292-9.164c0-1.162,0.087-2.191,0.487-3.214
		C5.597,15.575,9.732,19.213,14.609,19.213z"/>
	<g>
		<path d="M21.182,11.354L14.2,11.427v0.012h-1.092l-0.302,0.003v-0.003h-1.244v0.015l-0.496,0.004
			c-0.784,0.634-1.622,2.114-1.622,2.114c-1.151,0.423-2.882,1.055-2.882,1.055l0.053,1.435c-0.733,0.738,0.104,1.326,0.104,1.326
			l1.125-0.002c-0.003-0.033-0.006-0.066-0.006-0.1c0-0.924,0.741-1.674,1.659-1.674c0.917,0,1.66,0.75,1.66,1.674
			c0,0.031-0.004,0.059-0.004,0.09l6.015-0.016c-0.002-0.024-0.006-0.049-0.006-0.074c0-0.924,0.742-1.674,1.66-1.674
			s1.658,0.75,1.658,1.674c0,0.022,0,0.041-0.006,0.064l0.758-0.002C23.176,15.555,21.182,11.354,21.182,11.354z"/>
	</g>
	<g>
		<path fill="#FFFFFF" d="M21.104,11.388l-7.672,0.08v0.01h-1.811v0.01l-0.487,0.005c-0.776,0.626-1.6,2.087-1.6,2.087
			c-1.139,0.42-2.845,1.046-2.845,1.046l0.054,1.416c-0.727,0.732,0.101,1.313,0.101,1.313l1.108-0.002
			c-0.001-0.033-0.004-0.065-0.004-0.098c0-0.915,0.73-1.654,1.637-1.654c0.901,0,1.634,0.739,1.634,1.654
			c0,0.03-0.002,0.06-0.005,0.09l5.933-0.018c-0.004-0.025-0.004-0.047-0.004-0.072c0-0.915,0.732-1.654,1.637-1.654
			c0.902,0,1.635,0.739,1.635,1.654c0,0.021-0.002,0.042-0.002,0.064l0.742-0.002C23.069,15.541,21.104,11.388,21.104,11.388z"/>
	</g>
	<path d="M18.749,15.811c-0.777,0-1.404,0.627-1.404,1.404s0.627,1.406,1.404,1.406s1.406-0.629,1.406-1.406
		S19.526,15.811,18.749,15.811z"/>
	<path fill="#FFFFFF" d="M18.749,15.916c-0.715,0-1.295,0.58-1.295,1.299s0.58,1.301,1.295,1.301c0.719,0,1.299-0.582,1.299-1.301
		S19.467,15.916,18.749,15.916z"/>
	<path d="M18.749,16.001c-0.67,0-1.217,0.544-1.217,1.214s0.547,1.215,1.217,1.215c0.672,0,1.215-0.545,1.215-1.215
		S19.42,16.001,18.749,16.001z"/>
	<path d="M9.54,15.811c-0.777,0-1.403,0.627-1.403,1.404s0.626,1.406,1.403,1.406s1.407-0.629,1.407-1.406
		S10.317,15.811,9.54,15.811z"/>
	<path fill="#FFFFFF" d="M9.54,15.916c-0.715,0-1.298,0.58-1.298,1.299s0.583,1.301,1.298,1.301c0.718,0,1.301-0.582,1.301-1.301
		S10.257,15.916,9.54,15.916z"/>
	<path d="M9.54,16.001c-0.671,0-1.216,0.544-1.216,1.214S8.869,18.43,9.54,18.43s1.214-0.545,1.214-1.215S10.21,16.001,9.54,16.001z
		"/>
	<path d="M21.034,11.455l-9.87,0.101c-0.765,0.614-1.583,2.047-1.583,2.047c-1.127,0.407-2.812,1.022-2.812,1.022l0.051,1.387
		c-0.716,0.716,0.102,1.285,0.102,1.285l1.096-0.004c-0.001-0.031-0.005-0.063-0.005-0.096c0-0.894,0.722-1.619,1.619-1.619
		c0.896,0,1.616,0.726,1.616,1.619c0,0.029-0.002,0.059-0.002,0.086l5.872-0.016c0-0.023-0.002-0.046-0.002-0.07
		c0-0.894,0.723-1.619,1.615-1.619c0.896,0,1.621,0.726,1.621,1.619c0,0.021-0.004,0.042-0.004,0.063l0.738-0.004
		C22.975,15.52,21.034,11.455,21.034,11.455z"/>
	<path fill="#656565" d="M10.166,13.718c0,0,0.639-1.277,1.251-1.743l1.671-0.075l-0.098,1.794L10.166,13.718z"/>
	<path fill="#FFFFFF" d="M10.298,13.634c0,0,0.579-1.16,1.138-1.583l1.519-0.066l-0.09,1.626L10.298,13.634z"/>
	<g>
		<g>
			<path fill="#FFFFFF" d="M14.328,14.312v-2.22h0.983c0.199,0,0.35,0.02,0.453,0.06c0.102,0.04,0.184,0.11,0.246,0.211
				c0.063,0.101,0.094,0.213,0.094,0.334c0,0.159-0.053,0.291-0.154,0.399c-0.102,0.107-0.258,0.176-0.473,0.206
				c0.66,0.315,0.725,1.426,1.029,1.009l0.27-0.381h0.326l-0.557,0.757l0.6,0.853l-0.338-0.007l-0.328-0.494l-0.088-0.134
				l-0.42,0.635l-0.334,0.082v-0.076l0.59-0.843c-0.561-0.797-0.637-1.376-1.604-1.376l0.004,0.981l-0.04,0.017L14.328,14.312
				L14.328,14.312z M14.623,13.072h0.63c0.135,0,0.24-0.015,0.316-0.042c0.076-0.028,0.135-0.073,0.172-0.134
				c0.039-0.062,0.059-0.127,0.059-0.2c0-0.104-0.037-0.191-0.113-0.259s-0.197-0.101-0.361-0.101h-0.702V13.072z"/>
		</g>
		<g>
			<path fill="#FFFFFF" d="M14.285,14.326v-2.289h1.017c0.201,0,0.357,0.021,0.463,0.062c0.107,0.041,0.191,0.114,0.254,0.218
				c0.064,0.104,0.096,0.219,0.096,0.345c0,0.163-0.051,0.299-0.156,0.411c-0.105,0.111-0.268,0.182-0.488,0.213
				c0.68,0.324,0.746,1.469,1.063,1.039l0.277-0.391h0.336l-0.572,0.781l0.615,0.878l-0.35-0.006l-0.336-0.511l-0.09-0.139
				l-0.436,0.656l-0.344,0.084l0.002-0.078l0.607-0.869c-0.578-0.821-0.656-1.419-1.655-1.419v1.017l-0.054,0.024L14.285,14.326
				L14.285,14.326z M14.587,13.047h0.651c0.139,0,0.246-0.015,0.326-0.043c0.076-0.029,0.137-0.075,0.176-0.137
				c0.041-0.063,0.061-0.132,0.061-0.206c0-0.107-0.037-0.198-0.117-0.267c-0.078-0.069-0.203-0.104-0.373-0.104h-0.724V13.047z"/>
		</g>
		<g>
			<path fill="#FFFFFF" d="M14.219,14.349v-2.394h1.061c0.215,0,0.375,0.022,0.486,0.065c0.109,0.043,0.199,0.119,0.268,0.228
				c0.064,0.109,0.098,0.229,0.098,0.36c0,0.17-0.055,0.313-0.164,0.43s-0.279,0.19-0.51,0.222c0.711,0.339,0.779,1.537,1.107,1.085
				l0.293-0.409h0.352l-0.6,0.816l0.645,0.917l-0.363-0.006l-0.354-0.532l-0.094-0.146l-0.455,0.683l-0.357,0.006l0.635-0.906
				c-0.605-0.858-0.688-1.483-1.732-1.483v1.062H14.219L14.219,14.349z M14.534,13.013h0.682c0.146,0,0.26-0.016,0.34-0.046
				c0.082-0.029,0.145-0.078,0.188-0.144c0.041-0.065,0.063-0.138,0.063-0.215c0-0.112-0.041-0.207-0.123-0.279
				c-0.082-0.073-0.213-0.109-0.391-0.109h-0.758V13.013z"/>
		</g>
	</g>
</g>
</svg>
