<?xml version="1.0" encoding="utf-8"?>
<!-- Generator: Adobe Illustrator 14.0.0, SVG Export Plug-In . SVG Version: 6.00 Build 43363)  -->
<!DOCTYPE svg PUBLIC "-//W3C//DTD SVG 1.1//EN" "http://www.w3.org/Graphics/SVG/1.1/DTD/svg11.dtd">
<svg version="1.1" id="Layer_1" xmlns="http://www.w3.org/2000/svg" xmlns:xlink="http://www.w3.org/1999/xlink" x="0px" y="0px"
	 width="28.2px" height="30px" viewBox="0 0 28.2 30" enable-background="new 0 0 28.2 30" xml:space="preserve">
<g>
	<g opacity="0.4">
		<ellipse opacity="0.3" fill="#FFFFFF" cx="14.457" cy="29.328" rx="11.292" ry="0.672"/>
		<path opacity="0.3038" fill="#FBFBFB" d="M25.695,29.328c0,0.371-5.03,0.669-11.238,0.669c-6.204,0-11.237-0.298-11.237-0.669
			s5.034-0.669,11.237-0.669C20.665,28.659,25.695,28.957,25.695,29.328z"/>
		<ellipse opacity="0.3077" fill="#F7F7F7" cx="14.457" cy="29.328" rx="11.184" ry="0.666"/>
		<ellipse opacity="0.3115" fill="#F4F4F3" cx="14.457" cy="29.328" rx="11.131" ry="0.663"/>
		<ellipse opacity="0.3154" fill="#F2F1F0" cx="14.457" cy="29.328" rx="11.077" ry="0.66"/>
		<path opacity="0.3192" fill="#EFEEEE" d="M25.481,29.328c0,0.365-4.936,0.657-11.024,0.657c-6.085,0-11.023-0.292-11.023-0.657
			s4.938-0.657,11.023-0.657C20.545,28.671,25.481,28.963,25.481,29.328z"/>
		<path opacity="0.3231" fill="#EDECEB" d="M25.427,29.328c0,0.363-4.911,0.655-10.971,0.655c-6.056,0-10.969-0.292-10.969-0.655
			s4.914-0.655,10.969-0.655C20.516,28.673,25.427,28.965,25.427,29.328z"/>
		<ellipse opacity="0.3269" fill="#EBE9E9" cx="14.457" cy="29.328" rx="10.917" ry="0.652"/>
		<path opacity="0.3308" fill="#E9E7E7" d="M25.32,29.328c0,0.36-4.862,0.649-10.863,0.649c-5.997,0-10.862-0.289-10.862-0.649
			s4.866-0.649,10.862-0.649C20.458,28.679,25.32,28.968,25.32,29.328z"/>
		<ellipse opacity="0.3346" fill="#E6E5E5" cx="14.457" cy="29.328" rx="10.809" ry="0.646"/>
		<ellipse opacity="0.3385" fill="#E4E3E3" cx="14.457" cy="29.328" rx="10.755" ry="0.644"/>
		<ellipse opacity="0.3423" fill="#E3E1E1" cx="14.457" cy="29.328" rx="10.702" ry="0.641"/>
		<ellipse opacity="0.3462" fill="#E1DFDF" cx="14.457" cy="29.328" rx="10.649" ry="0.638"/>
		<path opacity="0.35" fill="#DFDDDD" d="M25.052,29.328c0,0.353-4.743,0.635-10.596,0.635c-5.849,0-10.594-0.282-10.594-0.635
			s4.746-0.635,10.594-0.635C20.309,28.693,25.052,28.976,25.052,29.328z"/>
		<ellipse opacity="0.3538" fill="#DDDBDB" cx="14.457" cy="29.328" rx="10.541" ry="0.632"/>
		<ellipse opacity="0.3577" fill="#DBD9D9" cx="14.457" cy="29.328" rx="10.488" ry="0.629"/>
		<path opacity="0.3615" fill="#D9D7D7" d="M24.891,29.328c0,0.348-4.671,0.626-10.435,0.626c-5.76,0-10.434-0.278-10.434-0.626
			s4.674-0.627,10.434-0.627C20.22,28.701,24.891,28.98,24.891,29.328z"/>
		<ellipse opacity="0.3654" fill="#D7D5D5" cx="14.457" cy="29.328" rx="10.38" ry="0.623"/>
		<ellipse opacity="0.3692" fill="#D5D4D3" cx="14.457" cy="29.328" rx="10.327" ry="0.621"/>
		<ellipse opacity="0.3731" fill="#D4D2D1" cx="14.457" cy="29.328" rx="10.273" ry="0.618"/>
		<ellipse opacity="0.3769" fill="#D2D0D0" cx="14.457" cy="29.328" rx="10.22" ry="0.615"/>
		<ellipse opacity="0.3808" fill="#D0CECE" cx="14.457" cy="29.328" rx="10.166" ry="0.612"/>
		<ellipse opacity="0.3846" fill="#CECCCC" cx="14.457" cy="29.328" rx="10.113" ry="0.609"/>
		<ellipse opacity="0.3885" fill="#CCCACA" cx="14.457" cy="29.328" rx="10.059" ry="0.606"/>
		<ellipse opacity="0.3923" fill="#CBC8C8" cx="14.457" cy="29.328" rx="10.005" ry="0.604"/>
		<ellipse opacity="0.3962" fill="#C9C7C7" cx="14.457" cy="29.328" rx="9.952" ry="0.601"/>
		<ellipse opacity="0.4" fill="#C7C5C5" cx="14.457" cy="29.328" rx="9.898" ry="0.598"/>
		<ellipse opacity="0.4038" fill="#C5C3C3" cx="14.458" cy="29.328" rx="9.845" ry="0.595"/>
		<ellipse opacity="0.4077" fill="#C4C1C1" cx="14.458" cy="29.328" rx="9.791" ry="0.592"/>
		<ellipse opacity="0.4115" fill="#C2C0BF" cx="14.457" cy="29.328" rx="9.738" ry="0.59"/>
		<ellipse opacity="0.4154" fill="#C0BEBE" cx="14.457" cy="29.328" rx="9.684" ry="0.587"/>
		<ellipse opacity="0.4192" fill="#BEBCBC" cx="14.457" cy="29.328" rx="9.63" ry="0.584"/>
		<ellipse opacity="0.4231" fill="#BDBABA" cx="14.457" cy="29.328" rx="9.576" ry="0.581"/>
		<ellipse opacity="0.4269" fill="#BBB9B9" cx="14.457" cy="29.328" rx="9.523" ry="0.578"/>
		<ellipse opacity="0.4308" fill="#B9B7B7" cx="14.457" cy="29.328" rx="9.469" ry="0.575"/>
		<ellipse opacity="0.4346" fill="#B8B5B5" cx="14.458" cy="29.328" rx="9.416" ry="0.572"/>
		<ellipse opacity="0.4385" fill="#B6B4B3" cx="14.458" cy="29.328" rx="9.362" ry="0.569"/>
		<ellipse opacity="0.4423" fill="#B5B2B2" cx="14.458" cy="29.328" rx="9.309" ry="0.566"/>
		<ellipse opacity="0.4462" fill="#B3B0B0" cx="14.457" cy="29.328" rx="9.255" ry="0.563"/>
		<ellipse opacity="0.45" fill="#B1AFAF" cx="14.457" cy="29.328" rx="9.201" ry="0.561"/>
		<ellipse opacity="0.4538" fill="#B0ADAD" cx="14.457" cy="29.328" rx="9.148" ry="0.559"/>
		<ellipse opacity="0.4577" fill="#AEABAB" cx="14.457" cy="29.328" rx="9.094" ry="0.556"/>
		<ellipse opacity="0.4615" fill="#ADAAAA" cx="14.458" cy="29.328" rx="9.041" ry="0.553"/>
		<ellipse opacity="0.4654" fill="#ABA8A8" cx="14.458" cy="29.328" rx="8.987" ry="0.55"/>
		<ellipse opacity="0.4692" fill="#A9A7A6" cx="14.458" cy="29.328" rx="8.934" ry="0.547"/>
		<ellipse opacity="0.4731" fill="#A8A5A5" cx="14.458" cy="29.328" rx="8.88" ry="0.544"/>
		<ellipse opacity="0.4769" fill="#A6A3A3" cx="14.457" cy="29.327" rx="8.826" ry="0.542"/>
		<path opacity="0.4808" fill="#A5A2A2" d="M23.23,29.327c0,0.301-3.927,0.539-8.773,0.539c-4.843,0-8.772-0.238-8.772-0.539
			c0-0.299,3.929-0.538,8.772-0.538C19.303,28.789,23.23,29.028,23.23,29.327z"/>
		<ellipse opacity="0.4846" fill="#A3A0A0" cx="14.457" cy="29.327" rx="8.719" ry="0.536"/>
		<ellipse opacity="0.4885" fill="#A29F9F" cx="14.457" cy="29.327" rx="8.665" ry="0.533"/>
		<path opacity="0.4923" fill="#A09D9D" d="M23.07,29.327c0,0.296-3.855,0.53-8.613,0.53c-4.754,0-8.611-0.234-8.611-0.53
			c0-0.294,3.857-0.529,8.611-0.529C19.214,28.798,23.07,29.033,23.07,29.327z"/>
		<ellipse opacity="0.4962" fill="#9F9C9C" cx="14.458" cy="29.327" rx="8.559" ry="0.527"/>
		<path opacity="0.5" fill="#9D9A9A" d="M22.962,29.327c0,0.293-3.808,0.525-8.506,0.525c-4.695,0-8.504-0.232-8.504-0.525
			c0-0.291,3.809-0.523,8.504-0.523C19.155,28.804,22.962,29.036,22.962,29.327z"/>
		<ellipse opacity="0.5038" fill="#9C9999" cx="14.458" cy="29.327" rx="8.451" ry="0.522"/>
		<ellipse opacity="0.5077" fill="#9A9797" cx="14.458" cy="29.327" rx="8.397" ry="0.52"/>
		<path opacity="0.5115" fill="#999696" d="M22.801,29.327c0,0.288-3.735,0.517-8.345,0.517c-4.606,0-8.343-0.229-8.343-0.517
			c0-0.286,3.737-0.515,8.343-0.515C19.066,28.813,22.801,29.041,22.801,29.327z"/>
		<ellipse opacity="0.5154" fill="#979494" cx="14.457" cy="29.327" rx="8.29" ry="0.514"/>
		<path opacity="0.5192" fill="#969393" d="M22.694,29.327c0,0.285-3.688,0.511-8.237,0.511c-4.547,0-8.236-0.226-8.236-0.511
			c0-0.283,3.689-0.51,8.236-0.51C19.006,28.817,22.694,29.044,22.694,29.327z"/>
		<ellipse opacity="0.5231" fill="#949191" cx="14.458" cy="29.327" rx="8.183" ry="0.508"/>
		<ellipse opacity="0.5269" fill="#939090" cx="14.458" cy="29.327" rx="8.13" ry="0.505"/>
		<path opacity="0.5308" fill="#918E8E" d="M22.534,29.327c0,0.28-3.615,0.502-8.077,0.502c-4.458,0-8.075-0.222-8.075-0.502
			c0-0.278,3.617-0.501,8.075-0.501C18.918,28.826,22.534,29.049,22.534,29.327z"/>
		<ellipse opacity="0.5346" fill="#908D8D" cx="14.458" cy="29.327" rx="8.022" ry="0.499"/>
		<path opacity="0.5385" fill="#8E8B8B" d="M22.426,29.327c0,0.277-3.567,0.496-7.97,0.496c-4.399,0-7.968-0.219-7.968-0.496
			c0-0.275,3.569-0.495,7.968-0.495C18.859,28.832,22.426,29.052,22.426,29.327z"/>
		<ellipse opacity="0.5423" fill="#8D8A8A" cx="14.458" cy="29.327" rx="7.915" ry="0.494"/>
		<ellipse opacity="0.5462" fill="#8B8888" cx="14.457" cy="29.327" rx="7.862" ry="0.491"/>
		<path opacity="0.55" fill="#8A8787" d="M22.266,29.327c0,0.272-3.496,0.488-7.81,0.488c-4.31,0-7.807-0.216-7.807-0.488
			c0-0.271,3.497-0.486,7.807-0.486C18.77,28.841,22.266,29.057,22.266,29.327z"/>
		<ellipse opacity="0.5538" fill="#898685" cx="14.458" cy="29.327" rx="7.755" ry="0.485"/>
		<path opacity="0.5577" fill="#878484" d="M22.159,29.327c0,0.27-3.448,0.482-7.702,0.482c-4.251,0-7.7-0.213-7.7-0.482
			c0-0.268,3.449-0.481,7.7-0.481C18.71,28.846,22.159,29.06,22.159,29.327z"/>
		<path opacity="0.5615" fill="#868383" d="M22.105,29.327c0,0.268-3.424,0.479-7.648,0.479c-4.222,0-7.646-0.212-7.646-0.479
			c0-0.266,3.425-0.479,7.646-0.479C18.681,28.849,22.105,29.062,22.105,29.327z"/>
		<ellipse opacity="0.5654" fill="#848181" cx="14.458" cy="29.327" rx="7.594" ry="0.477"/>
		<path opacity="0.5692" fill="#838080" d="M21.998,29.327c0,0.265-3.376,0.474-7.541,0.474c-4.162,0-7.539-0.209-7.539-0.474
			c0-0.263,3.377-0.473,7.539-0.473C18.622,28.854,21.998,29.064,21.998,29.327z"/>
		<ellipse opacity="0.5731" fill="#827F7E" cx="14.458" cy="29.327" rx="7.486" ry="0.471"/>
		<ellipse opacity="0.5769" fill="#807D7D" cx="14.457" cy="29.327" rx="7.433" ry="0.468"/>
		<path opacity="0.5808" fill="#7F7C7C" d="M21.837,29.327c0,0.26-3.304,0.465-7.381,0.465c-4.074,0-7.378-0.205-7.378-0.465
			c0-0.258,3.305-0.464,7.378-0.464C18.534,28.863,21.837,29.069,21.837,29.327z"/>
		<ellipse opacity="0.5846" fill="#7E7A7A" cx="14.458" cy="29.327" rx="7.326" ry="0.463"/>
		<path opacity="0.5885" fill="#7C7979" d="M21.73,29.327c0,0.257-3.256,0.46-7.273,0.46c-4.014,0-7.271-0.203-7.271-0.46
			c0-0.255,3.257-0.458,7.271-0.458C18.474,28.869,21.73,29.072,21.73,29.327z"/>
		<ellipse opacity="0.5923" fill="#7B7878" cx="14.458" cy="29.327" rx="7.219" ry="0.457"/>
		<ellipse opacity="0.5962" fill="#7A7676" cx="14.458" cy="29.327" rx="7.165" ry="0.454"/>
		<path opacity="0.6" fill="#787575" d="M21.569,29.327c0,0.252-3.184,0.451-7.112,0.451c-3.926,0-7.11-0.199-7.11-0.451
			c0-0.25,3.185-0.45,7.11-0.45C18.385,28.877,21.569,29.077,21.569,29.327z"/>
		<ellipse opacity="0.6038" fill="#777474" cx="14.458" cy="29.327" rx="7.058" ry="0.448"/>
		<path opacity="0.6077" fill="#767372" d="M21.462,29.327c0,0.249-3.137,0.445-7.006,0.445c-3.866,0-7.003-0.196-7.003-0.445
			c0-0.247,3.137-0.444,7.003-0.444C18.326,28.883,21.462,29.08,21.462,29.327z"/>
		<ellipse opacity="0.6115" fill="#747171" cx="14.458" cy="29.327" rx="6.951" ry="0.442"/>
		<ellipse opacity="0.6154" fill="#737070" cx="14.458" cy="29.327" rx="6.897" ry="0.439"/>
		<path opacity="0.6192" fill="#726F6E" d="M21.301,29.327c0,0.244-3.064,0.437-6.845,0.437c-3.778,0-6.842-0.192-6.842-0.437
			c0-0.242,3.064-0.436,6.842-0.436C18.237,28.892,21.301,29.085,21.301,29.327z"/>
		<ellipse opacity="0.6231" fill="#716D6D" cx="14.458" cy="29.327" rx="6.79" ry="0.434"/>
		<path opacity="0.6269" fill="#6F6C6C" d="M21.194,29.327c0,0.241-3.016,0.431-6.737,0.431c-3.719,0-6.735-0.189-6.735-0.431
			c0-0.239,3.017-0.43,6.735-0.43C18.178,28.897,21.194,29.088,21.194,29.327z"/>
		<ellipse opacity="0.6308" fill="#6E6B6B" cx="14.458" cy="29.327" rx="6.683" ry="0.429"/>
		<ellipse opacity="0.6346" fill="#6D6A69" cx="14.458" cy="29.327" rx="6.629" ry="0.426"/>
		<path opacity="0.6385" fill="#6C6868" d="M21.034,29.327c0,0.236-2.944,0.423-6.577,0.423c-3.63,0-6.574-0.187-6.574-0.423
			c0-0.234,2.944-0.422,6.574-0.422C18.089,28.905,21.034,29.093,21.034,29.327z"/>
		<ellipse opacity="0.6423" fill="#6A6767" cx="14.458" cy="29.327" rx="6.522" ry="0.42"/>
		<path opacity="0.6462" fill="#696666" d="M20.926,29.327c0,0.233-2.896,0.417-6.47,0.417c-3.571,0-6.467-0.184-6.467-0.417
			c0-0.231,2.896-0.416,6.467-0.416C18.03,28.911,20.926,29.096,20.926,29.327z"/>
		<path opacity="0.65" fill="#686565" d="M20.873,29.327c0,0.231-2.872,0.414-6.416,0.414c-3.541,0-6.414-0.183-6.414-0.414
			c0-0.229,2.873-0.413,6.414-0.413C18,28.914,20.873,29.098,20.873,29.327z"/>
		<ellipse opacity="0.6538" fill="#676463" cx="14.458" cy="29.327" rx="6.361" ry="0.411"/>
		<path opacity="0.6577" fill="#656262" d="M20.765,29.327c0,0.229-2.824,0.408-6.309,0.408c-3.482,0-6.306-0.18-6.306-0.408
			c0-0.227,2.824-0.407,6.306-0.407C17.941,28.92,20.765,29.101,20.765,29.327z"/>
		<ellipse opacity="0.6615" fill="#646161" cx="14.458" cy="29.327" rx="6.254" ry="0.405"/>
		<path opacity="0.6654" fill="#636060" d="M20.659,29.327c0,0.226-2.776,0.402-6.202,0.402c-3.423,0-6.199-0.177-6.199-0.402
			c0-0.224,2.776-0.401,6.199-0.401C17.882,28.926,20.659,29.104,20.659,29.327z"/>
		<path opacity="0.6692" fill="#625F5F" d="M20.605,29.327c0,0.224-2.753,0.399-6.148,0.399c-3.393,0-6.146-0.176-6.146-0.399
			c0-0.222,2.752-0.398,6.146-0.398C17.852,28.929,20.605,29.105,20.605,29.327z"/>
		<ellipse opacity="0.6731" fill="#615E5D" cx="14.458" cy="29.327" rx="6.093" ry="0.397"/>
		<path opacity="0.6769" fill="#5F5D5C" d="M20.498,29.327c0,0.221-2.704,0.395-6.041,0.395c-3.334,0-6.039-0.174-6.039-0.395
			c0-0.219,2.705-0.394,6.039-0.394C17.793,28.934,20.498,29.108,20.498,29.327z"/>
		<ellipse opacity="0.6808" fill="#5E5C5B" cx="14.458" cy="29.327" rx="5.986" ry="0.392"/>
		<path opacity="0.6846" fill="#5D5A5A" d="M20.39,29.327c0,0.218-2.656,0.389-5.934,0.389c-3.275,0-5.931-0.171-5.931-0.389
			c0-0.216,2.656-0.388,5.931-0.388C17.734,28.939,20.39,29.111,20.39,29.327z"/>
		<path opacity="0.6885" fill="#5C5959" d="M20.336,29.327c0,0.216-2.632,0.386-5.88,0.386c-3.245,0-5.877-0.17-5.877-0.386
			c0-0.214,2.632-0.385,5.877-0.385C17.705,28.942,20.336,29.113,20.336,29.327z"/>
		<ellipse opacity="0.6923" fill="#5B5858" cx="14.458" cy="29.327" rx="5.825" ry="0.383"/>
		<path opacity="0.6962" fill="#5A5757" d="M20.23,29.327c0,0.213-2.585,0.38-5.773,0.38c-3.186,0-5.771-0.167-5.771-0.38
			c0-0.211,2.584-0.379,5.771-0.379C17.645,28.948,20.23,29.116,20.23,29.327z"/>
		<ellipse opacity="0.7" fill="#595655" cx="14.458" cy="29.327" rx="5.718" ry="0.377"/>
		<path opacity="0.7038" fill="#585554" d="M20.123,29.327c0,0.21-2.536,0.374-5.666,0.374c-3.127,0-5.663-0.164-5.663-0.374
			c0-0.208,2.536-0.373,5.663-0.373C17.586,28.954,20.123,29.119,20.123,29.327z"/>
		<path opacity="0.7077" fill="#575453" d="M20.069,29.327c0,0.208-2.513,0.371-5.612,0.371c-3.097,0-5.609-0.163-5.609-0.371
			c0-0.206,2.512-0.37,5.609-0.37C17.556,28.957,20.069,29.121,20.069,29.327z"/>
		<ellipse opacity="0.7115" fill="#555352" cx="14.458" cy="29.327" rx="5.557" ry="0.368"/>
		<path opacity="0.7154" fill="#545251" d="M19.961,29.327c0,0.205-2.464,0.365-5.505,0.365c-3.038,0-5.502-0.16-5.502-0.365
			c0-0.203,2.464-0.365,5.502-0.365C17.498,28.962,19.961,29.124,19.961,29.327z"/>
		<ellipse opacity="0.7192" fill="#535150" cx="14.458" cy="29.327" rx="5.45" ry="0.363"/>
		<path opacity="0.7231" fill="#524F4F" d="M19.854,29.327c0,0.202-2.416,0.36-5.397,0.36c-2.979,0-5.395-0.158-5.395-0.36
			c0-0.2,2.416-0.359,5.395-0.359C17.438,28.968,19.854,29.127,19.854,29.327z"/>
		<path opacity="0.7269" fill="#514E4E" d="M19.801,29.327c0,0.2-2.393,0.357-5.345,0.357c-2.949,0-5.342-0.157-5.342-0.357
			c0-0.198,2.393-0.356,5.342-0.356C17.409,28.971,19.801,29.129,19.801,29.327z"/>
		<ellipse opacity="0.7308" fill="#504D4D" cx="14.458" cy="29.327" rx="5.29" ry="0.354"/>
		<path opacity="0.7346" fill="#4F4C4C" d="M19.694,29.327c0,0.197-2.345,0.352-5.237,0.352c-2.89,0-5.234-0.154-5.234-0.352
			c0-0.195,2.344-0.351,5.234-0.351C17.349,28.977,19.694,29.132,19.694,29.327z"/>
		<path opacity="0.7385" fill="#4E4B4B" d="M19.64,29.327c0,0.195-2.32,0.349-5.184,0.349c-2.86,0-5.181-0.153-5.181-0.349
			c0-0.193,2.32-0.348,5.181-0.348C17.32,28.979,19.64,29.134,19.64,29.327z"/>
		<ellipse opacity="0.7423" fill="#4D4A4A" cx="14.458" cy="29.327" rx="5.129" ry="0.346"/>
		<path opacity="0.7462" fill="#4C4949" d="M19.533,29.327c0,0.192-2.272,0.343-5.076,0.343c-2.801,0-5.074-0.15-5.074-0.343
			c0-0.19,2.272-0.342,5.074-0.342C17.26,28.985,19.533,29.137,19.533,29.327z"/>
		<ellipse opacity="0.75" fill="#4B4848" cx="14.458" cy="29.327" rx="5.021" ry="0.34"/>
		<path opacity="0.7538" fill="#4A4747" d="M19.426,29.327c0,0.189-2.225,0.337-4.97,0.337c-2.742,0-4.966-0.147-4.966-0.337
			c0-0.188,2.224-0.337,4.966-0.337C17.202,28.99,19.426,29.14,19.426,29.327z"/>
		<path opacity="0.7577" fill="#494646" d="M19.373,29.327c0,0.188-2.201,0.334-4.916,0.334c-2.712,0-4.913-0.146-4.913-0.334
			c0-0.186,2.2-0.334,4.913-0.334C17.171,28.993,19.373,29.142,19.373,29.327z"/>
		<ellipse opacity="0.7615" fill="#484545" cx="14.458" cy="29.327" rx="4.861" ry="0.332"/>
		<path opacity="0.7654" fill="#474444" d="M19.265,29.327c0,0.185-2.152,0.329-4.809,0.329c-2.653,0-4.806-0.145-4.806-0.329
			c0-0.183,2.152-0.328,4.806-0.328C17.113,28.999,19.265,29.145,19.265,29.327z"/>
		<ellipse opacity="0.7692" fill="#464343" cx="14.458" cy="29.327" rx="4.753" ry="0.326"/>
		<path opacity="0.7731" fill="#454242" d="M19.158,29.327c0,0.182-2.104,0.323-4.701,0.323c-2.594,0-4.698-0.142-4.698-0.323
			c0-0.18,2.104-0.322,4.698-0.322C17.053,29.005,19.158,29.147,19.158,29.327z"/>
		<path opacity="0.7769" fill="#444141" d="M19.104,29.327c0,0.18-2.08,0.32-4.647,0.32c-2.564,0-4.645-0.141-4.645-0.32
			c0-0.178,2.081-0.319,4.645-0.319C17.024,29.008,19.104,29.149,19.104,29.327z"/>
		<ellipse opacity="0.7808" fill="#434040" cx="14.458" cy="29.327" rx="4.593" ry="0.317"/>
		<path opacity="0.7846" fill="#423F3F" d="M18.998,29.327c0,0.177-2.033,0.314-4.541,0.314c-2.505,0-4.538-0.138-4.538-0.314
			c0-0.175,2.032-0.313,4.538-0.313C16.964,29.014,18.998,29.152,18.998,29.327z"/>
		<ellipse opacity="0.7885" fill="#413E3E" cx="14.458" cy="29.327" rx="4.486" ry="0.312"/>
		<path opacity="0.7923" fill="#403D3D" d="M18.89,29.327c0,0.174-1.984,0.309-4.434,0.309c-2.446,0-4.431-0.135-4.431-0.309
			c0-0.172,1.984-0.309,4.431-0.309C16.906,29.019,18.89,29.155,18.89,29.327z"/>
		<path opacity="0.7962" fill="#3F3C3C" d="M18.836,29.327c0,0.172-1.961,0.306-4.38,0.306c-2.417,0-4.377-0.134-4.377-0.306
			c0-0.17,1.96-0.306,4.377-0.306C16.875,29.021,18.836,29.157,18.836,29.327z"/>
		<ellipse opacity="0.8" fill="#3E3C3B" cx="14.458" cy="29.327" rx="4.325" ry="0.303"/>
		<path opacity="0.8038" fill="#3D3B3A" d="M18.729,29.327c0,0.169-1.912,0.301-4.272,0.301c-2.357,0-4.27-0.132-4.27-0.301
			c0-0.167,1.912-0.3,4.27-0.3C16.817,29.027,18.729,29.16,18.729,29.327z"/>
		<ellipse opacity="0.8077" fill="#3C3A39" cx="14.458" cy="29.327" rx="4.217" ry="0.298"/>
		<path opacity="0.8115" fill="#3B3938" d="M18.623,29.327c0,0.166-1.865,0.295-4.166,0.295c-2.298,0-4.163-0.129-4.163-0.295
			c0-0.164,1.864-0.294,4.163-0.294C16.757,29.033,18.623,29.163,18.623,29.327z"/>
		<path opacity="0.8154" fill="#3A3837" d="M18.569,29.327c0,0.164-1.841,0.292-4.112,0.292c-2.269,0-4.109-0.128-4.109-0.292
			c0-0.162,1.84-0.291,4.109-0.291C16.728,29.036,18.569,29.165,18.569,29.327z"/>
		<ellipse opacity="0.8192" fill="#393736" cx="14.458" cy="29.327" rx="4.057" ry="0.289"/>
		<path opacity="0.8231" fill="#383635" d="M18.461,29.327c0,0.161-1.793,0.286-4.005,0.286c-2.209,0-4.001-0.125-4.001-0.286
			c0-0.159,1.792-0.285,4.001-0.285C16.668,29.042,18.461,29.168,18.461,29.327z"/>
		<path opacity="0.8269" fill="#373534" d="M18.408,29.326c0,0.16-1.769,0.284-3.951,0.284c-2.18,0-3.948-0.124-3.948-0.284
			c0-0.156,1.768-0.282,3.948-0.282C16.639,29.044,18.408,29.17,18.408,29.326z"/>
		<path opacity="0.8308" fill="#363433" d="M18.354,29.326c0,0.159-1.744,0.281-3.897,0.281c-2.15,0-3.895-0.122-3.895-0.281
			c0-0.155,1.744-0.279,3.895-0.279C16.61,29.047,18.354,29.171,18.354,29.326z"/>
		<path opacity="0.8346" fill="#353332" d="M18.3,29.326c0,0.157-1.721,0.278-3.844,0.278c-2.121,0-3.841-0.121-3.841-0.278
			c0-0.153,1.72-0.276,3.841-0.276C16.58,29.05,18.3,29.173,18.3,29.326z"/>
		<path opacity="0.8385" fill="#343232" d="M18.247,29.326c0,0.155-1.696,0.275-3.79,0.275c-2.091,0-3.787-0.12-3.787-0.275
			c0-0.151,1.696-0.273,3.787-0.273C16.55,29.053,18.247,29.175,18.247,29.326z"/>
		<path opacity="0.8423" fill="#333131" d="M18.194,29.326c0,0.154-1.673,0.272-3.737,0.272c-2.062,0-3.734-0.118-3.734-0.272
			c0-0.15,1.672-0.271,3.734-0.271C16.521,29.056,18.194,29.176,18.194,29.326z"/>
		<path opacity="0.8462" fill="#323030" d="M18.14,29.326c0,0.152-1.649,0.27-3.684,0.27c-2.032,0-3.68-0.117-3.68-0.27
			c0-0.148,1.648-0.268,3.68-0.268C16.491,29.059,18.14,29.178,18.14,29.326z"/>
		<path opacity="0.85" fill="#312F2F" d="M18.086,29.326c0,0.151-1.625,0.268-3.63,0.268c-2.002,0-3.626-0.116-3.626-0.268
			c0-0.147,1.624-0.265,3.626-0.265C16.461,29.062,18.086,29.179,18.086,29.326z"/>
		<path opacity="0.8538" fill="#302E2E" d="M18.033,29.326c0,0.149-1.601,0.265-3.576,0.265c-1.973,0-3.573-0.115-3.573-0.265
			c0-0.146,1.6-0.262,3.573-0.262C16.432,29.064,18.033,29.181,18.033,29.326z"/>
		<path opacity="0.8577" fill="#2F2D2D" d="M17.979,29.326c0,0.147-1.577,0.262-3.522,0.262c-1.943,0-3.519-0.114-3.519-0.262
			c0-0.144,1.576-0.259,3.519-0.259C16.402,29.067,17.979,29.183,17.979,29.326z"/>
		<path opacity="0.8615" fill="#2E2C2C" d="M17.925,29.326c0,0.146-1.553,0.259-3.469,0.259c-1.914,0-3.466-0.112-3.466-0.259
			c0-0.143,1.552-0.256,3.466-0.256C16.373,29.07,17.925,29.184,17.925,29.326z"/>
		<path opacity="0.8654" fill="#2D2B2B" d="M17.872,29.326c0,0.145-1.528,0.256-3.415,0.256c-1.884,0-3.412-0.111-3.412-0.256
			c0-0.141,1.528-0.254,3.412-0.254C16.343,29.072,17.872,29.186,17.872,29.326z"/>
		<path opacity="0.8692" fill="#2C2A2A" d="M17.819,29.326c0,0.144-1.506,0.253-3.362,0.253c-1.854,0-3.358-0.109-3.358-0.253
			c0-0.14,1.504-0.251,3.358-0.251C16.313,29.075,17.819,29.187,17.819,29.326z"/>
		<path opacity="0.8731" fill="#2B2929" d="M17.765,29.326c0,0.142-1.481,0.25-3.309,0.25c-1.825,0-3.305-0.108-3.305-0.25
			c0-0.138,1.479-0.248,3.305-0.248C16.284,29.078,17.765,29.188,17.765,29.326z"/>
		<path opacity="0.8769" fill="#2A2928" d="M17.711,29.326c0,0.14-1.457,0.247-3.255,0.247c-1.795,0-3.251-0.107-3.251-0.247
			c0-0.136,1.456-0.245,3.251-0.245C16.254,29.081,17.711,29.19,17.711,29.326z"/>
		<path opacity="0.8808" fill="#292827" d="M17.658,29.326c0,0.139-1.433,0.244-3.201,0.244c-1.766,0-3.198-0.105-3.198-0.244
			c0-0.135,1.432-0.242,3.198-0.242C16.225,29.084,17.658,29.191,17.658,29.326z"/>
		<path opacity="0.8846" fill="#282726" d="M17.604,29.326c0,0.137-1.409,0.241-3.147,0.241c-1.736,0-3.144-0.104-3.144-0.241
			c0-0.133,1.408-0.239,3.144-0.239C16.195,29.087,17.604,29.193,17.604,29.326z"/>
		<path opacity="0.8885" fill="#272625" d="M17.55,29.326c0,0.136-1.385,0.238-3.094,0.238c-1.707,0-3.09-0.103-3.09-0.238
			c0-0.132,1.384-0.236,3.09-0.236C16.166,29.09,17.55,29.194,17.55,29.326z"/>
		<path opacity="0.8923" fill="#262524" d="M17.497,29.326c0,0.134-1.36,0.236-3.04,0.236c-1.677,0-3.037-0.103-3.037-0.236
			c0-0.13,1.36-0.233,3.037-0.233C16.136,29.093,17.497,29.196,17.497,29.326z"/>
		<path opacity="0.8962" fill="#242423" d="M17.443,29.326c0,0.132-1.337,0.233-2.986,0.233c-1.647,0-2.983-0.102-2.983-0.233
			c0-0.128,1.336-0.23,2.983-0.23C16.106,29.096,17.443,29.198,17.443,29.326z"/>
		<path opacity="0.9" fill="#232322" d="M17.39,29.326c0,0.131-1.313,0.23-2.934,0.23c-1.618,0-2.93-0.1-2.93-0.23
			c0-0.127,1.312-0.228,2.93-0.228C16.077,29.099,17.39,29.199,17.39,29.326z"/>
		<path opacity="0.9038" fill="#222221" d="M17.336,29.326c0,0.129-1.289,0.228-2.88,0.228c-1.588,0-2.876-0.099-2.876-0.228
			c0-0.125,1.288-0.226,2.876-0.226C16.047,29.101,17.336,29.201,17.336,29.326z"/>
		<path opacity="0.9077" fill="#212120" d="M17.283,29.326c0,0.128-1.266,0.225-2.826,0.225c-1.559,0-2.822-0.097-2.822-0.225
			c0-0.124,1.264-0.223,2.822-0.223C16.017,29.104,17.283,29.202,17.283,29.326z"/>
		<path opacity="0.9115" fill="#201F1F" d="M17.229,29.326c0,0.126-1.241,0.222-2.772,0.222c-1.529,0-2.769-0.096-2.769-0.222
			c0-0.122,1.24-0.22,2.769-0.22C15.988,29.106,17.229,29.204,17.229,29.326z"/>
		<path opacity="0.9154" fill="#1F1E1E" d="M17.175,29.326c0,0.124-1.217,0.219-2.719,0.219c-1.5,0-2.715-0.095-2.715-0.219
			c0-0.12,1.216-0.217,2.715-0.217C15.958,29.109,17.175,29.206,17.175,29.326z"/>
		<path opacity="0.9192" fill="#1E1D1D" d="M17.122,29.326c0,0.123-1.193,0.216-2.665,0.216c-1.47,0-2.662-0.093-2.662-0.216
			c0-0.119,1.192-0.214,2.662-0.214C15.928,29.112,17.122,29.207,17.122,29.326z"/>
		<path opacity="0.9231" fill="#1D1C1C" d="M17.068,29.326c0,0.121-1.169,0.213-2.611,0.213c-1.44,0-2.608-0.092-2.608-0.213
			c0-0.117,1.167-0.211,2.608-0.211C15.899,29.115,17.068,29.209,17.068,29.326z"/>
		<path opacity="0.9269" fill="#1C1B1B" d="M17.014,29.326c0,0.119-1.145,0.21-2.558,0.21c-1.411,0-2.555-0.091-2.555-0.21
			c0-0.115,1.144-0.208,2.555-0.208C15.87,29.118,17.014,29.211,17.014,29.326z"/>
		<path opacity="0.9308" fill="#1B1A1A" d="M16.961,29.326c0,0.118-1.121,0.207-2.505,0.207c-1.381,0-2.501-0.089-2.501-0.207
			c0-0.114,1.12-0.205,2.501-0.205C15.84,29.121,16.961,29.212,16.961,29.326z"/>
		<path opacity="0.9346" fill="#1A1919" d="M16.908,29.326c0,0.116-1.098,0.205-2.451,0.205c-1.352,0-2.447-0.089-2.447-0.205
			c0-0.112,1.096-0.202,2.447-0.202C15.81,29.124,16.908,29.214,16.908,29.326z"/>
		<path opacity="0.9385" fill="#181818" d="M16.854,29.326c0,0.115-1.073,0.202-2.397,0.202c-1.322,0-2.394-0.087-2.394-0.202
			c0-0.111,1.072-0.199,2.394-0.199C15.781,29.127,16.854,29.215,16.854,29.326z"/>
		<path opacity="0.9423" fill="#171717" d="M16.8,29.326c0,0.113-1.049,0.199-2.344,0.199c-1.292,0-2.34-0.086-2.34-0.199
			c0-0.109,1.048-0.197,2.34-0.197C15.751,29.129,16.8,29.217,16.8,29.326z"/>
		<path opacity="0.9462" fill="#161616" d="M16.747,29.326c0,0.111-1.025,0.196-2.29,0.196c-1.263,0-2.287-0.085-2.287-0.196
			c0-0.107,1.024-0.194,2.287-0.194C15.721,29.132,16.747,29.219,16.747,29.326z"/>
		<path opacity="0.95" fill="#151414" d="M16.693,29.326c0,0.11-1.001,0.193-2.236,0.193c-1.233,0-2.233-0.083-2.233-0.193
			c0-0.106,1-0.191,2.233-0.191C15.692,29.135,16.693,29.22,16.693,29.326z"/>
		<path opacity="0.9538" fill="#131313" d="M16.639,29.326c0,0.108-0.977,0.19-2.183,0.19c-1.204,0-2.179-0.082-2.179-0.19
			c0-0.104,0.976-0.188,2.179-0.188C15.663,29.138,16.639,29.222,16.639,29.326z"/>
		<path opacity="0.9577" fill="#121212" d="M16.586,29.326c0,0.107-0.954,0.188-2.13,0.188c-1.174,0-2.125-0.08-2.125-0.188
			c0-0.104,0.951-0.186,2.125-0.186C15.632,29.141,16.586,29.223,16.586,29.326z"/>
		<path opacity="0.9615" fill="#111111" d="M16.533,29.326c0,0.105-0.93,0.185-2.076,0.185c-1.145,0-2.072-0.079-2.072-0.185
			c0-0.102,0.928-0.183,2.072-0.183C15.603,29.144,16.533,29.225,16.533,29.326z"/>
		<path opacity="0.9654" fill="#0F0F0F" d="M16.479,29.326c0,0.104-0.905,0.182-2.022,0.182c-1.115,0-2.019-0.078-2.019-0.182
			c0-0.1,0.904-0.18,2.019-0.18C15.574,29.146,16.479,29.227,16.479,29.326z"/>
		<path opacity="0.9692" fill="#0E0E0E" d="M16.425,29.326c0,0.103-0.882,0.179-1.969,0.179c-1.085,0-1.965-0.076-1.965-0.179
			c0-0.099,0.879-0.177,1.965-0.177C15.543,29.149,16.425,29.228,16.425,29.326z"/>
		<path opacity="0.9731" fill="#0C0C0C" d="M16.372,29.326c0,0.101-0.857,0.176-1.915,0.176c-1.056,0-1.911-0.075-1.911-0.176
			c0-0.097,0.855-0.174,1.911-0.174C15.514,29.152,16.372,29.229,16.372,29.326z"/>
		<path opacity="0.9769" fill="#0B0B0B" d="M16.318,29.326c0,0.1-0.833,0.173-1.861,0.173c-1.026,0-1.858-0.073-1.858-0.173
			c0-0.096,0.832-0.171,1.858-0.171C15.485,29.155,16.318,29.23,16.318,29.326z"/>
		<path opacity="0.9808" fill="#090909" d="M16.264,29.326c0,0.098-0.809,0.171-1.808,0.171c-0.997,0-1.804-0.073-1.804-0.171
			c0-0.094,0.808-0.169,1.804-0.169C15.456,29.157,16.264,29.232,16.264,29.326z"/>
		<path opacity="0.9846" fill="#070807" d="M16.21,29.326c0,0.096-0.785,0.168-1.754,0.168c-0.967,0-1.75-0.072-1.75-0.168
			c0-0.092,0.784-0.166,1.75-0.166C15.425,29.16,16.21,29.234,16.21,29.326z"/>
		<path opacity="0.9885" fill="#060606" d="M16.158,29.326c0,0.095-0.762,0.165-1.701,0.165c-0.938,0-1.697-0.07-1.697-0.165
			c0-0.091,0.759-0.163,1.697-0.163C15.396,29.163,16.158,29.235,16.158,29.326z"/>
		<path opacity="0.9923" fill="#040404" d="M16.104,29.326c0,0.093-0.737,0.162-1.647,0.162c-0.908,0-1.644-0.069-1.644-0.162
			c0-0.089,0.736-0.16,1.644-0.16C15.367,29.166,16.104,29.237,16.104,29.326z"/>
		<path opacity="0.9962" fill="#030303" d="M16.05,29.326c0,0.092-0.714,0.159-1.594,0.159c-0.878,0-1.59-0.067-1.59-0.159
			c0-0.088,0.711-0.157,1.59-0.157C15.336,29.169,16.05,29.238,16.05,29.326z"/>
		<path fill="#010101" d="M15.997,29.326c0,0.09-0.689,0.156-1.54,0.156c-0.849,0-1.536-0.066-1.536-0.156
			c0-0.086,0.688-0.154,1.536-0.154C15.307,29.172,15.997,29.24,15.997,29.326z"/>
	</g>

		<linearGradient id="SVGID_1_" gradientUnits="userSpaceOnUse" x1="5.0513" y1="21.209" x2="20.5609" y2="9.0312" gradientTransform="matrix(1.0423 0 0 1.0317 0.954 -1.7689)">
		<stop  offset="0" style="stop-color:#969696"/>
		<stop  offset="0.0046" style="stop-color:#979897"/>
		<stop  offset="0.1201" style="stop-color:#B5B5B4"/>
		<stop  offset="0.236" style="stop-color:#CFCECE"/>
		<stop  offset="0.3511" style="stop-color:#E3E2E2"/>
		<stop  offset="0.4651" style="stop-color:#EFEFEF"/>
		<stop  offset="0.5767" style="stop-color:#F4F4F4"/>
		<stop  offset="0.6953" style="stop-color:#EFEFEF"/>
		<stop  offset="0.8336" style="stop-color:#E1E1E1"/>
		<stop  offset="0.9811" style="stop-color:#CCCBCB"/>
		<stop  offset="1" style="stop-color:#C8C8C8"/>
	</linearGradient>
	<ellipse fill="url(#SVGID_1_)" cx="13.856" cy="14.178" rx="10.277" ry="10.172"/>

		<radialGradient id="SVGID_2_" cx="16.2808" cy="-518.3442" r="82.22" gradientTransform="matrix(0.1205 0 0 0.1196 12.2266 76.4428)" gradientUnits="userSpaceOnUse">
		<stop  offset="0" style="stop-color:#FFFFFF"/>
		<stop  offset="1" style="stop-color:#E1E1E1"/>
	</radialGradient>
	<path fill="url(#SVGID_2_)" d="M23.37,13.987c0,5.11-4.174,9.255-9.323,9.255c-5.15,0-9.323-4.145-9.323-9.255
		c0-5.104,4.173-9.249,9.323-9.249C19.196,4.738,23.37,8.883,23.37,13.987z"/>

		<radialGradient id="SVGID_3_" cx="-35.3135" cy="-562.2061" r="188.2038" gradientTransform="matrix(0.116 0 0 0.116 12.828 77.2681)" gradientUnits="userSpaceOnUse">
		<stop  offset="0" style="stop-color:#0E9246"/>
		<stop  offset="0.7397" style="stop-color:#37B551"/>
	</radialGradient>
	<path fill="url(#SVGID_3_)" d="M18.168,2.179c-1.883-2.036-5.088-2.171-7.126-0.294l-8.858,8.143
		c-2.039,1.88-2.176,5.086-0.297,7.127l8.146,8.857c1.879,2.041,5.085,2.174,7.128,0.299l8.855-8.15
		c2.039-1.877,2.174-5.081,0.297-7.123L18.168,2.179z M14.053,23.518c-5.25,0-9.509-4.26-9.509-9.512
		c0-5.25,4.259-9.508,9.509-9.508c5.256,0,9.51,4.258,9.51,9.508C23.563,19.258,19.309,23.518,14.053,23.518z"/>
	<linearGradient id="SVGID_4_" gradientUnits="userSpaceOnUse" x1="-4.3164" y1="12.8384" x2="32.2059" y2="15.3322">
		<stop  offset="0" style="stop-color:#37B551"/>
		<stop  offset="1" style="stop-color:#0E9246"/>
	</linearGradient>
	<path fill="url(#SVGID_4_)" d="M17.946,1.511c-1.748-1.902-4.73-2.023-6.631-0.275l-9.802,9.017
		c-1.9,1.747-2.025,4.731-0.276,6.629l9.015,9.803c1.749,1.898,4.734,2.021,6.632,0.275l9.803-9.016
		c1.9-1.752,2.025-4.731,0.277-6.63L17.946,1.511z M14.053,24.121c-5.587,0-10.117-4.531-10.117-10.115
		c0-5.589,4.53-10.116,10.117-10.116c5.588,0,10.164,4.421,10.164,10.009S19.641,24.121,14.053,24.121z"/>
	<g>
		<path fill="#FFFFFF" d="M3.936,13.773c-0.014,1.438,0.272,2.941,0.755,4.025c-0.382-1.055-0.596-2.719-0.584-4.12
			c0.01-1.389,0.291-2.706,0.685-3.754C4.264,11.002,3.95,12.339,3.936,13.773z"/>
	</g>
	<g>
		<path fill="#FFFFFF" d="M0.14,13.638c-0.009,0.91,0.283,1.858,0.768,2.544c-0.384-0.667-0.604-1.717-0.596-2.599
			c0.008-0.879,0.28-1.708,0.672-2.365C0.46,11.894,0.149,12.734,0.14,13.638z"/>
	</g>
	<path fill="#FFFFFF" d="M21.526,20.787c0.275-0.289,0.654-0.803,0.887-1.135c0.631-0.891,1.096-1.93,1.391-2.977
		c0.17-0.596,0.289-1.217,0.359-1.829c0.063-0.58,0.068-1.173,0.021-1.753c-0.039-0.557-0.199-1.606-0.41-2.064
		c0.227,0.552,0.273,1.661,0.273,2.245c0,2.191-0.596,4.31-1.754,6.169c-0.307,0.498-0.662,0.971-1.043,1.416
		c-0.355,0.418-0.871,0.867-1.256,1.256C20.731,21.563,21.038,21.297,21.526,20.787z"/>
	<path opacity="0.49" fill="#FFFFFF" d="M14.612,19.211c3.955,0,7.383-2.791,8.723-6.228c0.021,0.245,0.041,0.88,0.041,1.136
		c0,5.059-4.219,9.123-9.353,9.123c-5.136,0-9.295-4.104-9.295-9.163c0-1.164,0.088-2.193,0.487-3.216
		C5.598,15.574,9.732,19.211,14.612,19.211z"/>
	<g>
		<g>
			<g>
				<rect x="13.638" y="11.737" fill-rule="evenodd" clip-rule="evenodd" width="0.313" height="0.019"/>
				<rect x="13.638" y="11.784" fill-rule="evenodd" clip-rule="evenodd" width="0.313" height="0.023"/>
				<rect x="13.638" y="11.839" fill-rule="evenodd" clip-rule="evenodd" width="0.313" height="0.018"/>
				<rect x="13.638" y="11.888" fill-rule="evenodd" clip-rule="evenodd" width="0.313" height="0.02"/>
				<rect x="13.638" y="11.936" fill-rule="evenodd" clip-rule="evenodd" width="0.491" height="0.037"/>
				<rect x="13.638" y="11.999" fill-rule="evenodd" clip-rule="evenodd" width="0.313" height="0.02"/>
				<rect x="13.638" y="12.052" fill-rule="evenodd" clip-rule="evenodd" width="0.313" height="0.018"/>
				<rect x="13.638" y="12.104" fill-rule="evenodd" clip-rule="evenodd" width="0.313" height="0.018"/>
				<rect x="13.638" y="12.151" fill-rule="evenodd" clip-rule="evenodd" width="0.313" height="0.02"/>
				<rect x="13.638" y="12.202" fill-rule="evenodd" clip-rule="evenodd" width="0.491" height="0.036"/>
				<rect x="13.638" y="12.266" fill-rule="evenodd" clip-rule="evenodd" width="0.313" height="0.019"/>
				<rect x="13.638" y="12.317" fill-rule="evenodd" clip-rule="evenodd" width="0.313" height="0.019"/>
				<rect x="13.638" y="12.364" fill-rule="evenodd" clip-rule="evenodd" width="0.313" height="0.021"/>
				<rect x="13.638" y="12.414" fill-rule="evenodd" clip-rule="evenodd" width="0.313" height="0.019"/>
				<rect x="13.638" y="12.466" fill-rule="evenodd" clip-rule="evenodd" width="0.491" height="0.034"/>
				<rect x="13.638" y="12.529" fill-rule="evenodd" clip-rule="evenodd" width="0.313" height="0.019"/>
				<rect x="13.638" y="12.579" fill-rule="evenodd" clip-rule="evenodd" width="0.313" height="0.019"/>
				<rect x="13.638" y="12.629" fill-rule="evenodd" clip-rule="evenodd" width="0.313" height="0.019"/>
				<rect x="13.638" y="12.681" fill-rule="evenodd" clip-rule="evenodd" width="0.313" height="0.019"/>
				<rect x="13.638" y="12.731" fill-rule="evenodd" clip-rule="evenodd" width="0.491" height="0.032"/>
				<rect x="13.638" y="12.792" fill-rule="evenodd" clip-rule="evenodd" width="0.313" height="0.021"/>
				<rect x="13.638" y="12.84" fill-rule="evenodd" clip-rule="evenodd" width="0.313" height="0.021"/>
				<rect x="13.638" y="12.893" fill-rule="evenodd" clip-rule="evenodd" width="0.313" height="0.021"/>
				<rect x="13.638" y="12.942" fill-rule="evenodd" clip-rule="evenodd" width="0.313" height="0.02"/>
				<rect x="13.638" y="12.993" fill-rule="evenodd" clip-rule="evenodd" width="0.491" height="0.032"/>
				<rect x="13.638" y="13.054" fill-rule="evenodd" clip-rule="evenodd" width="0.313" height="0.021"/>
				<rect x="13.638" y="13.107" fill-rule="evenodd" clip-rule="evenodd" width="0.313" height="0.02"/>
				<rect x="13.638" y="13.158" fill-rule="evenodd" clip-rule="evenodd" width="0.313" height="0.019"/>
				<rect x="13.638" y="13.209" fill-rule="evenodd" clip-rule="evenodd" width="0.313" height="0.015"/>
				<rect x="13.638" y="13.259" fill-rule="evenodd" clip-rule="evenodd" width="0.491" height="0.028"/>
				<rect x="13.638" y="13.321" fill-rule="evenodd" clip-rule="evenodd" width="0.313" height="0.018"/>
				<rect x="13.638" y="13.37" fill-rule="evenodd" clip-rule="evenodd" width="0.313" height="0.02"/>
				<rect x="13.638" y="13.421" fill-rule="evenodd" clip-rule="evenodd" width="0.313" height="0.018"/>
				<rect x="13.638" y="13.472" fill-rule="evenodd" clip-rule="evenodd" width="0.313" height="0.018"/>
				<rect x="13.638" y="13.522" fill-rule="evenodd" clip-rule="evenodd" width="0.491" height="0.034"/>
				<rect x="13.638" y="13.586" fill-rule="evenodd" clip-rule="evenodd" width="0.313" height="0.019"/>
				<rect x="13.638" y="13.633" fill-rule="evenodd" clip-rule="evenodd" width="0.313" height="0.019"/>
				<rect x="13.638" y="13.685" fill-rule="evenodd" clip-rule="evenodd" width="0.313" height="0.021"/>
				<rect x="13.638" y="13.737" fill-rule="evenodd" clip-rule="evenodd" width="0.313" height="0.02"/>
				<rect x="13.638" y="13.785" fill-rule="evenodd" clip-rule="evenodd" width="0.491" height="0.033"/>
				<rect x="13.638" y="13.846" fill-rule="evenodd" clip-rule="evenodd" width="0.313" height="0.021"/>
				<rect x="13.638" y="13.898" fill-rule="evenodd" clip-rule="evenodd" width="0.313" height="0.019"/>
				<rect x="13.638" y="13.95" fill-rule="evenodd" clip-rule="evenodd" width="0.313" height="0.019"/>
				<rect x="13.638" y="13.999" fill-rule="evenodd" clip-rule="evenodd" width="0.313" height="0.02"/>
				<rect x="13.638" y="14.05" fill-rule="evenodd" clip-rule="evenodd" width="0.491" height="0.033"/>
				<rect x="13.638" y="14.11" fill-rule="evenodd" clip-rule="evenodd" width="0.313" height="0.02"/>
				<rect x="13.638" y="14.166" fill-rule="evenodd" clip-rule="evenodd" width="0.313" height="0.018"/>
				<rect x="13.638" y="14.213" fill-rule="evenodd" clip-rule="evenodd" width="0.313" height="0.021"/>
				<rect x="13.638" y="14.263" fill-rule="evenodd" clip-rule="evenodd" width="0.313" height="0.019"/>
				<rect x="13.638" y="14.313" fill-rule="evenodd" clip-rule="evenodd" width="0.491" height="0.032"/>
				<rect x="13.638" y="14.379" fill-rule="evenodd" clip-rule="evenodd" width="0.313" height="0.017"/>
				<rect x="13.638" y="14.427" fill-rule="evenodd" clip-rule="evenodd" width="0.313" height="0.019"/>
				<rect x="13.638" y="14.478" fill-rule="evenodd" clip-rule="evenodd" width="0.313" height="0.019"/>
				<rect x="13.638" y="14.528" fill-rule="evenodd" clip-rule="evenodd" width="0.313" height="0.02"/>
				<rect x="13.638" y="14.576" fill-rule="evenodd" clip-rule="evenodd" width="0.491" height="0.036"/>
				<rect x="13.638" y="14.64" fill-rule="evenodd" clip-rule="evenodd" width="0.313" height="0.02"/>
				<rect x="13.638" y="14.691" fill-rule="evenodd" clip-rule="evenodd" width="0.313" height="0.017"/>
				<rect x="13.638" y="14.74" fill-rule="evenodd" clip-rule="evenodd" width="0.313" height="0.02"/>
				<rect x="13.638" y="14.787" fill-rule="evenodd" clip-rule="evenodd" width="0.313" height="0.022"/>
				<rect x="13.638" y="14.842" fill-rule="evenodd" clip-rule="evenodd" width="0.491" height="0.036"/>
				<rect x="13.638" y="14.902" fill-rule="evenodd" clip-rule="evenodd" width="0.313" height="0.02"/>
				<rect x="13.638" y="14.953" fill-rule="evenodd" clip-rule="evenodd" width="0.313" height="0.021"/>
				<rect x="13.638" y="15.003" fill-rule="evenodd" clip-rule="evenodd" width="0.313" height="0.022"/>
				<rect x="13.638" y="15.055" fill-rule="evenodd" clip-rule="evenodd" width="0.313" height="0.019"/>
				<rect x="13.638" y="15.108" fill-rule="evenodd" clip-rule="evenodd" width="0.491" height="0.029"/>
				<rect x="13.638" y="15.169" fill-rule="evenodd" clip-rule="evenodd" width="0.313" height="0.019"/>
				<rect x="13.638" y="15.215" fill-rule="evenodd" clip-rule="evenodd" width="0.313" height="0.022"/>
				<rect x="13.638" y="15.269" fill-rule="evenodd" clip-rule="evenodd" width="0.313" height="0.02"/>
				<rect x="13.638" y="15.32" fill-rule="evenodd" clip-rule="evenodd" width="0.313" height="0.019"/>
				<rect x="13.638" y="15.37" fill-rule="evenodd" clip-rule="evenodd" width="0.491" height="0.032"/>
				<rect x="13.638" y="15.431" fill-rule="evenodd" clip-rule="evenodd" width="0.313" height="0.022"/>
				<rect x="13.638" y="15.481" fill-rule="evenodd" clip-rule="evenodd" width="0.313" height="0.021"/>
				<rect x="13.638" y="15.533" fill-rule="evenodd" clip-rule="evenodd" width="0.313" height="0.018"/>
				<rect x="13.638" y="15.584" fill-rule="evenodd" clip-rule="evenodd" width="0.313" height="0.017"/>
				<rect x="13.638" y="15.632" fill-rule="evenodd" clip-rule="evenodd" width="0.491" height="0.037"/>
				<rect x="13.638" y="15.697" fill-rule="evenodd" clip-rule="evenodd" width="0.313" height="0.018"/>
				<rect x="13.638" y="15.745" fill-rule="evenodd" clip-rule="evenodd" width="0.313" height="0.021"/>
				<rect x="13.638" y="15.797" fill-rule="evenodd" clip-rule="evenodd" width="0.313" height="0.018"/>
				<rect x="13.638" y="15.846" fill-rule="evenodd" clip-rule="evenodd" width="0.313" height="0.021"/>
				<rect x="13.638" y="15.896" fill-rule="evenodd" clip-rule="evenodd" width="0.491" height="0.035"/>
				<rect x="13.638" y="15.96" fill-rule="evenodd" clip-rule="evenodd" width="0.313" height="0.019"/>
				<rect x="13.638" y="16.01" fill-rule="evenodd" clip-rule="evenodd" width="0.313" height="0.02"/>
				<rect x="13.638" y="16.059" fill-rule="evenodd" clip-rule="evenodd" width="0.313" height="0.021"/>
				<rect x="13.638" y="16.113" fill-rule="evenodd" clip-rule="evenodd" width="0.313" height="0.02"/>
				<rect x="13.638" y="16.164" fill-rule="evenodd" clip-rule="evenodd" width="0.491" height="0.027"/>
				<rect x="13.638" y="16.223" fill-rule="evenodd" clip-rule="evenodd" width="0.313" height="0.021"/>
				<rect x="13.638" y="16.273" fill-rule="evenodd" clip-rule="evenodd" width="0.313" height="0.02"/>
				<rect x="13.638" y="16.328" fill-rule="evenodd" clip-rule="evenodd" width="0.313" height="0.014"/>
				<rect x="13.638" y="16.377" fill-rule="evenodd" clip-rule="evenodd" width="0.313" height="0.02"/>
				<rect x="13.638" y="16.426" fill-rule="evenodd" clip-rule="evenodd" width="0.491" height="0.031"/>
				<rect x="13.638" y="16.486" fill-rule="evenodd" clip-rule="evenodd" width="0.313" height="0.021"/>
				<rect x="13.638" y="16.539" fill-rule="evenodd" clip-rule="evenodd" width="0.313" height="0.02"/>
				<rect x="13.638" y="16.59" fill-rule="evenodd" clip-rule="evenodd" width="0.313" height="0.02"/>
				<rect x="13.638" y="16.641" fill-rule="evenodd" clip-rule="evenodd" width="0.313" height="0.018"/>
				<rect x="13.638" y="16.688" fill-rule="evenodd" clip-rule="evenodd" width="0.491" height="0.037"/>
			</g>
			<path d="M15.6,16.305v-5.094h-2.662v5.094c0,0.73,0.599,1.324,1.331,1.324C15.005,17.629,15.6,17.035,15.6,16.305z
				 M15.524,16.199c0,0.689-0.558,1.248-1.255,1.248c-0.692,0-1.252-0.559-1.252-1.248v-4.806h2.507V16.199z"/>
			<g>
				<path d="M14.32,20.436l-0.065-2.932h0.153v3.809C14.408,21.205,14.406,20.961,14.32,20.436z"/>
			</g>
			<g>
				<rect x="13.782" y="8.146" width="0.748" height="2.824"/>
				<ellipse cx="14.156" cy="7.878" rx="1.417" ry="0.239"/>
			</g>
		</g>
		<g>
			<g>
				<rect x="13.636" y="11.778" fill-rule="evenodd" clip-rule="evenodd" fill="#FFFFFF" width="0.306" height="0.02"/>
				<rect x="13.636" y="11.828" fill-rule="evenodd" clip-rule="evenodd" fill="#FFFFFF" width="0.306" height="0.021"/>
				<rect x="13.636" y="11.88" fill-rule="evenodd" clip-rule="evenodd" fill="#FFFFFF" width="0.306" height="0.017"/>
				<rect x="13.636" y="11.927" fill-rule="evenodd" clip-rule="evenodd" fill="#FFFFFF" width="0.306" height="0.021"/>
				<rect x="13.636" y="11.978" fill-rule="evenodd" clip-rule="evenodd" fill="#FFFFFF" width="0.483" height="0.034"/>
				<rect x="13.636" y="12.041" fill-rule="evenodd" clip-rule="evenodd" fill="#FFFFFF" width="0.306" height="0.019"/>
				<rect x="13.636" y="12.091" fill-rule="evenodd" clip-rule="evenodd" fill="#FFFFFF" width="0.306" height="0.02"/>
				<rect x="13.636" y="12.143" fill-rule="evenodd" clip-rule="evenodd" fill="#FFFFFF" width="0.306" height="0.019"/>
				<rect x="13.636" y="12.188" fill-rule="evenodd" clip-rule="evenodd" fill="#FFFFFF" width="0.306" height="0.021"/>
				<rect x="13.636" y="12.238" fill-rule="evenodd" clip-rule="evenodd" fill="#FFFFFF" width="0.483" height="0.037"/>
				<rect x="13.636" y="12.303" fill-rule="evenodd" clip-rule="evenodd" fill="#FFFFFF" width="0.306" height="0.019"/>
				<rect x="13.636" y="12.354" fill-rule="evenodd" clip-rule="evenodd" fill="#FFFFFF" width="0.306" height="0.02"/>
				<rect x="13.636" y="12.403" fill-rule="evenodd" clip-rule="evenodd" fill="#FFFFFF" width="0.306" height="0.02"/>
				<rect x="13.636" y="12.453" fill-rule="evenodd" clip-rule="evenodd" fill="#FFFFFF" width="0.306" height="0.018"/>
				<rect x="13.636" y="12.503" fill-rule="evenodd" clip-rule="evenodd" fill="#FFFFFF" width="0.483" height="0.034"/>
				<rect x="13.636" y="12.565" fill-rule="evenodd" clip-rule="evenodd" fill="#FFFFFF" width="0.306" height="0.018"/>
				<rect x="13.636" y="12.614" fill-rule="evenodd" clip-rule="evenodd" fill="#FFFFFF" width="0.306" height="0.02"/>
				<rect x="13.636" y="12.663" fill-rule="evenodd" clip-rule="evenodd" fill="#FFFFFF" width="0.306" height="0.019"/>
				<rect x="13.636" y="12.713" fill-rule="evenodd" clip-rule="evenodd" fill="#FFFFFF" width="0.306" height="0.02"/>
				<rect x="13.636" y="12.765" fill-rule="evenodd" clip-rule="evenodd" fill="#FFFFFF" width="0.483" height="0.034"/>
				<rect x="13.636" y="12.826" fill-rule="evenodd" clip-rule="evenodd" fill="#FFFFFF" width="0.306" height="0.02"/>
				<rect x="13.636" y="12.875" fill-rule="evenodd" clip-rule="evenodd" fill="#FFFFFF" width="0.306" height="0.021"/>
				<rect x="13.636" y="12.928" fill-rule="evenodd" clip-rule="evenodd" fill="#FFFFFF" width="0.306" height="0.018"/>
				<rect x="13.636" y="12.979" fill-rule="evenodd" clip-rule="evenodd" fill="#FFFFFF" width="0.306" height="0.016"/>
				<rect x="13.636" y="13.025" fill-rule="evenodd" clip-rule="evenodd" fill="#FFFFFF" width="0.483" height="0.032"/>
				<rect x="13.636" y="13.086" fill-rule="evenodd" clip-rule="evenodd" fill="#FFFFFF" width="0.306" height="0.021"/>
				<rect x="13.636" y="13.139" fill-rule="evenodd" clip-rule="evenodd" fill="#FFFFFF" width="0.306" height="0.02"/>
				<rect x="13.636" y="13.19" fill-rule="evenodd" clip-rule="evenodd" fill="#FFFFFF" width="0.306" height="0.019"/>
				<rect x="13.636" y="13.24" fill-rule="evenodd" clip-rule="evenodd" fill="#FFFFFF" width="0.306" height="0.016"/>
				<rect x="13.636" y="13.287" fill-rule="evenodd" clip-rule="evenodd" fill="#FFFFFF" width="0.483" height="0.032"/>
				<rect x="13.636" y="13.353" fill-rule="evenodd" clip-rule="evenodd" fill="#FFFFFF" width="0.306" height="0.018"/>
				<rect x="13.636" y="13.399" fill-rule="evenodd" clip-rule="evenodd" fill="#FFFFFF" width="0.306" height="0.021"/>
				<rect x="13.636" y="13.451" fill-rule="evenodd" clip-rule="evenodd" fill="#FFFFFF" width="0.306" height="0.016"/>
				<rect x="13.636" y="13.5" fill-rule="evenodd" clip-rule="evenodd" fill="#FFFFFF" width="0.306" height="0.019"/>
				<rect x="13.636" y="13.55" fill-rule="evenodd" clip-rule="evenodd" fill="#FFFFFF" width="0.483" height="0.035"/>
				<rect x="13.636" y="13.614" fill-rule="evenodd" clip-rule="evenodd" fill="#FFFFFF" width="0.306" height="0.019"/>
				<rect x="13.636" y="13.66" fill-rule="evenodd" clip-rule="evenodd" fill="#FFFFFF" width="0.306" height="0.02"/>
				<rect x="13.636" y="13.711" fill-rule="evenodd" clip-rule="evenodd" fill="#FFFFFF" width="0.306" height="0.019"/>
				<rect x="13.636" y="13.764" fill-rule="evenodd" clip-rule="evenodd" fill="#FFFFFF" width="0.306" height="0.018"/>
				<rect x="13.636" y="13.813" fill-rule="evenodd" clip-rule="evenodd" fill="#FFFFFF" width="0.483" height="0.032"/>
				<rect x="13.636" y="13.872" fill-rule="evenodd" clip-rule="evenodd" fill="#FFFFFF" width="0.306" height="0.02"/>
				<rect x="13.636" y="13.924" fill-rule="evenodd" clip-rule="evenodd" fill="#FFFFFF" width="0.306" height="0.021"/>
				<rect x="13.636" y="13.975" fill-rule="evenodd" clip-rule="evenodd" fill="#FFFFFF" width="0.306" height="0.021"/>
				<rect x="13.636" y="14.023" fill-rule="evenodd" clip-rule="evenodd" fill="#FFFFFF" width="0.306" height="0.019"/>
				<rect x="13.636" y="14.073" fill-rule="evenodd" clip-rule="evenodd" fill="#FFFFFF" width="0.483" height="0.032"/>
				<rect x="13.636" y="14.137" fill-rule="evenodd" clip-rule="evenodd" fill="#FFFFFF" width="0.306" height="0.017"/>
				<rect x="13.636" y="14.188" fill-rule="evenodd" clip-rule="evenodd" fill="#FFFFFF" width="0.306" height="0.019"/>
				<rect x="13.636" y="14.235" fill-rule="evenodd" clip-rule="evenodd" fill="#FFFFFF" width="0.306" height="0.022"/>
				<rect x="13.636" y="14.286" fill-rule="evenodd" clip-rule="evenodd" fill="#FFFFFF" width="0.306" height="0.018"/>
				<rect x="13.636" y="14.335" fill-rule="evenodd" clip-rule="evenodd" fill="#FFFFFF" width="0.483" height="0.035"/>
				<rect x="13.636" y="14.4" fill-rule="evenodd" clip-rule="evenodd" fill="#FFFFFF" width="0.306" height="0.017"/>
				<rect x="13.636" y="14.446" fill-rule="evenodd" clip-rule="evenodd" fill="#FFFFFF" width="0.306" height="0.02"/>
				<rect x="13.636" y="14.498" fill-rule="evenodd" clip-rule="evenodd" fill="#FFFFFF" width="0.306" height="0.019"/>
				<rect x="13.636" y="14.549" fill-rule="evenodd" clip-rule="evenodd" fill="#FFFFFF" width="0.306" height="0.021"/>
				<rect x="13.636" y="14.598" fill-rule="evenodd" clip-rule="evenodd" fill="#FFFFFF" width="0.483" height="0.036"/>
				<rect x="13.636" y="14.662" fill-rule="evenodd" clip-rule="evenodd" fill="#FFFFFF" width="0.306" height="0.02"/>
				<rect x="13.636" y="14.711" fill-rule="evenodd" clip-rule="evenodd" fill="#FFFFFF" width="0.306" height="0.016"/>
				<rect x="13.636" y="14.759" fill-rule="evenodd" clip-rule="evenodd" fill="#FFFFFF" width="0.306" height="0.022"/>
				<rect x="13.636" y="14.806" fill-rule="evenodd" clip-rule="evenodd" fill="#FFFFFF" width="0.306" height="0.022"/>
				<rect x="13.636" y="14.86" fill-rule="evenodd" clip-rule="evenodd" fill="#FFFFFF" width="0.483" height="0.033"/>
				<rect x="13.636" y="14.921" fill-rule="evenodd" clip-rule="evenodd" fill="#FFFFFF" width="0.306" height="0.021"/>
				<rect x="13.636" y="14.973" fill-rule="evenodd" clip-rule="evenodd" fill="#FFFFFF" width="0.306" height="0.021"/>
				<rect x="13.636" y="15.021" fill-rule="evenodd" clip-rule="evenodd" fill="#FFFFFF" width="0.306" height="0.02"/>
				<rect x="13.636" y="15.071" fill-rule="evenodd" clip-rule="evenodd" fill="#FFFFFF" width="0.306" height="0.02"/>
				<rect x="13.636" y="15.123" fill-rule="evenodd" clip-rule="evenodd" fill="#FFFFFF" width="0.483" height="0.031"/>
				<rect x="13.636" y="15.183" fill-rule="evenodd" clip-rule="evenodd" fill="#FFFFFF" width="0.306" height="0.019"/>
				<rect x="13.636" y="15.232" fill-rule="evenodd" clip-rule="evenodd" fill="#FFFFFF" width="0.306" height="0.022"/>
				<rect x="13.636" y="15.284" fill-rule="evenodd" clip-rule="evenodd" fill="#FFFFFF" width="0.306" height="0.019"/>
				<rect x="13.636" y="15.335" fill-rule="evenodd" clip-rule="evenodd" fill="#FFFFFF" width="0.306" height="0.019"/>
				<rect x="13.636" y="15.386" fill-rule="evenodd" clip-rule="evenodd" fill="#FFFFFF" width="0.483" height="0.031"/>
				<rect x="13.636" y="15.445" fill-rule="evenodd" clip-rule="evenodd" fill="#FFFFFF" width="0.306" height="0.022"/>
				<rect x="13.636" y="15.496" fill-rule="evenodd" clip-rule="evenodd" fill="#FFFFFF" width="0.306" height="0.019"/>
				<rect x="13.636" y="15.547" fill-rule="evenodd" clip-rule="evenodd" fill="#FFFFFF" width="0.306" height="0.018"/>
				<rect x="13.636" y="15.597" fill-rule="evenodd" clip-rule="evenodd" fill="#FFFFFF" width="0.306" height="0.015"/>
				<rect x="13.636" y="15.645" fill-rule="evenodd" clip-rule="evenodd" fill="#FFFFFF" width="0.483" height="0.035"/>
				<rect x="13.636" y="15.708" fill-rule="evenodd" clip-rule="evenodd" fill="#FFFFFF" width="0.306" height="0.021"/>
				<rect x="13.636" y="15.758" fill-rule="evenodd" clip-rule="evenodd" fill="#FFFFFF" width="0.306" height="0.018"/>
				<rect x="13.636" y="15.807" fill-rule="evenodd" clip-rule="evenodd" fill="#FFFFFF" width="0.306" height="0.02"/>
				<rect x="13.636" y="15.858" fill-rule="evenodd" clip-rule="evenodd" fill="#FFFFFF" width="0.306" height="0.021"/>
				<rect x="13.636" y="15.908" fill-rule="evenodd" clip-rule="evenodd" fill="#FFFFFF" width="0.483" height="0.034"/>
				<rect x="13.636" y="15.969" fill-rule="evenodd" clip-rule="evenodd" fill="#FFFFFF" width="0.306" height="0.021"/>
				<rect x="13.636" y="16.02" fill-rule="evenodd" clip-rule="evenodd" fill="#FFFFFF" width="0.306" height="0.021"/>
				<rect x="13.636" y="16.07" fill-rule="evenodd" clip-rule="evenodd" fill="#FFFFFF" width="0.306" height="0.018"/>
				<rect x="13.636" y="16.121" fill-rule="evenodd" clip-rule="evenodd" fill="#FFFFFF" width="0.306" height="0.018"/>
				<rect x="13.636" y="16.17" fill-rule="evenodd" clip-rule="evenodd" fill="#FFFFFF" width="0.483" height="0.033"/>
				<rect x="13.636" y="16.232" fill-rule="evenodd" clip-rule="evenodd" fill="#FFFFFF" width="0.306" height="0.018"/>
				<rect x="13.636" y="16.283" fill-rule="evenodd" clip-rule="evenodd" fill="#FFFFFF" width="0.306" height="0.016"/>
				<rect x="13.636" y="16.334" fill-rule="evenodd" clip-rule="evenodd" fill="#FFFFFF" width="0.306" height="0.018"/>
				<rect x="13.636" y="16.383" fill-rule="evenodd" clip-rule="evenodd" fill="#FFFFFF" width="0.306" height="0.02"/>
				<rect x="13.636" y="16.434" fill-rule="evenodd" clip-rule="evenodd" fill="#FFFFFF" width="0.483" height="0.029"/>
				<rect x="13.636" y="16.492" fill-rule="evenodd" clip-rule="evenodd" fill="#FFFFFF" width="0.306" height="0.021"/>
				<rect x="13.636" y="16.545" fill-rule="evenodd" clip-rule="evenodd" fill="#FFFFFF" width="0.306" height="0.018"/>
				<rect x="13.636" y="16.596" fill-rule="evenodd" clip-rule="evenodd" fill="#FFFFFF" width="0.306" height="0.018"/>
				<rect x="13.636" y="16.643" fill-rule="evenodd" clip-rule="evenodd" fill="#FFFFFF" width="0.306" height="0.021"/>
				<rect x="13.636" y="16.695" fill-rule="evenodd" clip-rule="evenodd" fill="#FFFFFF" width="0.483" height="0.031"/>
			</g>
			<path fill="#FFFFFF" d="M15.573,16.313v-5.054h-2.629v5.054c0,0.725,0.589,1.313,1.315,1.313
				C14.985,17.625,15.573,17.037,15.573,16.313z M15.497,16.205c0,0.686-0.552,1.24-1.237,1.24c-0.686,0-1.239-0.555-1.239-1.24
				v-4.767h2.477V16.205z"/>
			<g>
				<path fill="#FFFFFF" d="M14.306,20.41l-0.062-2.908h0.151v3.779C14.396,21.176,14.392,20.934,14.306,20.41z"/>
			</g>
			<g>
				<rect x="13.776" y="8.215" fill="#FFFFFF" width="0.735" height="2.802"/>
				<ellipse fill="#FFFFFF" cx="14.145" cy="7.947" rx="1.4" ry="0.234"/>
			</g>
		</g>
		<g>
			<g>
				<rect x="13.651" y="11.789" fill-rule="evenodd" clip-rule="evenodd" width="0.304" height="0.019"/>
				<rect x="13.651" y="11.839" fill-rule="evenodd" clip-rule="evenodd" width="0.304" height="0.019"/>
				<rect x="13.651" y="11.888" fill-rule="evenodd" clip-rule="evenodd" width="0.304" height="0.019"/>
				<rect x="13.651" y="11.936" fill-rule="evenodd" clip-rule="evenodd" width="0.304" height="0.02"/>
				<rect x="13.651" y="11.985" fill-rule="evenodd" clip-rule="evenodd" width="0.483" height="0.033"/>
				<rect x="13.651" y="12.047" fill-rule="evenodd" clip-rule="evenodd" width="0.304" height="0.018"/>
				<rect x="13.651" y="12.098" fill-rule="evenodd" clip-rule="evenodd" width="0.304" height="0.017"/>
				<rect x="13.651" y="12.146" fill-rule="evenodd" clip-rule="evenodd" width="0.304" height="0.019"/>
				<rect x="13.651" y="12.196" fill-rule="evenodd" clip-rule="evenodd" width="0.304" height="0.02"/>
				<rect x="13.651" y="12.246" fill-rule="evenodd" clip-rule="evenodd" width="0.483" height="0.033"/>
				<rect x="13.651" y="12.308" fill-rule="evenodd" clip-rule="evenodd" width="0.304" height="0.018"/>
				<rect x="13.651" y="12.358" fill-rule="evenodd" clip-rule="evenodd" width="0.304" height="0.019"/>
				<rect x="13.651" y="12.404" fill-rule="evenodd" clip-rule="evenodd" width="0.304" height="0.021"/>
				<rect x="13.651" y="12.455" fill-rule="evenodd" clip-rule="evenodd" width="0.304" height="0.019"/>
				<rect x="13.651" y="12.505" fill-rule="evenodd" clip-rule="evenodd" width="0.483" height="0.032"/>
				<rect x="13.651" y="12.565" fill-rule="evenodd" clip-rule="evenodd" width="0.304" height="0.018"/>
				<rect x="13.651" y="12.616" fill-rule="evenodd" clip-rule="evenodd" width="0.304" height="0.018"/>
				<rect x="13.651" y="12.665" fill-rule="evenodd" clip-rule="evenodd" width="0.304" height="0.019"/>
				<rect x="13.651" y="12.713" fill-rule="evenodd" clip-rule="evenodd" width="0.304" height="0.019"/>
				<rect x="13.651" y="12.764" fill-rule="evenodd" clip-rule="evenodd" width="0.483" height="0.034"/>
				<rect x="13.651" y="12.824" fill-rule="evenodd" clip-rule="evenodd" width="0.304" height="0.018"/>
				<rect x="13.651" y="12.873" fill-rule="evenodd" clip-rule="evenodd" width="0.304" height="0.02"/>
				<rect x="13.651" y="12.923" fill-rule="evenodd" clip-rule="evenodd" width="0.304" height="0.02"/>
				<rect x="13.651" y="12.972" fill-rule="evenodd" clip-rule="evenodd" width="0.304" height="0.021"/>
				<rect x="13.651" y="13.022" fill-rule="evenodd" clip-rule="evenodd" width="0.483" height="0.031"/>
				<rect x="13.651" y="13.084" fill-rule="evenodd" clip-rule="evenodd" width="0.304" height="0.018"/>
				<rect x="13.651" y="13.131" fill-rule="evenodd" clip-rule="evenodd" width="0.304" height="0.02"/>
				<rect x="13.651" y="13.182" fill-rule="evenodd" clip-rule="evenodd" width="0.304" height="0.019"/>
				<rect x="13.651" y="13.232" fill-rule="evenodd" clip-rule="evenodd" width="0.304" height="0.018"/>
				<rect x="13.651" y="13.282" fill-rule="evenodd" clip-rule="evenodd" width="0.483" height="0.031"/>
				<rect x="13.651" y="13.343" fill-rule="evenodd" clip-rule="evenodd" width="0.304" height="0.018"/>
				<rect x="13.651" y="13.392" fill-rule="evenodd" clip-rule="evenodd" width="0.304" height="0.02"/>
				<rect x="13.651" y="13.442" fill-rule="evenodd" clip-rule="evenodd" width="0.304" height="0.017"/>
				<rect x="13.651" y="13.49" fill-rule="evenodd" clip-rule="evenodd" width="0.304" height="0.019"/>
				<rect x="13.651" y="13.54" fill-rule="evenodd" clip-rule="evenodd" width="0.483" height="0.032"/>
				<rect x="13.651" y="13.602" fill-rule="evenodd" clip-rule="evenodd" width="0.304" height="0.021"/>
				<rect x="13.651" y="13.65" fill-rule="evenodd" clip-rule="evenodd" width="0.304" height="0.019"/>
				<rect x="13.651" y="13.698" fill-rule="evenodd" clip-rule="evenodd" width="0.304" height="0.021"/>
				<rect x="13.651" y="13.749" fill-rule="evenodd" clip-rule="evenodd" width="0.304" height="0.018"/>
				<rect x="13.651" y="13.799" fill-rule="evenodd" clip-rule="evenodd" width="0.483" height="0.032"/>
				<rect x="13.651" y="13.858" fill-rule="evenodd" clip-rule="evenodd" width="0.304" height="0.022"/>
				<rect x="13.651" y="13.908" fill-rule="evenodd" clip-rule="evenodd" width="0.304" height="0.02"/>
				<rect x="13.651" y="13.959" fill-rule="evenodd" clip-rule="evenodd" width="0.304" height="0.02"/>
				<rect x="13.651" y="14.01" fill-rule="evenodd" clip-rule="evenodd" width="0.304" height="0.019"/>
				<rect x="13.651" y="14.056" fill-rule="evenodd" clip-rule="evenodd" width="0.483" height="0.036"/>
				<rect x="13.651" y="14.119" fill-rule="evenodd" clip-rule="evenodd" width="0.304" height="0.019"/>
				<rect x="13.651" y="14.169" fill-rule="evenodd" clip-rule="evenodd" width="0.304" height="0.017"/>
				<rect x="13.651" y="14.217" fill-rule="evenodd" clip-rule="evenodd" width="0.304" height="0.02"/>
				<rect x="13.651" y="14.268" fill-rule="evenodd" clip-rule="evenodd" width="0.304" height="0.02"/>
				<rect x="13.651" y="14.317" fill-rule="evenodd" clip-rule="evenodd" width="0.483" height="0.033"/>
				<rect x="13.651" y="14.379" fill-rule="evenodd" clip-rule="evenodd" width="0.304" height="0.018"/>
				<rect x="13.651" y="14.428" fill-rule="evenodd" clip-rule="evenodd" width="0.304" height="0.018"/>
				<rect x="13.651" y="14.478" fill-rule="evenodd" clip-rule="evenodd" width="0.304" height="0.019"/>
				<rect x="13.651" y="14.526" fill-rule="evenodd" clip-rule="evenodd" width="0.304" height="0.019"/>
				<rect x="13.651" y="14.576" fill-rule="evenodd" clip-rule="evenodd" width="0.483" height="0.033"/>
				<rect x="13.651" y="14.639" fill-rule="evenodd" clip-rule="evenodd" width="0.304" height="0.016"/>
				<rect x="13.651" y="14.686" fill-rule="evenodd" clip-rule="evenodd" width="0.304" height="0.019"/>
				<rect x="13.651" y="14.736" fill-rule="evenodd" clip-rule="evenodd" width="0.304" height="0.021"/>
				<rect x="13.651" y="14.783" fill-rule="evenodd" clip-rule="evenodd" width="0.304" height="0.021"/>
				<rect x="13.651" y="14.833" fill-rule="evenodd" clip-rule="evenodd" width="0.483" height="0.036"/>
				<rect x="13.651" y="14.894" fill-rule="evenodd" clip-rule="evenodd" width="0.304" height="0.021"/>
				<rect x="13.651" y="14.943" fill-rule="evenodd" clip-rule="evenodd" width="0.304" height="0.022"/>
				<rect x="13.651" y="14.994" fill-rule="evenodd" clip-rule="evenodd" width="0.304" height="0.019"/>
				<rect x="13.651" y="15.044" fill-rule="evenodd" clip-rule="evenodd" width="0.304" height="0.02"/>
				<rect x="13.651" y="15.095" fill-rule="evenodd" clip-rule="evenodd" width="0.483" height="0.03"/>
				<rect x="13.651" y="15.154" fill-rule="evenodd" clip-rule="evenodd" width="0.304" height="0.019"/>
				<rect x="13.651" y="15.204" fill-rule="evenodd" clip-rule="evenodd" width="0.304" height="0.02"/>
				<rect x="13.651" y="15.253" fill-rule="evenodd" clip-rule="evenodd" width="0.304" height="0.021"/>
				<rect x="13.651" y="15.303" fill-rule="evenodd" clip-rule="evenodd" width="0.304" height="0.018"/>
				<rect x="13.651" y="15.354" fill-rule="evenodd" clip-rule="evenodd" width="0.483" height="0.032"/>
				<rect x="13.651" y="15.413" fill-rule="evenodd" clip-rule="evenodd" width="0.304" height="0.019"/>
				<rect x="13.651" y="15.462" fill-rule="evenodd" clip-rule="evenodd" width="0.304" height="0.02"/>
				<rect x="13.651" y="15.514" fill-rule="evenodd" clip-rule="evenodd" width="0.304" height="0.019"/>
				<rect x="13.651" y="15.564" fill-rule="evenodd" clip-rule="evenodd" width="0.304" height="0.015"/>
				<rect x="13.651" y="15.61" fill-rule="evenodd" clip-rule="evenodd" width="0.483" height="0.034"/>
				<rect x="13.651" y="15.671" fill-rule="evenodd" clip-rule="evenodd" width="0.304" height="0.021"/>
				<rect x="13.651" y="15.722" fill-rule="evenodd" clip-rule="evenodd" width="0.304" height="0.021"/>
				<rect x="13.651" y="15.771" fill-rule="evenodd" clip-rule="evenodd" width="0.304" height="0.019"/>
				<rect x="13.651" y="15.821" fill-rule="evenodd" clip-rule="evenodd" width="0.304" height="0.02"/>
				<rect x="13.651" y="15.868" fill-rule="evenodd" clip-rule="evenodd" width="0.483" height="0.036"/>
				<rect x="13.651" y="15.931" fill-rule="evenodd" clip-rule="evenodd" width="0.304" height="0.02"/>
				<rect x="13.651" y="15.981" fill-rule="evenodd" clip-rule="evenodd" width="0.304" height="0.02"/>
				<rect x="13.651" y="16.029" fill-rule="evenodd" clip-rule="evenodd" width="0.304" height="0.02"/>
				<rect x="13.651" y="16.08" fill-rule="evenodd" clip-rule="evenodd" width="0.304" height="0.018"/>
				<rect x="13.651" y="16.127" fill-rule="evenodd" clip-rule="evenodd" width="0.483" height="0.035"/>
				<rect x="13.651" y="16.189" fill-rule="evenodd" clip-rule="evenodd" width="0.304" height="0.02"/>
				<rect x="13.651" y="16.24" fill-rule="evenodd" clip-rule="evenodd" width="0.304" height="0.018"/>
				<rect x="13.651" y="16.291" fill-rule="evenodd" clip-rule="evenodd" width="0.304" height="0.016"/>
				<rect x="13.651" y="16.34" fill-rule="evenodd" clip-rule="evenodd" width="0.304" height="0.018"/>
				<rect x="13.651" y="16.389" fill-rule="evenodd" clip-rule="evenodd" width="0.483" height="0.031"/>
				<rect x="13.651" y="16.447" fill-rule="evenodd" clip-rule="evenodd" width="0.304" height="0.021"/>
				<rect x="13.651" y="16.502" fill-rule="evenodd" clip-rule="evenodd" width="0.304" height="0.016"/>
				<rect x="13.651" y="16.549" fill-rule="evenodd" clip-rule="evenodd" width="0.304" height="0.02"/>
				<rect x="13.651" y="16.6" fill-rule="evenodd" clip-rule="evenodd" width="0.304" height="0.018"/>
				<rect x="13.651" y="16.646" fill-rule="evenodd" clip-rule="evenodd" width="0.483" height="0.031"/>
			</g>
			<path d="M15.569,16.27v-4.997h-2.602v4.997c0,0.715,0.585,1.299,1.302,1.299C14.985,17.568,15.569,16.984,15.569,16.27z
				 M15.409,16.164c0,0.68-0.511,1.227-1.14,1.227c-0.631,0-1.141-0.547-1.141-1.227v-4.713h2.28V16.164z"/>
			<g>
				<path d="M14.317,20.322l-0.063-2.877h0.148v3.736C14.403,21.076,14.4,20.836,14.317,20.322z"/>
			</g>
			<g>
				<rect x="13.793" y="8.268" width="0.728" height="2.77"/>
				<ellipse cx="14.155" cy="8.004" rx="1.383" ry="0.233"/>
			</g>
		</g>
	</g>
</g>
</svg>
