<?xml version="1.0" encoding="utf-8"?>
<!-- Generator: Adobe Illustrator 14.0.0, SVG Export Plug-In . SVG Version: 6.00 Build 43363)  -->
<!DOCTYPE svg PUBLIC "-//W3C//DTD SVG 1.1//EN" "http://www.w3.org/Graphics/SVG/1.1/DTD/svg11.dtd">
<svg version="1.1" id="Layer_1" xmlns="http://www.w3.org/2000/svg" xmlns:xlink="http://www.w3.org/1999/xlink" x="0px" y="0px"
	 width="28.2px" height="30px" viewBox="0 0 28.2 30" enable-background="new 0 0 28.2 30" xml:space="preserve">
<g>
	<g opacity="0.4">
		<ellipse opacity="0.3" fill="#FFFFFF" cx="14.457" cy="29.326" rx="11.292" ry="0.674"/>
		<path opacity="0.3038" fill="#FBFBFB" d="M25.696,29.326c0,0.371-5.03,0.671-11.24,0.671c-6.206,0-11.237-0.3-11.237-0.671
			s5.032-0.67,11.237-0.67C20.666,28.656,25.696,28.955,25.696,29.326z"/>
		<ellipse opacity="0.3077" fill="#F7F7F7" cx="14.457" cy="29.326" rx="11.185" ry="0.668"/>
		<ellipse opacity="0.3115" fill="#F4F4F3" cx="14.457" cy="29.326" rx="11.132" ry="0.665"/>
		<ellipse opacity="0.3154" fill="#F2F1F0" cx="14.457" cy="29.326" rx="11.078" ry="0.662"/>
		<ellipse opacity="0.3192" fill="#EFEEEE" cx="14.457" cy="29.326" rx="11.025" ry="0.659"/>
		<ellipse opacity="0.3231" fill="#EDECEB" cx="14.457" cy="29.326" rx="10.971" ry="0.656"/>
		<ellipse opacity="0.3269" fill="#EBE9E9" cx="14.457" cy="29.326" rx="10.917" ry="0.654"/>
		<ellipse opacity="0.3308" fill="#E9E7E7" cx="14.457" cy="29.326" rx="10.864" ry="0.651"/>
		<ellipse opacity="0.3346" fill="#E6E5E5" cx="14.457" cy="29.326" rx="10.81" ry="0.648"/>
		<path opacity="0.3385" fill="#E4E3E3" d="M25.213,29.326c0,0.357-4.814,0.646-10.758,0.646c-5.939,0-10.755-0.288-10.755-0.646
			s4.815-0.645,10.755-0.645C20.399,28.682,25.213,28.969,25.213,29.326z"/>
		<ellipse opacity="0.3423" fill="#E3E1E1" cx="14.457" cy="29.326" rx="10.703" ry="0.643"/>
		<ellipse opacity="0.3462" fill="#E1DFDF" cx="14.457" cy="29.326" rx="10.65" ry="0.64"/>
		<ellipse opacity="0.35" fill="#DFDDDD" cx="14.457" cy="29.326" rx="10.596" ry="0.637"/>
		<ellipse opacity="0.3538" fill="#DDDBDB" cx="14.457" cy="29.326" rx="10.542" ry="0.634"/>
		<ellipse opacity="0.3577" fill="#DBD9D9" cx="14.457" cy="29.326" rx="10.489" ry="0.631"/>
		<ellipse opacity="0.3615" fill="#D9D7D7" cx="14.457" cy="29.326" rx="10.435" ry="0.628"/>
		<ellipse opacity="0.3654" fill="#D7D5D5" cx="14.457" cy="29.326" rx="10.381" ry="0.625"/>
		<ellipse opacity="0.3692" fill="#D5D4D3" cx="14.457" cy="29.326" rx="10.328" ry="0.622"/>
		<ellipse opacity="0.3731" fill="#D4D2D1" cx="14.457" cy="29.326" rx="10.274" ry="0.619"/>
		<ellipse opacity="0.3769" fill="#D2D0D0" cx="14.457" cy="29.326" rx="10.221" ry="0.617"/>
		<ellipse opacity="0.3808" fill="#D0CECE" cx="14.457" cy="29.326" rx="10.167" ry="0.614"/>
		<ellipse opacity="0.3846" fill="#CECCCC" cx="14.457" cy="29.326" rx="10.114" ry="0.611"/>
		<ellipse opacity="0.3885" fill="#CCCACA" cx="14.457" cy="29.326" rx="10.06" ry="0.608"/>
		<ellipse opacity="0.3923" fill="#CBC8C8" cx="14.457" cy="29.326" rx="10.006" ry="0.605"/>
		<ellipse opacity="0.3962" fill="#C9C7C7" cx="14.457" cy="29.326" rx="9.953" ry="0.603"/>
		<ellipse opacity="0.4" fill="#C7C5C5" cx="14.457" cy="29.326" rx="9.899" ry="0.6"/>
		<ellipse opacity="0.4038" fill="#C5C3C3" cx="14.458" cy="29.326" rx="9.846" ry="0.597"/>
		<ellipse opacity="0.4077" fill="#C4C1C1" cx="14.458" cy="29.326" rx="9.792" ry="0.594"/>
		<ellipse opacity="0.4115" fill="#C2C0BF" cx="14.457" cy="29.326" rx="9.739" ry="0.591"/>
		<ellipse opacity="0.4154" fill="#C0BEBE" cx="14.457" cy="29.326" rx="9.685" ry="0.588"/>
		<ellipse opacity="0.4192" fill="#BEBCBC" cx="14.457" cy="29.326" rx="9.631" ry="0.585"/>
		<ellipse opacity="0.4231" fill="#BDBABA" cx="14.457" cy="29.326" rx="9.577" ry="0.582"/>
		<ellipse opacity="0.4269" fill="#BBB9B9" cx="14.457" cy="29.326" rx="9.524" ry="0.58"/>
		<ellipse opacity="0.4308" fill="#B9B7B7" cx="14.457" cy="29.326" rx="9.47" ry="0.577"/>
		<ellipse opacity="0.4346" fill="#B8B5B5" cx="14.458" cy="29.326" rx="9.417" ry="0.574"/>
		<ellipse opacity="0.4385" fill="#B6B4B3" cx="14.458" cy="29.326" rx="9.363" ry="0.571"/>
		<ellipse opacity="0.4423" fill="#B5B2B2" cx="14.458" cy="29.326" rx="9.31" ry="0.568"/>
		<ellipse opacity="0.4462" fill="#B3B0B0" cx="14.457" cy="29.326" rx="9.256" ry="0.565"/>
		<ellipse opacity="0.45" fill="#B1AFAF" cx="14.457" cy="29.326" rx="9.202" ry="0.563"/>
		<ellipse opacity="0.4538" fill="#B0ADAD" cx="14.457" cy="29.326" rx="9.149" ry="0.56"/>
		<ellipse opacity="0.4577" fill="#AEABAB" cx="14.457" cy="29.326" rx="9.095" ry="0.557"/>
		<ellipse opacity="0.4615" fill="#ADAAAA" cx="14.458" cy="29.326" rx="9.042" ry="0.554"/>
		<ellipse opacity="0.4654" fill="#ABA8A8" cx="14.458" cy="29.326" rx="8.988" ry="0.551"/>
		<ellipse opacity="0.4692" fill="#A9A7A6" cx="14.458" cy="29.326" rx="8.935" ry="0.548"/>
		<ellipse opacity="0.4731" fill="#A8A5A5" cx="14.458" cy="29.326" rx="8.881" ry="0.545"/>
		<ellipse opacity="0.4769" fill="#A6A3A3" cx="14.457" cy="29.326" rx="8.827" ry="0.543"/>
		<ellipse opacity="0.4808" fill="#A5A2A2" cx="14.457" cy="29.326" rx="8.774" ry="0.54"/>
		<ellipse opacity="0.4846" fill="#A3A0A0" cx="14.457" cy="29.326" rx="8.72" ry="0.537"/>
		<ellipse opacity="0.4885" fill="#A29F9F" cx="14.457" cy="29.326" rx="8.666" ry="0.534"/>
		<ellipse opacity="0.4923" fill="#A09D9D" cx="14.458" cy="29.326" rx="8.613" ry="0.531"/>
		<ellipse opacity="0.4962" fill="#9F9C9C" cx="14.458" cy="29.326" rx="8.56" ry="0.528"/>
		<ellipse opacity="0.5" fill="#9D9A9A" cx="14.458" cy="29.326" rx="8.506" ry="0.525"/>
		<ellipse opacity="0.5038" fill="#9C9999" cx="14.458" cy="29.326" rx="8.452" ry="0.522"/>
		<ellipse opacity="0.5077" fill="#9A9797" cx="14.458" cy="29.326" rx="8.398" ry="0.52"/>
		<ellipse opacity="0.5115" fill="#999696" cx="14.457" cy="29.326" rx="8.345" ry="0.517"/>
		<ellipse opacity="0.5154" fill="#979494" cx="14.457" cy="29.326" rx="8.291" ry="0.514"/>
		<ellipse opacity="0.5192" fill="#969393" cx="14.457" cy="29.326" rx="8.238" ry="0.511"/>
		<ellipse opacity="0.5231" fill="#949191" cx="14.458" cy="29.326" rx="8.184" ry="0.508"/>
		<ellipse opacity="0.5269" fill="#939090" cx="14.458" cy="29.326" rx="8.131" ry="0.506"/>
		<ellipse opacity="0.5308" fill="#918E8E" cx="14.458" cy="29.326" rx="8.077" ry="0.503"/>
		<ellipse opacity="0.5346" fill="#908D8D" cx="14.458" cy="29.326" rx="8.023" ry="0.5"/>
		<ellipse opacity="0.5385" fill="#8E8B8B" cx="14.458" cy="29.326" rx="7.97" ry="0.497"/>
		<ellipse opacity="0.5423" fill="#8D8A8A" cx="14.458" cy="29.326" rx="7.916" ry="0.494"/>
		<ellipse opacity="0.5462" fill="#8B8888" cx="14.457" cy="29.326" rx="7.863" ry="0.491"/>
		<ellipse opacity="0.55" fill="#8A8787" cx="14.458" cy="29.326" rx="7.809" ry="0.488"/>
		<ellipse opacity="0.5538" fill="#898685" cx="14.458" cy="29.326" rx="7.756" ry="0.485"/>
		<ellipse opacity="0.5577" fill="#878484" cx="14.458" cy="29.326" rx="7.702" ry="0.482"/>
		<ellipse opacity="0.5615" fill="#868383" cx="14.458" cy="29.326" rx="7.648" ry="0.479"/>
		<ellipse opacity="0.5654" fill="#848181" cx="14.458" cy="29.326" rx="7.595" ry="0.477"/>
		<ellipse opacity="0.5692" fill="#838080" cx="14.458" cy="29.326" rx="7.541" ry="0.474"/>
		<ellipse opacity="0.5731" fill="#827F7E" cx="14.458" cy="29.326" rx="7.487" ry="0.471"/>
		<ellipse opacity="0.5769" fill="#807D7D" cx="14.457" cy="29.326" rx="7.434" ry="0.469"/>
		<ellipse opacity="0.5808" fill="#7F7C7C" cx="14.458" cy="29.326" rx="7.381" ry="0.466"/>
		<ellipse opacity="0.5846" fill="#7E7A7A" cx="14.458" cy="29.326" rx="7.327" ry="0.463"/>
		<ellipse opacity="0.5885" fill="#7C7979" cx="14.458" cy="29.326" rx="7.273" ry="0.46"/>
		<ellipse opacity="0.5923" fill="#7B7878" cx="14.458" cy="29.326" rx="7.219" ry="0.457"/>
		<ellipse opacity="0.5962" fill="#7A7676" cx="14.458" cy="29.326" rx="7.166" ry="0.454"/>
		<ellipse opacity="0.6" fill="#787575" cx="14.458" cy="29.326" rx="7.112" ry="0.451"/>
		<ellipse opacity="0.6038" fill="#777474" cx="14.458" cy="29.326" rx="7.059" ry="0.448"/>
		<ellipse opacity="0.6077" fill="#767372" cx="14.458" cy="29.326" rx="7.005" ry="0.445"/>
		<ellipse opacity="0.6115" fill="#747171" cx="14.458" cy="29.326" rx="6.952" ry="0.442"/>
		<ellipse opacity="0.6154" fill="#737070" cx="14.458" cy="29.326" rx="6.898" ry="0.439"/>
		<ellipse opacity="0.6192" fill="#726F6E" cx="14.458" cy="29.326" rx="6.844" ry="0.437"/>
		<ellipse opacity="0.6231" fill="#716D6D" cx="14.458" cy="29.326" rx="6.791" ry="0.434"/>
		<ellipse opacity="0.6269" fill="#6F6C6C" cx="14.458" cy="29.326" rx="6.737" ry="0.432"/>
		<ellipse opacity="0.6308" fill="#6E6B6B" cx="14.458" cy="29.326" rx="6.684" ry="0.429"/>
		<ellipse opacity="0.6346" fill="#6D6A69" cx="14.458" cy="29.326" rx="6.63" ry="0.426"/>
		<ellipse opacity="0.6385" fill="#6C6868" cx="14.458" cy="29.326" rx="6.577" ry="0.423"/>
		<ellipse opacity="0.6423" fill="#6A6767" cx="14.458" cy="29.326" rx="6.523" ry="0.42"/>
		<ellipse opacity="0.6462" fill="#696666" cx="14.458" cy="29.326" rx="6.469" ry="0.417"/>
		<ellipse opacity="0.65" fill="#686565" cx="14.458" cy="29.325" rx="6.416" ry="0.415"/>
		<ellipse opacity="0.6538" fill="#676463" cx="14.458" cy="29.325" rx="6.362" ry="0.412"/>
		<ellipse opacity="0.6577" fill="#656262" cx="14.458" cy="29.325" rx="6.308" ry="0.409"/>
		<ellipse opacity="0.6615" fill="#646161" cx="14.458" cy="29.325" rx="6.255" ry="0.406"/>
		<ellipse opacity="0.6654" fill="#636060" cx="14.458" cy="29.325" rx="6.202" ry="0.403"/>
		<ellipse opacity="0.6692" fill="#625F5F" cx="14.458" cy="29.325" rx="6.148" ry="0.4"/>
		<ellipse opacity="0.6731" fill="#615E5D" cx="14.458" cy="29.325" rx="6.094" ry="0.397"/>
		<ellipse opacity="0.6769" fill="#5F5D5C" cx="14.458" cy="29.325" rx="6.041" ry="0.396"/>
		<ellipse opacity="0.6808" fill="#5E5C5B" cx="14.458" cy="29.325" rx="5.987" ry="0.393"/>
		<ellipse opacity="0.6846" fill="#5D5A5A" cx="14.458" cy="29.325" rx="5.933" ry="0.39"/>
		<ellipse opacity="0.6885" fill="#5C5959" cx="14.458" cy="29.325" rx="5.88" ry="0.387"/>
		<ellipse opacity="0.6923" fill="#5B5858" cx="14.458" cy="29.325" rx="5.826" ry="0.384"/>
		<path opacity="0.6962" fill="#5A5757" d="M20.231,29.325c0,0.212-2.587,0.381-5.775,0.381c-3.188,0-5.771-0.169-5.771-0.381
			c0-0.211,2.583-0.378,5.771-0.378C17.644,28.947,20.231,29.114,20.231,29.325z"/>
		<path opacity="0.7" fill="#595655" d="M20.177,29.325c0,0.21-2.563,0.378-5.722,0.378c-3.158,0-5.717-0.168-5.717-0.378
			c0-0.209,2.559-0.376,5.717-0.376C17.615,28.949,20.177,29.116,20.177,29.325z"/>
		<path opacity="0.7038" fill="#585554" d="M20.124,29.325c0,0.208-2.539,0.375-5.668,0.375c-3.128,0-5.663-0.167-5.663-0.375
			s2.535-0.373,5.663-0.373C17.584,28.952,20.124,29.117,20.124,29.325z"/>
		<path opacity="0.7077" fill="#575453" d="M20.07,29.325c0,0.207-2.515,0.372-5.614,0.372c-3.099,0-5.609-0.165-5.609-0.372
			c0-0.206,2.511-0.37,5.609-0.37C17.555,28.955,20.07,29.119,20.07,29.325z"/>
		<ellipse opacity="0.7115" fill="#555352" cx="14.458" cy="29.325" rx="5.558" ry="0.369"/>
		<ellipse opacity="0.7154" fill="#545251" cx="14.458" cy="29.325" rx="5.505" ry="0.366"/>
		<ellipse opacity="0.7192" fill="#535150" cx="14.458" cy="29.325" rx="5.451" ry="0.363"/>
		<ellipse opacity="0.7231" fill="#524F4F" cx="14.458" cy="29.325" rx="5.397" ry="0.36"/>
		<path opacity="0.7269" fill="#514E4E" d="M19.802,29.325c0,0.199-2.396,0.358-5.347,0.358c-2.951,0-5.342-0.159-5.342-0.358
			c0-0.198,2.391-0.355,5.342-0.355C17.407,28.97,19.802,29.127,19.802,29.325z"/>
		<path opacity="0.7308" fill="#504D4D" d="M19.749,29.325c0,0.197-2.371,0.355-5.293,0.355c-2.921,0-5.288-0.158-5.288-0.355
			c0-0.196,2.367-0.353,5.288-0.353C17.377,28.973,19.749,29.129,19.749,29.325z"/>
		<path opacity="0.7346" fill="#4F4C4C" d="M19.695,29.325c0,0.195-2.347,0.353-5.239,0.353c-2.892,0-5.234-0.157-5.234-0.353
			s2.343-0.35,5.234-0.35C17.348,28.976,19.695,29.13,19.695,29.325z"/>
		<path opacity="0.7385" fill="#4E4B4B" d="M19.641,29.325c0,0.194-2.323,0.35-5.186,0.35c-2.862,0-5.181-0.155-5.181-0.35
			c0-0.193,2.319-0.347,5.181-0.347C17.318,28.979,19.641,29.132,19.641,29.325z"/>
		<ellipse opacity="0.7423" fill="#4D4A4A" cx="14.458" cy="29.325" rx="5.13" ry="0.347"/>
		<ellipse opacity="0.7462" fill="#4C4949" cx="14.458" cy="29.325" rx="5.076" ry="0.344"/>
		<ellipse opacity="0.75" fill="#4B4848" cx="14.458" cy="29.325" rx="5.022" ry="0.341"/>
		<path opacity="0.7538" fill="#4A4747" d="M19.427,29.325c0,0.188-2.228,0.338-4.972,0.338c-2.744,0-4.966-0.15-4.966-0.338
			s2.223-0.336,4.966-0.336C17.2,28.989,19.427,29.138,19.427,29.325z"/>
		<path opacity="0.7577" fill="#494646" d="M19.374,29.325c0,0.187-2.203,0.335-4.918,0.335c-2.714,0-4.913-0.148-4.913-0.335
			c0-0.186,2.199-0.333,4.913-0.333C17.17,28.992,19.374,29.14,19.374,29.325z"/>
		<path opacity="0.7615" fill="#484545" d="M19.32,29.325c0,0.185-2.18,0.332-4.864,0.332c-2.684,0-4.859-0.147-4.859-0.332
			c0-0.184,2.175-0.33,4.859-0.33C17.14,28.995,19.32,29.142,19.32,29.325z"/>
		<path opacity="0.7654" fill="#474444" d="M19.266,29.325c0,0.184-2.155,0.329-4.811,0.329c-2.655,0-4.806-0.146-4.806-0.329
			c0-0.183,2.151-0.327,4.806-0.327C17.111,28.998,19.266,29.143,19.266,29.325z"/>
		<path opacity="0.7692" fill="#464343" d="M19.212,29.325c0,0.182-2.131,0.326-4.757,0.326c-2.625,0-4.752-0.145-4.752-0.326
			c0-0.181,2.127-0.324,4.752-0.324C17.082,29.001,19.212,29.145,19.212,29.325z"/>
		<path opacity="0.7731" fill="#454242" d="M19.159,29.325c0,0.18-2.107,0.323-4.703,0.323s-4.698-0.144-4.698-0.323
			s2.103-0.321,4.698-0.321S19.159,29.146,19.159,29.325z"/>
		<ellipse opacity="0.7769" fill="#444141" cx="14.458" cy="29.325" rx="4.647" ry="0.321"/>
		<ellipse opacity="0.7808" fill="#434040" cx="14.458" cy="29.325" rx="4.594" ry="0.318"/>
		<path opacity="0.7846" fill="#423F3F" d="M18.999,29.325c0,0.175-2.036,0.315-4.543,0.315S9.918,29.5,9.918,29.325
			s2.031-0.313,4.538-0.313S18.999,29.15,18.999,29.325z"/>
		<path opacity="0.7885" fill="#413E3E" d="M18.945,29.325c0,0.174-2.012,0.313-4.489,0.313c-2.477,0-4.484-0.139-4.484-0.313
			c0-0.173,2.007-0.31,4.484-0.31C16.933,29.016,18.945,29.152,18.945,29.325z"/>
		<path opacity="0.7923" fill="#403D3D" d="M18.891,29.325c0,0.172-1.987,0.31-4.436,0.31c-2.448,0-4.431-0.138-4.431-0.31
			s1.983-0.308,4.431-0.308C16.904,29.018,18.891,29.153,18.891,29.325z"/>
		<path opacity="0.7962" fill="#3F3C3C" d="M18.837,29.325c0,0.171-1.964,0.307-4.382,0.307s-4.377-0.136-4.377-0.307
			c0-0.17,1.959-0.305,4.377-0.305S18.837,29.155,18.837,29.325z"/>
		<path opacity="0.8" fill="#3E3C3B" d="M18.784,29.325c0,0.169-1.939,0.304-4.328,0.304c-2.388,0-4.323-0.135-4.323-0.304
			c0-0.168,1.935-0.302,4.323-0.302C16.844,29.023,18.784,29.157,18.784,29.325z"/>
		<path opacity="0.8038" fill="#3D3B3A" d="M18.73,29.325c0,0.167-1.915,0.301-4.274,0.301c-2.359,0-4.27-0.134-4.27-0.301
			s1.911-0.299,4.27-0.299C16.815,29.026,18.73,29.158,18.73,29.325z"/>
		<path opacity="0.8077" fill="#3C3A39" d="M18.676,29.325c0,0.166-1.892,0.298-4.221,0.298s-4.216-0.132-4.216-0.298
			c0-0.165,1.887-0.296,4.216-0.296S18.676,29.16,18.676,29.325z"/>
		<path opacity="0.8115" fill="#3B3938" d="M18.624,29.325c0,0.164-1.868,0.295-4.168,0.295s-4.163-0.131-4.163-0.295
			s1.863-0.293,4.163-0.293S18.624,29.161,18.624,29.325z"/>
		<path opacity="0.8154" fill="#3A3837" d="M18.57,29.325c0,0.163-1.844,0.292-4.114,0.292c-2.27,0-4.109-0.129-4.109-0.292
			c0-0.162,1.839-0.29,4.109-0.29C16.726,29.035,18.57,29.163,18.57,29.325z"/>
		<path opacity="0.8192" fill="#393736" d="M18.516,29.325c0,0.161-1.82,0.289-4.061,0.289S10.4,29.486,10.4,29.325
			c0-0.16,1.815-0.287,4.055-0.287S18.516,29.165,18.516,29.325z"/>
		<path opacity="0.8231" fill="#383635" d="M18.462,29.325c0,0.159-1.796,0.286-4.007,0.286s-4.001-0.127-4.001-0.286
			s1.791-0.284,4.001-0.284S18.462,29.166,18.462,29.325z"/>
		<path opacity="0.8269" fill="#373534" d="M18.409,29.325c0,0.158-1.771,0.284-3.953,0.284c-2.181,0-3.948-0.126-3.948-0.284
			c0-0.157,1.767-0.281,3.948-0.281C16.637,29.044,18.409,29.168,18.409,29.325z"/>
		<path opacity="0.8308" fill="#363433" d="M18.355,29.325c0,0.156-1.748,0.281-3.899,0.281c-2.152,0-3.895-0.125-3.895-0.281
			s1.743-0.278,3.895-0.278C16.607,29.047,18.355,29.169,18.355,29.325z"/>
		<path opacity="0.8346" fill="#353332" d="M18.301,29.325c0,0.154-1.724,0.278-3.846,0.278s-3.841-0.124-3.841-0.278
			s1.719-0.275,3.841-0.275S18.301,29.171,18.301,29.325z"/>
		<path opacity="0.8385" fill="#343232" d="M18.248,29.325c0,0.153-1.699,0.275-3.792,0.275c-2.092,0-3.787-0.122-3.787-0.275
			c0-0.152,1.695-0.273,3.787-0.273C16.548,29.052,18.248,29.173,18.248,29.325z"/>
		<path opacity="0.8423" fill="#333131" d="M18.195,29.325c0,0.151-1.676,0.272-3.739,0.272c-2.063,0-3.734-0.121-3.734-0.272
			s1.671-0.271,3.734-0.271C16.519,29.055,18.195,29.174,18.195,29.325z"/>
		<path opacity="0.8462" fill="#323030" d="M18.141,29.325c0,0.15-1.652,0.27-3.686,0.27s-3.68-0.119-3.68-0.27
			c0-0.149,1.647-0.268,3.68-0.268S18.141,29.176,18.141,29.325z"/>
		<path opacity="0.85" fill="#312F2F" d="M18.087,29.325c0,0.148-1.628,0.267-3.632,0.267s-3.626-0.118-3.626-0.267
			s1.623-0.265,3.626-0.265S18.087,29.177,18.087,29.325z"/>
		<path opacity="0.8538" fill="#302E2E" d="M18.034,29.325c0,0.146-1.604,0.264-3.578,0.264c-1.974,0-3.573-0.117-3.573-0.264
			s1.599-0.262,3.573-0.262C16.43,29.063,18.034,29.179,18.034,29.325z"/>
		<path opacity="0.8577" fill="#2F2D2D" d="M17.98,29.325c0,0.146-1.58,0.261-3.524,0.261s-3.519-0.115-3.519-0.261
			c0-0.145,1.575-0.259,3.519-0.259S17.98,29.181,17.98,29.325z"/>
		<path opacity="0.8615" fill="#2E2C2C" d="M17.926,29.325c0,0.144-1.556,0.258-3.471,0.258s-3.466-0.114-3.466-0.258
			s1.551-0.256,3.466-0.256S17.926,29.182,17.926,29.325z"/>
		<path opacity="0.8654" fill="#2D2B2B" d="M17.873,29.325c0,0.143-1.531,0.255-3.417,0.255c-1.885,0-3.412-0.112-3.412-0.255
			c0-0.142,1.527-0.253,3.412-0.253C16.341,29.072,17.873,29.184,17.873,29.325z"/>
		<path opacity="0.8692" fill="#2C2A2A" d="M17.82,29.325c0,0.141-1.509,0.252-3.364,0.252c-1.856,0-3.358-0.111-3.358-0.252
			s1.502-0.25,3.358-0.25C16.311,29.075,17.82,29.185,17.82,29.325z"/>
		<path opacity="0.8731" fill="#2B2929" d="M17.766,29.325c0,0.139-1.484,0.249-3.311,0.249s-3.305-0.11-3.305-0.249
			s1.479-0.247,3.305-0.247S17.766,29.187,17.766,29.325z"/>
		<path opacity="0.8769" fill="#2A2928" d="M17.712,29.325c0,0.138-1.46,0.247-3.257,0.247c-1.796,0-3.251-0.109-3.251-0.247
			c0-0.137,1.455-0.244,3.251-0.244C16.252,29.081,17.712,29.188,17.712,29.325z"/>
		<path opacity="0.8808" fill="#292827" d="M17.659,29.325c0,0.136-1.437,0.244-3.203,0.244c-1.767,0-3.198-0.108-3.198-0.244
			s1.431-0.241,3.198-0.241C16.222,29.084,17.659,29.189,17.659,29.325z"/>
		<path opacity="0.8846" fill="#282726" d="M17.605,29.325c0,0.134-1.412,0.241-3.149,0.241s-3.144-0.107-3.144-0.241
			s1.407-0.239,3.144-0.239S17.605,29.191,17.605,29.325z"/>
		<path opacity="0.8885" fill="#272625" d="M17.551,29.325c0,0.133-1.388,0.238-3.096,0.238s-3.09-0.105-3.09-0.238
			s1.382-0.236,3.09-0.236S17.551,29.192,17.551,29.325z"/>
		<path opacity="0.8923" fill="#262524" d="M17.498,29.325c0,0.131-1.364,0.235-3.042,0.235c-1.678,0-3.037-0.104-3.037-0.235
			s1.359-0.233,3.037-0.233C16.133,29.092,17.498,29.194,17.498,29.325z"/>
		<path opacity="0.8962" fill="#242423" d="M17.444,29.325c0,0.13-1.34,0.232-2.988,0.232s-2.983-0.103-2.983-0.232
			c0-0.129,1.335-0.23,2.983-0.23S17.444,29.196,17.444,29.325z"/>
		<path opacity="0.9" fill="#232322" d="M17.391,29.325c0,0.128-1.316,0.229-2.936,0.229s-2.93-0.102-2.93-0.229
			s1.311-0.228,2.93-0.228S17.391,29.197,17.391,29.325z"/>
		<path opacity="0.9038" fill="#222221" d="M17.337,29.325c0,0.126-1.293,0.227-2.882,0.227c-1.589,0-2.876-0.101-2.876-0.227
			s1.287-0.225,2.876-0.225C16.044,29.101,17.337,29.199,17.337,29.325z"/>
		<path opacity="0.9077" fill="#212120" d="M17.284,29.325c0,0.125-1.269,0.224-2.828,0.224s-2.822-0.099-2.822-0.224
			s1.263-0.222,2.822-0.222S17.284,29.2,17.284,29.325z"/>
		<path opacity="0.9115" fill="#201F1F" d="M17.23,29.325c0,0.123-1.244,0.221-2.774,0.221s-2.769-0.098-2.769-0.221
			s1.239-0.219,2.769-0.219S17.23,29.202,17.23,29.325z"/>
		<path opacity="0.9154" fill="#1F1E1E" d="M17.176,29.325c0,0.122-1.221,0.218-2.721,0.218c-1.5,0-2.715-0.096-2.715-0.218
			c0-0.121,1.215-0.216,2.715-0.216C15.956,29.109,17.176,29.204,17.176,29.325z"/>
		<path opacity="0.9192" fill="#1E1D1D" d="M17.123,29.325c0,0.12-1.196,0.215-2.667,0.215c-1.471,0-2.662-0.095-2.662-0.215
			s1.19-0.213,2.662-0.213C15.926,29.112,17.123,29.205,17.123,29.325z"/>
		<path opacity="0.9231" fill="#1D1C1C" d="M17.069,29.325c0,0.118-1.172,0.212-2.613,0.212s-2.608-0.094-2.608-0.212
			s1.167-0.21,2.608-0.21S17.069,29.207,17.069,29.325z"/>
		<path opacity="0.9269" fill="#1C1B1B" d="M17.015,29.325c0,0.117-1.148,0.21-2.56,0.21c-1.412,0-2.555-0.093-2.555-0.21
			c0-0.116,1.143-0.207,2.555-0.207C15.867,29.118,17.015,29.209,17.015,29.325z"/>
		<path opacity="0.9308" fill="#1B1A1A" d="M16.962,29.325c0,0.115-1.125,0.207-2.507,0.207c-1.382,0-2.501-0.092-2.501-0.207
			s1.119-0.205,2.501-0.205C15.837,29.12,16.962,29.21,16.962,29.325z"/>
		<path opacity="0.9346" fill="#1A1919" d="M16.909,29.325c0,0.113-1.101,0.204-2.453,0.204s-2.447-0.091-2.447-0.204
			s1.095-0.202,2.447-0.202S16.909,29.212,16.909,29.325z"/>
		<path opacity="0.9385" fill="#181818" d="M16.855,29.325c0,0.112-1.077,0.201-2.399,0.201c-1.323,0-2.394-0.089-2.394-0.201
			s1.07-0.199,2.394-0.199C15.778,29.126,16.855,29.213,16.855,29.325z"/>
		<path opacity="0.9423" fill="#171717" d="M16.801,29.325c0,0.11-1.053,0.198-2.346,0.198c-1.293,0-2.34-0.088-2.34-0.198
			s1.047-0.196,2.34-0.196C15.749,29.129,16.801,29.215,16.801,29.325z"/>
		<path opacity="0.9462" fill="#161616" d="M16.748,29.325c0,0.109-1.028,0.195-2.292,0.195s-2.287-0.086-2.287-0.195
			c0-0.108,1.023-0.193,2.287-0.193S16.748,29.217,16.748,29.325z"/>
		<path opacity="0.95" fill="#151414" d="M16.694,29.325c0,0.107-1.005,0.192-2.238,0.192c-1.234,0-2.233-0.085-2.233-0.192
			s0.999-0.19,2.233-0.19C15.689,29.135,16.694,29.218,16.694,29.325z"/>
		<path opacity="0.9538" fill="#131313" d="M16.64,29.325c0,0.105-0.98,0.189-2.185,0.189c-1.205,0-2.179-0.084-2.179-0.189
			s0.975-0.188,2.179-0.188C15.66,29.138,16.64,29.22,16.64,29.325z"/>
		<path opacity="0.9577" fill="#121212" d="M16.587,29.325c0,0.104-0.957,0.187-2.132,0.187c-1.175,0-2.125-0.082-2.125-0.187
			s0.95-0.185,2.125-0.185C15.63,29.141,16.587,29.221,16.587,29.325z"/>
		<path opacity="0.9615" fill="#111111" d="M16.534,29.325c0,0.103-0.934,0.184-2.078,0.184c-1.146,0-2.072-0.081-2.072-0.184
			s0.927-0.182,2.072-0.182C15.6,29.144,16.534,29.223,16.534,29.325z"/>
		<path opacity="0.9654" fill="#0F0F0F" d="M16.48,29.325c0,0.102-0.909,0.181-2.024,0.181c-1.116,0-2.019-0.079-2.019-0.181
			c0-0.101,0.903-0.179,2.019-0.179C15.571,29.146,16.48,29.225,16.48,29.325z"/>
		<path opacity="0.9692" fill="#0E0E0E" d="M16.426,29.325c0,0.1-0.885,0.178-1.971,0.178c-1.086,0-1.965-0.078-1.965-0.178
			s0.878-0.176,1.965-0.176C15.542,29.149,16.426,29.226,16.426,29.325z"/>
		<path opacity="0.9731" fill="#0C0C0C" d="M16.373,29.325c0,0.098-0.861,0.175-1.917,0.175c-1.057,0-1.911-0.077-1.911-0.175
			s0.854-0.173,1.911-0.173C15.511,29.152,16.373,29.228,16.373,29.325z"/>
		<path opacity="0.9769" fill="#0B0B0B" d="M16.319,29.325c0,0.097-0.837,0.173-1.863,0.173c-1.027,0-1.858-0.076-1.858-0.173
			s0.831-0.171,1.858-0.171C15.482,29.154,16.319,29.229,16.319,29.325z"/>
		<path opacity="0.9808" fill="#090909" d="M16.265,29.325c0,0.095-0.813,0.17-1.81,0.17c-0.998,0-1.804-0.075-1.804-0.17
			s0.807-0.168,1.804-0.168C15.453,29.157,16.265,29.23,16.265,29.325z"/>
		<path opacity="0.9846" fill="#070807" d="M16.211,29.325c0,0.093-0.789,0.167-1.756,0.167c-0.968,0-1.75-0.074-1.75-0.167
			s0.783-0.165,1.75-0.165C15.422,29.16,16.211,29.232,16.211,29.325z"/>
		<path opacity="0.9885" fill="#060606" d="M16.159,29.325c0,0.092-0.766,0.164-1.703,0.164c-0.938,0-1.697-0.072-1.697-0.164
			s0.758-0.162,1.697-0.162C15.393,29.163,16.159,29.233,16.159,29.325z"/>
		<path opacity="0.9923" fill="#040404" d="M16.105,29.325c0,0.09-0.741,0.161-1.649,0.161c-0.909,0-1.644-0.071-1.644-0.161
			s0.735-0.159,1.644-0.159C15.364,29.166,16.105,29.235,16.105,29.325z"/>
		<path opacity="0.9962" fill="#030303" d="M16.051,29.325c0,0.089-0.718,0.158-1.596,0.158c-0.879,0-1.59-0.069-1.59-0.158
			s0.71-0.156,1.59-0.156C15.333,29.169,16.051,29.236,16.051,29.325z"/>
		<path fill="#010101" d="M15.998,29.325c0,0.087-0.693,0.155-1.542,0.155c-0.85,0-1.536-0.068-1.536-0.155s0.687-0.153,1.536-0.153
			C15.304,29.172,15.998,29.238,15.998,29.325z"/>
	</g>
	
		<linearGradient id="SVGID_1_" gradientUnits="userSpaceOnUse" x1="5.0508" y1="21.208" x2="20.5596" y2="9.0309" gradientTransform="matrix(1.0423 0 0 1.0317 0.954 -1.7689)">
		<stop  offset="0" style="stop-color:#969696"/>
		<stop  offset="0.0046" style="stop-color:#979897"/>
		<stop  offset="0.1201" style="stop-color:#B5B5B4"/>
		<stop  offset="0.236" style="stop-color:#CFCECE"/>
		<stop  offset="0.3511" style="stop-color:#E3E2E2"/>
		<stop  offset="0.4651" style="stop-color:#EFEFEF"/>
		<stop  offset="0.5767" style="stop-color:#F4F4F4"/>
		<stop  offset="0.6953" style="stop-color:#EFEFEF"/>
		<stop  offset="0.8336" style="stop-color:#E1E1E1"/>
		<stop  offset="0.9811" style="stop-color:#CCCBCB"/>
		<stop  offset="1" style="stop-color:#C8C8C8"/>
	</linearGradient>
	<path fill="url(#SVGID_1_)" d="M24.13,14.175c0,5.617-4.598,10.172-10.276,10.172c-5.676,0-10.275-4.556-10.275-10.172
		c0-5.613,4.6-10.17,10.275-10.17C19.533,4.005,24.13,8.562,24.13,14.175z"/>
	
		<radialGradient id="SVGID_2_" cx="16.2681" cy="-518.3491" r="82.2074" gradientTransform="matrix(0.1205 0 0 0.1196 12.2266 76.4428)" gradientUnits="userSpaceOnUse">
		<stop  offset="0" style="stop-color:#FFFFFF"/>
		<stop  offset="1" style="stop-color:#E1E1E1"/>
	</radialGradient>
	<path fill="url(#SVGID_2_)" d="M23.367,13.985c0,5.11-4.172,9.255-9.322,9.255c-5.149,0-9.321-4.145-9.321-9.255
		c0-5.102,4.172-9.246,9.321-9.246C19.195,4.739,23.367,8.883,23.367,13.985z"/>
	
		<radialGradient id="SVGID_3_" cx="-35.3145" cy="-562.2163" r="188.2019" gradientTransform="matrix(0.116 0 0 0.116 12.828 77.2681)" gradientUnits="userSpaceOnUse">
		<stop  offset="0" style="stop-color:#0E9246"/>
		<stop  offset="0.7397" style="stop-color:#37B551"/>
	</radialGradient>
	<path fill="url(#SVGID_3_)" d="M18.167,2.179c-1.883-2.038-5.087-2.171-7.128-0.295l-8.855,8.145
		c-2.04,1.878-2.175,5.085-0.298,7.126l8.146,8.855c1.88,2.041,5.085,2.175,7.126,0.298l8.859-8.149
		c2.039-1.877,2.172-5.08,0.295-7.121L18.167,2.179z M14.051,23.516c-5.248,0-9.507-4.26-9.507-9.511
		c0-5.25,4.259-9.508,9.507-9.508c5.257,0,9.513,4.258,9.513,9.508C23.564,19.256,19.308,23.516,14.051,23.516z"/>
	<linearGradient id="SVGID_4_" gradientUnits="userSpaceOnUse" x1="-4.3164" y1="12.8374" x2="32.2059" y2="15.3312">
		<stop  offset="0" style="stop-color:#37B551"/>
		<stop  offset="1" style="stop-color:#0E9246"/>
	</linearGradient>
	<path fill="url(#SVGID_4_)" d="M17.945,1.509c-1.748-1.899-4.729-2.022-6.63-0.275L1.513,10.25c-1.9,1.748-2.025,4.733-0.276,6.629
		l9.016,9.802c1.748,1.899,4.729,2.023,6.63,0.276l9.803-9.016c1.902-1.749,2.027-4.732,0.277-6.628L17.945,1.509z M14.051,24.119
		c-5.586,0-10.115-4.529-10.115-10.114c0-5.59,4.529-10.116,10.115-10.116c5.589,0,10.167,4.422,10.167,10.008
		S19.64,24.119,14.051,24.119z"/>
	<g>
		<path fill="#FFFFFF" d="M3.933,13.773C3.92,15.21,4.208,16.712,4.69,17.799c-0.381-1.055-0.596-2.719-0.584-4.122
			c0.011-1.389,0.292-2.705,0.686-3.754C4.264,11.001,3.947,12.337,3.933,13.773z"/>
	</g>
	<g>
		<path fill="#FFFFFF" d="M0.138,13.636c-0.009,0.91,0.284,1.858,0.768,2.543c-0.382-0.665-0.603-1.717-0.595-2.596
			c0.006-0.881,0.282-1.71,0.673-2.368C0.459,11.892,0.147,12.734,0.138,13.636z"/>
	</g>
	<path fill="#FFFFFF" d="M21.523,20.787c0.275-0.293,0.658-0.805,0.889-1.137c0.631-0.889,1.098-1.931,1.393-2.975
		c0.17-0.597,0.287-1.218,0.355-1.83c0.064-0.581,0.072-1.173,0.025-1.754c-0.041-0.556-0.201-1.606-0.408-2.064
		c0.223,0.552,0.27,1.662,0.27,2.247c0,2.192-0.596,4.308-1.754,6.167c-0.307,0.498-0.66,0.973-1.041,1.417
		c-0.355,0.417-0.873,0.866-1.26,1.256C20.73,21.563,21.037,21.295,21.523,20.787z"/>
	<path opacity="0.49" fill="#FFFFFF" d="M14.609,19.207c3.955,0,7.383-2.789,8.725-6.225c0.02,0.245,0.043,0.881,0.043,1.136
		c0,5.058-4.223,9.122-9.357,9.122c-5.133,0-9.293-4.104-9.293-9.163c0-1.163,0.089-2.19,0.49-3.216
		C5.597,15.572,9.732,19.207,14.609,19.207z"/>
	<g>
		<path fill="#FFFFFF" d="M20.851,18.384c0.146,0.575-0.193,1.155-0.754,1.296l-7.948,1.996c-0.56,0.141-1.132-0.212-1.275-0.791
			L8.155,10.054C8.009,9.482,8.349,8.899,8.91,8.757l7.943-1.993c0.564-0.141,1.137,0.211,1.279,0.786L20.851,18.384z"/>
		<path fill="#010101" d="M20.585,18.367c0.141,0.541-0.113,0.967-0.668,1.104l-7.789,1.942c-0.552,0.138-1.006-0.074-1.141-0.62
			L8.326,10.157c-0.138-0.542,0.087-0.942,0.638-1.08l7.813-2.019c0.551-0.138,1.016,0.197,1.152,0.742L20.585,18.367z"/>
		<path fill="#C8C8C8" d="M20.513,18.318c0.135,0.537-0.113,0.955-0.656,1.09l-7.7,1.919c-0.546,0.137-0.993-0.075-1.128-0.611
			l-2.63-10.507c-0.137-0.538,0.087-0.931,0.63-1.067l7.719-1.997c0.547-0.137,1.006,0.193,1.141,0.732L20.513,18.318z"/>
		<path fill="#737373" d="M19.568,18.236c0.127,0.494-0.148,0.988-0.607,1.104l-5.967,1.496c-0.46,0.117-0.934-0.189-1.058-0.684
			l-2.498-9.95C9.315,9.707,9.588,9.211,10.045,9.1l5.966-1.5c0.461-0.114,0.938,0.194,1.059,0.686L19.568,18.236z"/>
		<path fill="#A3A3A2" d="M19.425,17.668c0.123,0.482-0.152,0.969-0.611,1.086l-5.968,1.496c-0.458,0.115-0.933-0.18-1.052-0.668
			l-2.36-9.396C9.313,9.698,9.588,9.211,10.045,9.1l5.966-1.5c0.461-0.114,0.934,0.184,1.055,0.668L19.425,17.668z"/>
		<path fill="#FFFFFF" d="M19.439,17.725c0.115,0.455-0.166,0.912-0.625,1.029l-5.968,1.496c-0.458,0.115-0.924-0.158-1.041-0.611
			L9.42,10.13C9.304,9.674,9.588,9.211,10.045,9.1l5.966-1.5c0.461-0.114,0.926,0.158,1.041,0.613L19.439,17.725z"/>
		<path fill="#737373" d="M14.938,8.478l-3.164,0.868c-0.289,0.072-0.612-0.419-0.612-0.419c-0.046-0.171,0.186-0.154,0.472-0.227
			l3.134-0.788c0.291-0.072,0.506-0.126,0.506-0.126S15.224,8.405,14.938,8.478z"/>
		<path fill="#010101" d="M15.121,7.983c0.063,0.243-0.086,0.487-0.329,0.546L11.559,9.34c-0.242,0.063-0.487-0.085-0.548-0.328
			l-0.074-0.298c-0.06-0.239,0.085-0.483,0.328-0.548l3.233-0.81c0.243-0.063,0.487,0.086,0.547,0.327L15.121,7.983z"/>
		<path fill="#010101" d="M12.706,7.036c-0.731,0.187-1.239,0.656-1.138,1.056s0.771,0.575,1.498,0.391
			c0.731-0.18,1.239-0.655,1.137-1.054C14.102,7.03,13.432,6.855,12.706,7.036z M12.999,8.22c-0.456,0.112-0.882,0.001-0.946-0.251
			c-0.064-0.252,0.26-0.552,0.721-0.666c0.46-0.113,0.882-0.005,0.946,0.251C13.782,7.806,13.459,8.103,12.999,8.22z"/>
		<g>
			<path fill="#010101" d="M10.39,11.506"/>
			<polygon fill="#010101" points="13.911,10.623 10.39,11.506 10.372,11.428 13.895,10.557 			"/>
		</g>
		<g>
			<path fill="#010101" d="M10.538,12.095"/>
			<polygon fill="#010101" points="15.234,10.917 10.538,12.095 10.518,12.015 15.218,10.852 			"/>
		</g>
		<g>
			<path fill="#010101" d="M10.684,12.682"/>
			<polygon fill="#010101" points="16.558,11.206 10.684,12.682 10.664,12.604 16.541,11.146 			"/>
		</g>
		<g>
			<path fill="#010101" d="M10.832,13.271"/>
			<polygon fill="#010101" points="17.291,11.648 10.832,13.271 10.811,13.192 17.273,11.583 			"/>
		</g>
		<g>
			<path fill="#010101" d="M12.011,17.965"/>
			<polygon fill="#010101" points="15.535,17.082 12.011,17.965 11.988,17.885 15.519,17.016 			"/>
		</g>
		<g>
			<path fill="#010101" d="M12.158,18.55"/>
			<polygon fill="#010101" points="15.681,17.668 12.158,18.55 12.138,18.474 15.666,17.604 			"/>
		</g>
		<g>
			<path fill="#010101" d="M12.305,19.139"/>
			<polygon fill="#010101" points="15.83,18.257 12.305,19.139 12.286,19.063 15.814,18.189 			"/>
		</g>
	</g>
</g>
</svg>
